<svg xmlns="http://www.w3.org/2000/svg" xmlns:xlink="http://www.w3.org/1999/xlink" width="101" height="101" viewBox="0 0 101 101"><defs><clipPath id="a"><path d="M336.329,2172.072a50.5,50.5,0,1,1-50.5-50.5,50.5,50.5,0,0,1,50.5,50.5Z" transform="translate(-235.329 -2121.572)" fill="none"/></clipPath></defs><g transform="translate(12008.552 9039.248)"><path d="M336.329,2172.071a50.5,50.5,0,1,1-50.5-50.5,50.5,50.5,0,0,1,50.5,50.5Z" transform="translate(-12243.881 -11160.82)" fill="#6dc5db"/><g transform="translate(-12008.552 -9039.248)"><g transform="translate(0 0)" clip-path="url(#a)"><g transform="translate(-38.534 3.981)"><path d="M393.48,2128.925c-21.278-.653-40.158,6.884-42.38,27.6a11.224,11.224,0,0,0,.334,9.987,9.545,9.545,0,0,1,.5,2.413c-.136.066-1.743,2.17-2.028,2.535-3.134,4.014-6.283,8.018-9.4,12.046-1.475,1.906-1.155,3.783.94,4.919a41.527,41.527,0,0,0,4.017,1.617c2.377.983,2.717,2.364,1.081,4.291-1.863,2.2-1.571,4.031,1.031,5.261a17.692,17.692,0,0,0,3.671.872c-.624.329-1.29.645-1.919,1.022-1.953,1.172-2.344,2.862-1,4.716a4.358,4.358,0,0,0,1.7,1.4,2.016,2.016,0,0,1,1.283,2.591c-.212,1.006-.425,2.012-.6,3.024-1.021,5.8,1.409,8.514,7.283,7.907,3.573-.369,7.139-.91,10.667-1.586a78.771,78.771,0,0,0,16.594-4.683l.068-.025c23.474-9.077,35.3-21.465,35.3-44.682S413.281,2129.532,393.48,2128.925Z" transform="translate(-242.546 -2128.762)" fill="#206491"/><path d="M247.673,2184.128c-.92-1.725-1.991-3.37-3-5.05-1.966-3.29-3.95-6.569-5.893-9.871-1.3-2.209-1.511-4.327.361-6.442a5.439,5.439,0,0,0,.805-6.039c-.134-.335-.26-.672-.389-1.01-2.792-27.539-24.488-27.539-45.761-26.887-19.8.607-27.135,18.006-27.135,41.222,0,21.571,10.211,33.794,30.488,42.7a19.187,19.187,0,0,0,5.5,2.5c6.682,1.919,13.4,3.74,20.168,5.326a46.229,46.229,0,0,0,9.7,1.125c3.463.059,5.634-2.052,5.888-5.512a17.755,17.755,0,0,0-.658-5.511c-.564-2.241-.558-4.195,1.117-6a2.3,2.3,0,0,0-.123-3.4,20.956,20.956,0,0,0-1.718-1.48c.349-.173.59-.294.833-.412,2.688-1.3,3.25-2.574,2.412-5.391a10.2,10.2,0,0,1-.334-1.642,1.849,1.849,0,0,1,1.652-2.309c1.415-.294,2.8-.743,4.21-1.062C248.375,2188.4,249.154,2186.9,247.673,2184.128Z" transform="translate(-166.666 -2128.666)" fill="#206491"/></g></g></g></g></svg>