<svg xmlns="http://www.w3.org/2000/svg" width="101" height="101" viewBox="0 0 101 101"><g transform="translate(-749 -3516)"><circle cx="50.5" cy="50.5" r="50.5" transform="translate(749 3516)" fill="#6dc5db"/><g transform="translate(766 3532)"><g transform="translate(0)"><path d="M256.236,2752.2Z" transform="translate(-256.236 -2752.198)" fill="#fd85cb"/><path d="M311.158,2823.264c-10.5-22.887,7.013-17.519,7.759-39.133,1.4-34.335-50.231-36.15-50.992-1.609.289.422-6.887,12.793-6.934,13.155,1.638.65,6.794.483,6.592,3.229.83,14.39,2.805,14.547,16.577,14.117l3.346,10.241S313.979,2823.1,311.158,2823.264Z" transform="translate(-258.995 -2755.264)" fill="#fd85cb"/></g><g transform="translate(17.075 9.293)"><g transform="translate(0 0)"><path d="M326.12,2789.175a16.05,16.05,0,1,0,0,2.421c.035-.4.048-.8.048-1.21S326.155,2789.574,326.12,2789.175Zm-2.185,2.421a13.874,13.874,0,1,1,0-2.421c.035.4.056.8.056,1.209S323.969,2791.2,323.934,2791.6Z" transform="translate(-294.064 -2774.332)" fill="#fa4a56"/><path d="M326.765,2791.5a14.346,14.346,0,1,0,0,2.5c.036-.413.058-.831.058-1.253S326.8,2791.908,326.765,2791.5Zm-1.511,2.462a12.834,12.834,0,1,1,0-2.421c.037.4.059.8.059,1.209S325.291,2793.559,325.253,2793.957Z" transform="translate(-296.425 -2776.693)" fill="#de2d47"/><path d="M327.341,2793.624a12.833,12.833,0,1,0,0,2.421c.037-.4.059-.8.059-1.212S327.378,2794.022,327.341,2793.624Zm-2.628,2.421a10.22,10.22,0,1,1,0-2.421,9.985,9.985,0,0,1,0,2.421Z" transform="translate(-298.513 -2778.781)" fill="#f9fafe"/><path d="M328.324,2797.234a9.983,9.983,0,1,0,.073,1.209A10.365,10.365,0,0,0,328.324,2797.234Zm-2.2,2.421a7.339,7.339,0,1,1,.1-1.212A8.045,8.045,0,0,1,326.126,2799.655Z" transform="translate(-302.123 -2782.391)" fill="#fa4a56"/><path d="M329.125,2800.232a7.339,7.339,0,1,0,.1,1.209A8.045,8.045,0,0,0,329.125,2800.232Zm-2.544,2.421a5.429,5.429,0,1,1,.137-1.212A5.543,5.543,0,0,1,326.582,2802.654Z" transform="translate(-305.122 -2785.389)" fill="#f9fafe"/></g><g transform="translate(10.51 10.51)"><path d="M330.046,2803.7a5.429,5.429,0,1,0,.136,1.21A5.543,5.543,0,0,0,330.046,2803.7Zm-2,2.421h-3.466a1.211,1.211,0,1,1,0-2.421h3.467a3.562,3.562,0,0,1,0,2.421Z" transform="translate(-319.096 -2799.363)" fill="#fa4a56"/><path d="M330.707,2806.357a3.562,3.562,0,1,0,.212,1.21A3.617,3.617,0,0,0,330.707,2806.357Z" transform="translate(-321.757 -2802.023)" fill="#de2d47"/></g><g transform="translate(14.782)"><path d="M347.443,2783.636l-.414-4.138,3.387-5.167,1.434,4.617Z" transform="translate(-339.573 -2774.332)" fill="#3c2da1"/><path d="M348.25,2790.6l4.139.414,5.166-3.387-4.617-1.434Z" transform="translate(-340.282 -2781.212)" fill="#3c2da1"/><path d="M330.484,2794.146a1.213,1.213,0,0,1-.857-2.07l12.841-12.941a1.213,1.213,0,1,1,1.715,1.715l-12.841,12.942A1.207,1.207,0,0,1,330.484,2794.146Z" transform="translate(-329.271 -2776.912)" fill="#b7c8ee"/><path d="M359.9,2779.982a1.2,1.2,0,1,0,1.2-1.2A1.2,1.2,0,0,0,359.9,2779.982Z" transform="translate(-347.04 -2776.912)" fill="#dde5f7"/><path d="M346.77,2790.86l.492.492,4.218-4.139-.492-.487Z" transform="translate(-339.423 -2781.522)" fill="#3c2da1"/></g></g></g></g></svg>