<svg xmlns="http://www.w3.org/2000/svg" xmlns:xlink="http://www.w3.org/1999/xlink" width="505" height="335" viewBox="0 0 505 335"><defs><clipPath id="a"><rect width="434.035" height="290.941" fill="rgba(0,0,0,0)"/></clipPath><clipPath id="b"><rect width="432.891" height="320.446" fill="rgba(0,0,0,0)"/></clipPath></defs><g transform="translate(-915 -11601)"><rect width="505" height="335" transform="translate(915 11601)" fill="#fff"/><g transform="translate(263.373 3450.912)"><g transform="translate(686.627 8172.088)" clip-path="url(#a)"><g transform="translate(0.01 -17.195)"><g clip-path="url(#b)"><path d="M1119.528,8472.769h-432.9V8152.32h432.9v320.448" transform="translate(-686.636 -8152.323)" fill="#fff"/></g><path d="M1099.493,8227.26a25.26,25.26,0,1,1,25.259,25.261,25.259,25.259,0,0,1-25.259-25.261Z" transform="translate(-740.324 -8158.783)" fill="#b4e3ea"/><path d="M1100.463,8203.421l.184-.556a12.15,12.15,0,0,1,7.654,2.4c3.58,2.737,14.916,11.582,15.794,14.391s-4.485,8.568-11.7,8.952a8.249,8.249,0,0,1-1.388-2.635s2.912-.667,6-4.458c-6.8-5.078-8.326-5.124-8.326-5.124l-8.217-12.975Z" transform="translate(-740.45 -8158.894)" fill="#fcb195"/><path d="M1084.641,8204.248a5.21,5.21,0,0,0-.8-.445,16.136,16.136,0,0,0-7.874,4.68c-3.861,3.967-10.809,12.178-11.161,14.916s5.395,6.288,13.384,7.321a9.246,9.246,0,0,0,1.4-2.775,19.236,19.236,0,0,1-7.551-4.756c3.335-2.808,6.844-5.535,6.844-5.535s7.827-3.461,5.757-13.405Z" transform="translate(-735.812 -8159.018)" fill="#fcb195"/><path d="M1078.319,8315.895l.539.631a6.487,6.487,0,0,1-.667,2.334c-.439.456-1.293.6-2.551,1.563s-2.171,1.6-3.012,1.315-.574-.989.847-2.567,2.4-2.883,2.4-2.883.152-1.147,2.445-.393Z" transform="translate(-736.769 -8173.561)" fill="#fcb195"/><path d="M1093.885,8252.478l-.607,1.381s-3.58,18.637-5.3,26.568-8.6,27.062-8.6,27.062l-2.983-.238s-.526-11.836,0-18.015,1.228-9.861,1.228-11.511-.469-21.655.667-29.1c3.159-5.58,15.885-.689,15.593,3.85Z" transform="translate(-737.29 -8164.522)" fill="#fcb195"/><path d="M1103.305,8312.131l-1.193,1.686a6.912,6.912,0,0,0,0,2.457c.28.655,1.38.584,2.48,1.5a8.019,8.019,0,0,0,3.533,1.8c.841.047,1.029-.258-.328-1.825a12.381,12.381,0,0,1-2.316-3.931c-.212-.679-1.288-2.035-2.177-1.686Z" transform="translate(-740.649 -8173.097)" fill="#fcb195"/><path d="M1111.736,8249.257l.4,1.614s-1.781,22.042-3.184,31.1-4.071,23.656-4.071,23.656h-3.369a126.66,126.66,0,0,1-1.685-13.9c-.141-5.124.351-7.3,0-12.846s-2.317-21.829-2.457-24.639,7.113-5.967,14.367-4.983Z" transform="translate(-740.048 -8164.905)" fill="#fcb195"/><path d="M1087.244,8203.48l-1.6.183a16.783,16.783,0,0,1-.539,8.235,10.811,10.811,0,0,1-4.422,5.615,44.433,44.433,0,0,1,1.4,7.324c.107,2.624-1.272,5.406-2.338,10.706a53.059,53.059,0,0,0-1.135,7.439,22.96,22.96,0,0,1,9.09,1.9,48.2,48.2,0,0,1,5.9,3.335h1.334a24.465,24.465,0,0,1,7.757-2.878,42.37,42.37,0,0,1,7.01-.492,37.688,37.688,0,0,0-.728-10.564c-1.228-6.071-2.526-11.828-2.526-12.705s1.579-3.124.666-6.634-4.141-5.6-5.423-7.283-3.779-4.791-3.881-4.808-1.639-.123-1.639-.123-5.168,3.264-8.923.754Z" transform="translate(-737.609 -8158.878)" fill="#fc3d27"/><path d="M1088.121,8186.114a3.15,3.15,0,0,0-1.4,1.9c-.386,1.368-.105,2.913-.351,3.791s-1.527,2.3-.772,4.281,3.878,2,4.9.9a20.437,20.437,0,0,0,5.363.348s2.99.512,4.131-2.032-.754-4.142-1.756-5.545,0-3.458-2.6-5.195-6.564-.983-7.511,1.562Z" transform="translate(-738.486 -8156.392)" fill="#c38a7a"/><path d="M1081.7,8231.313a18.083,18.083,0,0,1,3.89-1.747c1.126-.151,3.178.342,3.235.706s-2.931-.14-2.931-.14,2.909.639,2.786,1.032-2.746-.114-2.746-.114,2.723.591,2.543.869-2.767-.1-2.767-.1,2.044.4,1.882.622a8.048,8.048,0,0,1-2.353.22c-.61.034-2.523,2-5.081,1.4-1-1.769,1.4-2.775,1.4-2.775l.147.022Z" transform="translate(-737.779 -8162.364)" fill="#fcb195"/><path d="M1087.222,8230.329s-.607-.119-.72-.135a3.1,3.1,0,0,0-.351-.01,1.69,1.69,0,0,1,.609-.058c.363.027,1.652.311,1.652.311l-1.19-.108Z" transform="translate(-738.589 -8162.44)" fill="#f4886d"/><path d="M1087.1,8231.337a7.874,7.874,0,0,0-.837-.116,1.416,1.416,0,0,0-.306.028,1.408,1.408,0,0,1,.4-.166c.136-.013,1.914.4,1.914.4l-1.166-.142Z" transform="translate(-738.564 -8162.564)" fill="#f4886d"/><path d="M1086.451,8232.147a2.813,2.813,0,0,0-.6,0c-.082.041-.262.126-.262.126a1.351,1.351,0,0,1,.3-.228,17.293,17.293,0,0,1,2.241.283l-1.682-.181Z" transform="translate(-738.516 -8162.688)" fill="#f4886d"/><path d="M1111.535,8229.27a13.77,13.77,0,0,0-3.4-1.378c-.958-.045-2.642.636-2.661,1s2.45-.412,2.45-.412-2.392.906-2.259,1.286,2.3-.368,2.3-.368-2.239.84-2.067,1.1,2.315-.352,2.315-.352-1.684.589-1.531.794,1.478.022,1.992,0,2.275,1.755,4.375.923c.7-1.854-1.388-2.634-1.388-2.634l-.122.035Z" transform="translate(-741.102 -8162.151)" fill="#fcb195"/><path d="M1107.655,8228.725s.5-.175.594-.2a2.146,2.146,0,0,1,.294-.042,1.2,1.2,0,0,0-.517,0c-.3.059-1.361.461-1.361.461l.99-.219Z" transform="translate(-741.257 -8162.224)" fill="#f4886d"/><path d="M1107.833,8229.717a5.811,5.811,0,0,1,.693-.193,1.046,1.046,0,0,1,.259,0,1.076,1.076,0,0,0-.344-.129c-.115,0-1.576.572-1.576.572l.967-.25Z" transform="translate(-741.283 -8162.345)" fill="#f4886d"/><path d="M1108.409,8230.464a2.057,2.057,0,0,1,.5-.058c.072.035.231.1.231.1a1.138,1.138,0,0,0-.271-.2,12.606,12.606,0,0,0-1.858.489l1.4-.335Z" transform="translate(-741.302 -8162.463)" fill="#f4886d"/><path d="M1097.457,8202.181s1.817,2.37,1.624,4.615-4.282,3.3-7.2,1.4a8.078,8.078,0,0,1-3.352-5.266,4.015,4.015,0,0,0,2.225-.743c.755-.7.144-3.275.144-3.275l.227-.386,3.967,1.28a8.5,8.5,0,0,0,.491,2.055c.281.438,1.869.315,1.869.315Z" transform="translate(-738.899 -8158.331)" fill="#fcb195"/><path d="M1097.195,8189.4a34.281,34.281,0,0,1,.561,5.955,2.958,2.958,0,0,1-3.912,3.029c-2.106-.509-2.406-1.158-2.406-1.158a4.592,4.592,0,0,0,.352-2.7c-.282-1.476-1.457-3.212-.562-6,2.229,1.649,5.124,1.667,5.966.878Z" transform="translate(-739.207 -8157.031)" fill="#fcb195"/><path d="M1096.56,8195.868h-2.539a1.546,1.546,0,0,0,1.393.889,1.031,1.031,0,0,0,1.147-.889Z" transform="translate(-739.613 -8157.986)" fill="#fff"/><path d="M1095.463,8199.759a3.979,3.979,0,0,1-2.224-.249,4.2,4.2,0,0,1-1.753-.979l-.227.386a4.622,4.622,0,0,0,2.1,1.7,4.366,4.366,0,0,0,2.314.451l-.211-1.306Z" transform="translate(-739.253 -8158.331)" fill="#f4886d"/><path d="M851.757,8371.351h25.507l-25.507,53.457-25.507-53.457Z" transform="translate(-704.793 -8180.804)" fill="#b4e3ea"/><path d="M897.881,8489.688l.982,2.069s.968,1.958,1.706,3.494c1.436,2.99,2.01,3.914,1.823,4.522s-1.8.176-3.155-1.251-2.688-3.1-3.482-3.792-.493-2.468-.411-3.872,1.416-1.828,2.537-1.171Z" transform="translate(-713.761 -8196.154)" fill="#fcb195"/><path d="M874.126,8488.256l1.752,1.476a20.1,20.1,0,0,1-.28,3.386c-.234.539-2.01,1.146-3.6,1.964a35.843,35.843,0,0,1-5.26,2.314c-.912.187-2.033-.445.421-2.01s5.119-6.17,5.119-6.17l1.847-.96Z" transform="translate(-709.919 -8196.008)" fill="#fcb195"/><path d="M902.074,8422.351l1.8,1.238s-2.689,26.634-2.653,27.616-.7,12.657-1.228,17.426-1.472,14.41-1.472,14.41h-3.4s-1.508-11.186-1.857-18.549,0-12.9,0-18.441-.678-17.46-.678-17.46,3.014-6.03,9.49-6.24Z" transform="translate(-713.419 -8187.437)" fill="#fcb195"/><path d="M878.039,8423.316l-1.3,1.123-3.8,56.848h3.879s4.312-17.23,4.874-20.246.666-6.591,1.087-7.712,4.931-24.612,4.931-24.612,2.92-3.853-9.676-5.4Z" transform="translate(-710.865 -8187.562)" fill="#fcb195"/><path d="M877.554,8419.939l-.245,3.868a36.123,36.123,0,0,1,5.482,1.519,22.678,22.678,0,0,1,5.492,2.759H890.6a13.278,13.278,0,0,1,5.376-3.414,28.68,28.68,0,0,1,5.914-1.589v-4.628l-24.333,1.485Z" transform="translate(-711.432 -8186.931)" fill="#3b1a4a"/><path d="M902.095,8368.79l.748-1.694s6.38-.222,8.577,5.763,3.787,20.943,3.974,28.234-1.5,17.509-1.5,17.509H910.86s-1.121-11.617-1.543-17.742-3.038-17.39-3.038-17.39-4.254-3.787-4.184-14.68Z" transform="translate(-714.655 -8180.251)" fill="#fcb195"/><path d="M876.809,8370.672l-.747-1.7s-6.381-.221-8.578,5.762-3.787,20.943-3.974,28.236,1.5,17.507,1.5,17.507h3.039s1.122-11.618,1.543-17.741,4.184-16.641,4.184-16.641,3.108-4.534,3.038-15.428Z" transform="translate(-709.636 -8180.496)" fill="#fcb195"/><path d="M892.948,8398.287c3.03.064,6.063.134,9.1.129.115-2.944.314-5.928.484-8.178q-1,.013-1.991.04a100.088,100.088,0,0,0-10.558.854c-1.727.23-3.451.475-5.182.653s-3.485.289-5.232.372q-1.965.092-3.931.173c.132,1.658.3,3.788.47,6.114,1.965-.1,3.93-.182,5.9-.224,3.649-.077,7.3-.012,10.948.065Z" transform="translate(-711.214 -8183.26)" fill="#fee9e3"/><path d="M880.058,8416.041q-1.424.04-2.844.082c.06,1.406.095,2.626.095,3.561,1.846.7,5.446.677,7.6.329a35.2,35.2,0,0,1,6.988-.188c2.806.093,4.745-.863,6.451-.771a19.011,19.011,0,0,0,3.623-.233s.026-1.212.059-3.126l-.479,0c-7.164.055-14.329.151-21.491.345Z" transform="translate(-711.42 -8186.57)" fill="#fee9e3"/><path d="M891.2,8389.5a101.463,101.463,0,0,1,11.306-.717c.158-2.068.286-3.437.286-3.437a18.418,18.418,0,0,1-1.562-3.8l-.238.009c-1.7.073-3.395.206-5.083.421-1.739.221-3.47.507-5.2.774-1.658.254-3.32.491-4.989.636-1.694.147-3.393.21-5.092.221-1.46.009-2.92-.019-4.379-.063-.5,2.693-.94,4.192-.94,4.192s.1,1.206.256,3.13c1.748-.065,3.5-.138,5.242-.235,3.487-.2,6.934-.688,10.4-1.126Z" transform="translate(-711.172 -8182.13)" fill="#fee9e3"/><path d="M882.025,8382.448c1.7-.037,3.394-.138,5.085-.326,1.707-.189,3.405-.46,5.1-.725s3.384-.526,5.085-.707c1.325-.14,2.653-.226,3.984-.279-.176-.594-.349-1.248-.511-1.966-.213-.943-.4-2.007-.55-3.083-2.128.149-4.255.313-6.385.433-3.251.185-6.5.206-9.752.086-2.233-.083-4.468-.21-6.7-.313-.254,2.721-.6,5.026-.922,6.836,1.855.059,3.71.088,5.567.045Z" transform="translate(-711.322 -8181.326)" fill="#fee9e3"/><path d="M895.159,8374.314c1.717-.108,3.437-.238,5.158-.357-.472-3.422-.665-6.861-.665-6.861h-1.859l-1.368,1.474c-5.048,4.8-16.688-.07-16.688-.07s-.841.141-1.858.21c-.059,1.957-.175,3.779-.325,5.45,2.62.122,5.237.275,7.858.351,3.255.095,6.5.011,9.749-.2Z" transform="translate(-711.464 -8180.251)" fill="#fee9e3"/><path d="M880.741,8399.828q-2.271.066-4.539.188c.154,2.088.312,4.319.456,6.5,1.42-.153,2.84-.308,4.262-.451a104.1,104.1,0,0,1,10.779-.594c3.435.012,6.87.187,10.307.3.007-.756.014-1.525.019-2.3.007-1.116.037-2.294.081-3.482-7.122.008-14.241-.369-21.364-.162Z" transform="translate(-711.288 -8184.5)" fill="#fee9e3"/><path d="M890.449,8406.714c-3.6.036-7.181.348-10.76.725-.979.1-1.959.209-2.94.313.159,2.46.3,4.843.389,6.87q7.458-.227,14.919-.327,4.956-.072,9.915-.1c.032-1.919.071-4.464.1-7.183l-.622-.021c-3.666-.125-7.331-.31-11-.273Z" transform="translate(-711.36 -8185.402)" fill="#fee9e3"/><path d="M893.974,8375.746c2.13-.12,4.257-.283,6.385-.433-.016-.11-.031-.22-.046-.33-1.721.119-3.441.249-5.158.357-3.249.206-6.494.29-9.749.2-2.62-.076-5.238-.229-7.858-.352-.01.112-.02.223-.03.333,2.237.1,4.472.23,6.7.313,3.254.12,6.5.1,9.752-.086Z" transform="translate(-711.459 -8181.278)" fill="#7d94bf"/><path d="M880.767,8383.556c1.7-.011,3.4-.073,5.092-.221,1.669-.146,3.331-.382,4.989-.636,1.734-.268,3.465-.554,5.2-.774,1.689-.215,3.384-.348,5.083-.421l.238-.009c-.034-.107-.067-.218-.1-.33-1.33.055-2.659.141-3.984.28-1.7.181-3.394.442-5.085.707s-3.4.534-5.1.725c-1.691.188-3.388.289-5.085.326-1.856.043-3.712.014-5.567-.046-.02.114-.041.226-.061.335,1.459.045,2.919.072,4.379.063Z" transform="translate(-711.313 -8182.082)" fill="#7d94bf"/><path d="M884.791,8391.738c1.731-.179,3.456-.423,5.182-.653a100.088,100.088,0,0,1,10.558-.854q.994-.026,1.991-.04c.008-.109.016-.217.024-.323a101.7,101.7,0,0,0-11.306.718c-3.464.438-6.912.927-10.4,1.126-1.746.1-3.494.17-5.242.235.009.11.017.223.027.337q1.965-.081,3.931-.173c1.747-.083,3.491-.193,5.232-.372Z" transform="translate(-711.21 -8183.213)" fill="#7d94bf"/><path d="M893.018,8399.475c-3.649-.076-7.3-.143-10.948-.064-1.967.041-3.932.119-5.9.223.009.11.017.221.025.332q2.268-.119,4.539-.187c7.122-.207,14.242.17,21.364.162l.013-.336c-3.033,0-6.065-.064-9.1-.129Z" transform="translate(-711.284 -8184.448)" fill="#7d94bf"/><path d="M880.987,8406.92c-1.422.144-2.842.3-4.262.451l.022.332q1.471-.158,2.94-.314c3.579-.376,7.163-.688,10.76-.725,3.669-.036,7.334.148,11,.273l.622.021c0-.111,0-.224,0-.336-3.436-.109-6.872-.284-10.307-.3a104.1,104.1,0,0,0-10.779.594Z" transform="translate(-711.356 -8185.354)" fill="#7d94bf"/><path d="M877.2,8415.74l.015.333q1.421-.042,2.844-.082c7.162-.193,14.327-.29,21.491-.345l.479,0c0-.109,0-.221.006-.335q-4.957.037-9.915.1-7.46.107-14.919.327Z" transform="translate(-711.418 -8186.521)" fill="#7d94bf"/><path d="M912.515,8425.639l-.374.563a5.236,5.236,0,0,0,0,2.8c.444,1.355,2.033,3.015,2.291,3.833s.631-.7,0-1.729-.919-2.058.346-.843a12.5,12.5,0,0,1,2.318,3.647c.374.724.935,1.214,1.169-.165a8.865,8.865,0,0,0-.958-4.485c-.445-.726-2.127-3.062-2.127-3.062a2.984,2.984,0,0,0-2.665-.562Z" transform="translate(-715.936 -8187.851)" fill="#fcb195"/><path d="M867.428,8427.521l.374.561a5.24,5.24,0,0,1,0,2.8c-.444,1.355-2.033,3.015-2.291,3.833s-.631-.7,0-1.729.92-2.058-.346-.842a12.5,12.5,0,0,0-2.318,3.646c-.374.725-.935,1.216-1.169-.163a8.876,8.876,0,0,1,.958-4.488c.445-.725,2.127-3.062,2.127-3.062a2.983,2.983,0,0,1,2.665-.561Z" transform="translate(-709.394 -8188.096)" fill="#fcb195"/><path d="M892.831,8346.93a3.269,3.269,0,0,1,1.718,2.033c.3,1.387-.351,2.052-.21,3.174s.123,3.208-1.508,3.752c-4.839-.089-7.871-.315-7.871-.315a2.735,2.735,0,0,1-1.385-1.595,3.474,3.474,0,0,1-.052-2.262c.017-.475-1.2-1.387-.177-3.524a5.735,5.735,0,0,1,5.536-3.523c2.616.1,3.475,1.192,3.949,2.261Z" transform="translate(-712.164 -8177.335)" fill="#c38a7a"/><path d="M880.063,8367.815s.141,8.415,9.046,7.96,9.01-9.362,9.01-9.362-3.751-.035-5.048-.666-1.532-3.909-1.532-3.909l-5.009.929a5.193,5.193,0,0,1-.4,2.875c-.667,1.228-6.066,2.174-6.066,2.174Z" transform="translate(-711.79 -8179.568)" fill="#fcb195"/><path d="M884.916,8352.254a24.91,24.91,0,0,0,.455,6.275c.649,2.033,1.736,3.331,4.172,3.19s3.383-2.2,3.7-4.729a15.016,15.016,0,0,0,0-4.211,2.644,2.644,0,0,1-1.28-1.437,1.865,1.865,0,0,0-1.945-1.438c-.737.158-1.526,1.632-2.963,2.28s-2.138.07-2.138.07Z" transform="translate(-712.418 -8178.012)" fill="#fcb195"/><path d="M887.962,8359.238h3.208a1.7,1.7,0,0,1-1.6,1.017,1.562,1.562,0,0,1-1.605-1.017Z" transform="translate(-712.818 -8179.229)" fill="#fff"/><path d="M887.488,8362.767a3.6,3.6,0,0,0,2.562.5,3.634,3.634,0,0,0,2.447-1.424l.087.732a4.546,4.546,0,0,1-2.254,1.723,4.728,4.728,0,0,1-2.893.354,10.561,10.561,0,0,0,.051-1.88Z" transform="translate(-712.749 -8179.568)" fill="#f4886d"/><path d="M993.076,8397.855a28.227,28.227,0,1,0-28.227,28.229,28.228,28.228,0,0,0,28.227-28.229" transform="translate(-719.145 -8180.58)" fill="#b4e3ea"/><path d="M1024.675,8444.231l4.354,41.841-3.877.545s-4.661-8.245-6.259-13.04-2.529-8.459-3.175-10.3-6.248-17.688-6.248-17.688l14.933-1.361Z" transform="translate(-728.618 -8190.283)" fill="#fcb195"/><path d="M983.741,8445.8s5.647,22.928,7.313,28.811,3.878,13.574,3.878,13.574l3.878-.272s.748-6.634.885-12.144-.579-13.165-.545-15.92.136-13.812.136-13.812l-15.545-.237Z" transform="translate(-725.272 -8190.486)" fill="#fcb195"/><path d="M1025,8447.063a63.3,63.3,0,0,1-14.3,2.113c-.3-.855-.769-2.177-.769-2.177l14.892-.783.175.847Z" transform="translate(-728.679 -8190.54)" fill="#f4886d"/><path d="M984.738,8449.828a88.663,88.663,0,0,0,14.573-1.437c0-.477.01-1.1.01-1.1l-15.237-.1.653,2.64Z" transform="translate(-725.317 -8190.666)" fill="#f4886d"/><path d="M1028.023,8491.988l-.527.749a15.858,15.858,0,0,0,1.106,3.453c.458.543,1.327.748,2.245,1.514a12.86,12.86,0,0,0,4.184,2.482c1.581.442,1.6-.595.51-1.888a69.4,69.4,0,0,1-4.167-6.208c-.595-1.038-2.862-1.021-3.35-.1Z" transform="translate(-730.962 -8196.403)" fill="#fcb195"/><path d="M998.27,8490.006l1.406,3.651s.363,2.382,0,3.016-1.7.455-3.572,1.1-3.742,1.633-4.966,1.666-1.072-.645,1.454-2.413a7.118,7.118,0,0,0,2.976-3.9l2.7-3.124Z" transform="translate(-726.137 -8196.235)" fill="#fcb195"/><path d="M983.225,8443.134q.01,1.746.014,3.492c1.007.1,1.995.178,2.959.239q-.107-1.731-.117-3.464-1.429-.125-2.855-.268Z" transform="translate(-725.205 -8190.139)" fill="#fec939"/><path d="M983.06,8430.324q1.708.161,3.42.293c.057-1.752.062-3.51-.044-5.258l-3.479.141q.046,1.849.083,3.7c.008.374.014.75.021,1.125" transform="translate(-725.17 -8187.829)" fill="#fec939"/><path d="M1000.413,8446.98c1.817-.124,2.879-.257,2.879-.257v-2.465c-.951-.008-1.9-.021-2.853-.044-.018.923-.03,1.845-.026,2.766Z" transform="translate(-727.44 -8190.28)" fill="#fec939"/><path d="M1004.98,8439l.01.055c.074-1.492.157-2.986.237-4.479-1.5-.052-3.008-.129-4.51-.208q-.124,2.962-.2,5.925c-.007.258-.013.516-.021.773q1.405.034,2.81.046v-2.158l1.678.046" transform="translate(-727.451 -8189)" fill="#fec939"/><path d="M988.653,8443.616c.012,1.14.06,2.276.133,3.412.809.035,1.594.056,2.354.068.007-1.1.044-2.2.1-3.3q-1.295-.083-2.588-.183Z" transform="translate(-725.911 -8190.203)" fill="#fec939"/><path d="M997.682,8444.125q-1.964-.066-3.925-.174c-.057,1.064-.092,2.134-.1,3.2,1.489,0,2.84-.045,4.012-.1,0-.976,0-1.949.012-2.927Z" transform="translate(-726.562 -8190.245)" fill="#fec939"/><path d="M989.131,8430.719c.164.012.327.025.491.036q1.258.085,2.517.161.26-2.909.568-5.812l-3.607.146c.01.18.021.361.03.543.079,1.645.062,3.285,0,4.926" transform="translate(-725.969 -8187.794)" fill="#fec939"/><path d="M980.521,8425.617s.13,1.389.33,3.454q-.035-1.731-.078-3.464l-.252.01" transform="translate(-724.854 -8187.86)" fill="#fec939"/><path d="M1014.452,8428.878q.014,1.2.044,2.393c1.409-.105,2.819-.255,4.229-.4-.005-2.273.011-4.55.037-6.823l-4.31.174q-.029,2.328,0,4.656" transform="translate(-729.264 -8187.658)" fill="#fec939"/><path d="M1021.511,8430.655c1.325-.12,2.649-.218,3.972-.246q-.189-3.306-.347-6.616l-3.588.145q-.017,1.582-.029,3.162c-.008,1.184-.011,2.371-.009,3.556" transform="translate(-730.184 -8187.624)" fill="#fec939"/><path d="M994.718,8430.992q1.72.1,3.441.185.153-3.154.337-6.308l-3.185.129q-.175,1.61-.329,3.223-.134,1.386-.264,2.771" transform="translate(-726.7 -8187.764)" fill="#fec939"/><path d="M1000.844,8431.236h.006c1.5.076,3.012.153,4.518.2.111-2.286.195-4.574.194-6.861l-4.389.178c-.033.606-.068,1.212-.1,1.82q-.123,2.328-.23,4.659" transform="translate(-727.496 -8187.727)" fill="#fec939"/><path d="M1008.192,8431.455c1.141.018,2.284.013,3.426-.029.068,0,.136,0,.2-.008q-.087-3.541-.048-7.084l-3.386.137c0,.566,0,1.135-.011,1.7-.029,1.76-.1,3.521-.184,5.282" transform="translate(-728.452 -8187.694)" fill="#fec939"/><path d="M1022.215,8443.678l-.456.03q.057,1.3.133,2.593c2.026-.179,3.526-.333,4.474-.438q-.087-1.181-.173-2.366c-1.328.011-2.659.094-3.978.182Z" transform="translate(-730.216 -8190.187)" fill="#fec939"/><path d="M988.667,8440.465q1.344.1,2.692.188c.133-1.922.311-3.84.474-5.757.028-.336.057-.673.086-1.007q-1.463-.089-2.926-.192c-.114,2.256-.271,4.51-.326,6.769" transform="translate(-725.913 -8188.912)" fill="#fec939"/><path d="M983.2,8439.982q1.443.144,2.888.269c.005-.188.009-.374.016-.562.071-2.067.22-4.128.323-6.192q-1.655-.129-3.308-.283.055,3.382.082,6.769Z" transform="translate(-725.191 -8188.85)" fill="#fec939"/><path d="M993.9,8440.8q1.919.1,3.843.167.069-3.371.222-6.74-1.763-.091-3.526-.189c-.2,2.253-.389,4.507-.539,6.763" transform="translate(-726.594 -8188.957)" fill="#fec939"/><path d="M1010.079,8434.663c-.683.008-1.364,0-2.047-.006-.115,2.165-.24,4.331-.327,6.5q2.01-.016,4.02-.07l.415-.014q-.215-3.229-.327-6.459c-.577.026-1.154.045-1.734.052" transform="translate(-728.388 -8189.031)" fill="#fec939"/><path d="M1014.567,8434.419q.11,3.255.328,6.507c1.331-.059,2.661-.132,3.991-.211q-.115-3.34-.135-6.685c-1.4.141-2.787.283-4.184.389" transform="translate(-729.281 -8188.955)" fill="#fec939"/><path d="M1021.52,8433.783q.025,3.378.135,6.756.991-.059,1.981-.114c.794-.045,1.594-.078,2.393-.088q-.235-3.4-.438-6.809c-1.359.024-2.721.128-4.071.255" transform="translate(-730.185 -8188.89)" fill="#fec939"/><path d="M1007.625,8444.255c-.021.756-.036,1.514-.043,2.27a35.9,35.9,0,0,0,4.9.3q-.121-1.332-.224-2.665-2.316.073-4.633.093Z" transform="translate(-728.373 -8190.273)" fill="#fec939"/><path d="M1015.1,8444.06q.1,1.348.227,2.7c.694-.024,1.434-.064,2.215-.124q.854-.063,1.629-.127-.077-1.318-.137-2.638-1.967.113-3.934.191Z" transform="translate(-729.35 -8190.234)" fill="#fec939"/><path d="M1018.342,8439.152q-.99.054-1.981.114-.115-3.375-.135-6.756c1.35-.128,2.712-.23,4.071-.255q.2,3.406.438,6.808c-.8.011-1.6.044-2.393.089m-7.837.436q-.218-3.25-.328-6.507c1.4-.105,2.788-.248,4.184-.389q.025,3.344.135,6.685c-1.329.079-2.659.152-3.991.211m-2.277.082q-2.01.057-4.02.07c.087-2.165.212-4.331.327-6.5.683.01,1.364.014,2.047.006.579-.007,1.157-.025,1.734-.052q.11,3.23.327,6.458c-.138,0-.277.011-.415.014m-12.186-.039q-1.921-.063-3.843-.166c.15-2.256.335-4.51.539-6.763q1.763.1,3.526.189-.147,3.369-.222,6.739m-5.231-6.03c-.164,1.917-.341,3.836-.474,5.757q-1.348-.085-2.692-.187c.056-2.259.212-4.512.326-6.769.975.07,1.951.133,2.926.193-.029.334-.058.671-.086,1.006m-5.011,4.856c-.007.188-.01.374-.016.562q-1.445-.123-2.888-.269-.027-3.384-.082-6.768,1.653.154,3.308.283c-.1,2.063-.251,4.125-.323,6.191m35.172-14.716-1.128.045q.161,3.311.347,6.616c-1.323.029-2.647.126-3.972.246q0-1.777.009-3.556.01-1.581.029-3.161l-1.867.076c-.025,2.273-.042,4.55-.037,6.823-1.41.145-2.82.294-4.229.4q-.029-1.2-.044-2.393-.029-2.326,0-4.656l-1.867.075q-.038,3.542.048,7.084l-.2.009c-1.142.041-2.285.046-3.426.028.085-1.761.155-3.522.184-5.282.009-.567.012-1.136.011-1.7l-1.87.076c0,2.288-.083,4.575-.194,6.861-1.506-.051-3.013-.128-4.518-.2h-.006q.106-2.331.23-4.658c.031-.608.066-1.214.1-1.821l-1.881.075q-.179,3.151-.337,6.308-1.721-.089-3.441-.185.129-1.387.264-2.771.154-1.611.329-3.224l-1.873.076q-.313,2.9-.568,5.812-1.259-.076-2.517-.161l-.491-.035c.06-1.642.077-3.282,0-4.927-.009-.182-.019-.362-.03-.542l-1.866.075c.106,1.747.1,3.506.044,5.258q-1.711-.135-3.42-.293c-.007-.375-.013-.751-.021-1.125q-.038-1.852-.083-3.7l-1.866.077q.043,1.731.078,3.464c.414,4.291,1.131,11.5,1.622,15.231l.415.044q0-1.748-.014-3.492,1.426.144,2.855.268.01,1.733.117,3.464.958.062,1.883.1c-.073-1.136-.121-2.272-.133-3.412q1.293.1,2.588.183c-.057,1.1-.094,2.2-.1,3.3.643.011,1.266.014,1.867.013.007-1.067.043-2.137.1-3.2q1.963.108,3.925.174c-.011.978-.016,1.951-.012,2.927.687-.031,1.31-.068,1.864-.105,0-.922.008-1.844.026-2.767q1.426.035,2.853.045v-1.863q-1.405-.012-2.81-.045c.008-.258.014-.516.021-.774q.077-2.962.2-5.925c1.5.079,3.006.156,4.51.208-.08,1.493-.163,2.986-.237,4.479l1.169,6.112s.17.033.5.079c.006-.756.022-1.514.043-2.271q2.316-.019,4.633-.091.1,1.333.224,2.664c.579,0,1.2-.008,1.863-.033-.081-.9-.157-1.8-.227-2.7q1.968-.078,3.934-.191.057,1.32.137,2.638.993-.082,1.86-.157-.076-1.3-.133-2.593l.456-.03c1.319-.088,2.65-.171,3.978-.182q.085,1.185.173,2.366c.793-.087,1.2-.14,1.2-.14l-1.269-19.412" transform="translate(-724.891 -8187.617)" fill="#fe9817"/><path d="M1005.411,8439.427h0l-1.689-.1,1.678.046.01.055q.055-1.112.116-2.227h0q-.06,1.113-.116,2.227h0" transform="translate(-727.871 -8189.368)" fill="#e9c68a"/><path d="M1005,8439.353l-.01-.056-1.678-.045-2.74-.354q.035-1.135.078-2.27c1.662.3,2.974.522,3.445.548.036,0,.077,0,.121,0,.205,0,.512-.018.9-.053q-.06,1.113-.116,2.227" transform="translate(-727.461 -8189.293)" fill="#ef981f"/><path d="M991.8,8435.8l-2.813-1.19.014-.271c.736.15,1.739.354,2.873.582l0,.06c-.023.272-.048.546-.071.819" transform="translate(-725.955 -8188.996)" fill="#ef981f"/><path d="M997.845,8438.5l-3.695-.479.005-.056,2.378-.3-2.275-.963q.052-.636.109-1.273c1.174.234,2.4.473,3.562.7q-.046,1.188-.083,2.378" transform="translate(-726.626 -8189.136)" fill="#ef981f"/><path d="M1009.253,8439.673l-1.453-.154c.01-.19.018-.38.029-.57l1.424.725m-1.424-.725c.034-.685.071-1.37.108-2.057,1.151-.136,2.526-.316,3.948-.508.021.494.044.986.067,1.479-2.294.608-4.118,1.083-4.123,1.085" transform="translate(-728.401 -8189.261)" fill="#ef981f"/><path d="M1014.682,8437.25q-.03-.618-.054-1.236c1.48-.2,2.927-.4,4.142-.56q0,.338.01.68c-1.235.345-2.687.739-4.1,1.116" transform="translate(-729.289 -8189.141)" fill="#ef981f"/><path d="M1021.537,8435.548l-.005-.382c.62-.071,1.065-.114,1.263-.114.077,0,.117.006.115.021a6.764,6.764,0,0,1-1.373.476" transform="translate(-730.187 -8189.089)" fill="#ef981f"/><path d="M1005.168,8439.214l-1.859-.2q.055-1.112.116-2.227c.5-.044,1.147-.113,1.88-.2-.037.687-.074,1.372-.108,2.057h0c-.01.19-.019.38-.029.57m-6.288-.654-1.892-.244q.038-1.191.083-2.378c.659.125,1.295.244,1.887.354q-.042,1.134-.078,2.269m-5.587-.723-.216-.028.221-.028-.005.057m16.026-.278c-.023-.493-.046-.985-.067-1.479.489-.065.983-.131,1.475-.2l.381-.052q.025.62.054,1.237c-.63.169-1.252.336-1.843.492m-15.919-1.043-1.783-.756c.023-.273.047-.547.071-.819l0-.06,1.816.361q-.056.636-.109,1.273m21.859-.566q-.005-.34-.01-.679c.716-.1,1.35-.176,1.864-.236l.005.382c-.518.153-1.154.335-1.86.533m-26.454-1.38-1.246-.528s.477.1,1.26.258l-.014.271" transform="translate(-725.769 -8188.957)" fill="#f6750c"/><path d="M1027.248,8427.929l-.051-.795h.051v.795" transform="translate(-730.923 -8188.058)" fill="#e9c68a"/><path d="M983.064,8430.513c-.007-.374-.013-.747-.021-1.118q-.025-1.267-.055-2.53l3.512.021q.025.812.024,1.625c0,.516-.006,1.032-.018,1.547-1.25.125-2.489.3-3.442.455" transform="translate(-725.174 -8188.023)" fill="#ef981f"/><path d="M992.248,8430.041c-.8-.078-1.558-.133-2.325-.133-.144,0-.287,0-.431,0l-.321.012q.02-.794.02-1.587,0-.718-.02-1.436l3.377.021q-.158,1.56-.3,3.118" transform="translate(-725.979 -8188.029)" fill="#ef981f"/><path d="M980.866,8428.786l-.155-1.937h.113q.022.968.042,1.936" transform="translate(-724.878 -8188.021)" fill="#ef981f"/><path d="M1014.45,8429.121q-.012-1.031-.012-2.065l4.3.027q-.005.825-.009,1.65a35.645,35.645,0,0,0-4.278.388" transform="translate(-729.264 -8188.049)" fill="#ef981f"/><path d="M1021.514,8428.705q0-.587.006-1.176c0-.144,0-.287,0-.431l3.758.024c.018.366.037.731.057,1.1a24.5,24.5,0,0,1-3.825.484" transform="translate(-730.184 -8188.055)" fill="#ef981f"/><path d="M998.22,8430.483c-1.267-.038-2.375-.137-3.392-.243.056-.582.111-1.168.168-1.749q.074-.776.153-1.552l3.258.02q-.1,1.761-.187,3.524" transform="translate(-726.714 -8188.034)" fill="#ef981f"/><path d="M1000.9,8430.494q.083-1.759.177-3.52l4.471.027c-.021,1.051-.056,2.1-.1,3.15-.943.111-1.9.205-2.864.27-.591.039-1.15.063-1.684.072" transform="translate(-727.504 -8188.039)" fill="#ef981f"/><path d="M1008.289,8429.914q.059-1.446.09-2.9l3.395.021q0,1.176.016,2.351c-1.129.172-2.3.355-3.5.523" transform="translate(-728.464 -8188.044)" fill="#ef981f"/><path d="M981.046,8430.811l-.163-2.024q-.02-.968-.042-1.936l1.868.012q.03,1.264.055,2.53c.008.371.014.744.021,1.118-1.04.165-1.739.3-1.739.3m16.446-.322q-.564,0-1.09-.017.089-1.764.187-3.524l1.88.011q-.093,1.761-.177,3.521c-.273.007-.539.01-.8.01m-4.482-.26c-.112-.012-.223-.023-.333-.033-.523-.058-1.024-.111-1.511-.161q.145-1.559.3-3.118l1.864.012q-.078.775-.153,1.552c-.057.581-.112,1.167-.168,1.749m9.831-.092q.065-1.576.1-3.151l1.87.011q-.03,1.45-.09,2.9-.929.133-1.88.245m-16.614-.081c.012-.515.018-1.031.018-1.547q0-.813-.023-1.625l1.868.012q.021.718.02,1.436,0,.794-.02,1.587c-.6.025-1.233.075-1.863.138m21.994-.687q-.016-1.176-.016-2.351l1.865.011q0,1.034.012,2.065-.908.127-1.861.274m6.138-.662q0-.825.009-1.65l1.867.011c0,.143,0,.286,0,.431q0,.586-.006,1.176c-.429.02-.88.033-1.352.033h-.514m5.691-.518q-.03-.549-.057-1.1l1.176.007.051.8h0s-.416.136-1.17.3" transform="translate(-724.895 -8188.021)" fill="#f6750c"/><path d="M969.555,8373.094c.063-.035.884-1.464.884-1.464a8.847,8.847,0,0,0-1.86-3.095,37.458,37.458,0,0,1-2.993-4.15c-.522-.816-1.61-.908-1.566,1.293s.254,3.265,1.148,4.263a20.107,20.107,0,0,0,2.458,2.154s.341,1.859,1.929,1Z" transform="translate(-722.708 -8179.831)" fill="#fcb195"/><path d="M1050.95,8354.949l-.046-.656a4.143,4.143,0,0,1,1.248-2.27,20.513,20.513,0,0,1,3.085-1.927c.612-.476.271.317,0,.612s-1,.68-.749.7a17.218,17.218,0,0,0,2.789-.907c.772-.317,2.177-1.451,2.358-1.043s-.59,2.655-2.63,3.855-2.817,2.023-3.475,2.342-2.762.729-2.58-.709Z" transform="translate(-734.006 -8177.946)" fill="#fcb195"/><path d="M988.424,8373.719l-.781-.927s-3.119.6-6.747,4.093-8.889,7.758-8.889,7.758l-1.633-11.851-2.813.465s-3.583,12.792-3.991,17.552,1.5,8.074,6.4,6.939,12.2-7.437,12.2-7.437l6.258-16.592Z" transform="translate(-722.642 -8180.992)" fill="#fcb195"/><path d="M1017.756,8371.945l.636-1.787s12.858-1.951,16.532-3.492,11.656-11.639,11.656-11.639l2.626,1.365s-4.349,12.047-8.659,15.9-16.827,9.221-17.28,9.947.045,3.084.045,3.084-6.577-2.4-5.556-13.379Z" transform="translate(-729.682 -8178.682)" fill="#fcb195"/><path d="M1006.5,8373.357l.545-.571,6.259-.381a33.829,33.829,0,0,0,.884,7.819c1.043,5.123,4.172,6.259,4.172,6.259s1.543,7.642,2.7,15.466,1.836,17.417,1.836,17.417-1.531.884-5.647,1.089-6.464-.1-8.436.306a48.7,48.7,0,0,1-10.273.851c-5.681.033-8.5-1.156-10.171-1.09s-6.633.646-9.831-1.836a135.84,135.84,0,0,1,4.308-28.3,109.052,109.052,0,0,1,6.747-17.654,26.943,26.943,0,0,1,5.771-.4c4.807,2.3,11.135,1.026,11.135,1.026Z" transform="translate(-724.596 -8180.928)" fill="#fee9e3"/><path d="M1011.3,8355.576a3.326,3.326,0,0,1,.975,2.077c.127,1.338-.794,1.951-.975,2.908s-.487,3.13-2.366,3.154c-2.836.188-8.6-3.678-8.6-3.678a3.147,3.147,0,0,1-1.21-2.385,4.716,4.716,0,0,1,1.084-2.4c.289-.524.217-1.807,1.3-2.6s1.951-.542,2.656-.956a4.684,4.684,0,0,1,5.037-.2c2.6,1.337,2.459,3.56,2.1,4.083Z" transform="translate(-727.272 -8178.14)" fill="#fc3d27"/><path d="M997.878,8371.824s-.771,6.328,5.17,6.056a6.507,6.507,0,0,0,6.509-5.6s-2.653.021-3.153-.455.058-3.419.058-3.419l-5.019.84s-.232,1.949-.686,2.243a11.522,11.522,0,0,1-2.88.336Z" transform="translate(-727.106 -8180.421)" fill="#fcb195"/><path d="M1001.4,8357.243a25.152,25.152,0,0,0-1.71,6.818c-.071,2.768,1.4,4.575,4.577,4.406s4.746-3.921,4.746-3.921a5.818,5.818,0,0,1-.144-2.967,6.726,6.726,0,0,0,.289-3.373c-1.4.458-2.457-.675-3.734-.724s-2.168.651-4.023-.24Z" transform="translate(-727.346 -8178.971)" fill="#fcb195"/><path d="M1002.137,8364.65l3.433.964a2.465,2.465,0,0,1-2.361.649,1.459,1.459,0,0,1-1.072-1.613Z" transform="translate(-727.663 -8179.934)" fill="#fff"/><path d="M1001.894,8369.568a3.573,3.573,0,0,0,2.407.459,4.291,4.291,0,0,0,2.532-.857l-.094.747a5.9,5.9,0,0,1-2.758,1.271c-1.882.409-2.44-.085-2.44-.085l.352-1.534Z" transform="translate(-727.587 -8180.521)" fill="#f4886d"/><path d="M780.67,8226.554l18.185-29.676h-37.93l18.184,29.676-18.184,29.676h37.93l-18.185-29.676Z" transform="translate(-696.298 -8158.117)" fill="#b4e3ea"/><path d="M783.006,8313.967l-.282,1.283a5.991,5.991,0,0,0,.539,2.527c.513.692,1.925,1.066,3.593,2.284s2.669,1.733,3.08,1.449.616-.9-1.1-2.412a38.423,38.423,0,0,1-4.243-5.132Z" transform="translate(-699.133 -8173.342)" fill="#fcb195"/><path d="M756.934,8314.918l.8-.39s.615,3.16.846,4.418.205,1.154-1.643,1.128-3.131.155-3.208-.563,1.924-2.417,1.963-4.083,1.066-1.512,1.245-.51Z" transform="translate(-695.362 -8173.369)" fill="#fcb195"/><path d="M763.913,8240.351c.171-.009,3.618-.115,3.618-.115s2.335,7.993,4.183,16.565,3.1,16.476,3.579,18.169a117.231,117.231,0,0,1,3.3,14.217c.821,5.749,2.771,15.911,2.771,15.911l-2,.564s-5.8-10.829-7.7-15.706-2.565-10.572-3.592-13.4-9.188-21.2-10.933-27.9,5.6-8.245,6.775-8.314Z" transform="translate(-695.771 -8163.755)" fill="#fcb195"/><path d="M742.673,8236.473l-.886.192a16.366,16.366,0,0,0-2.258,10.046c.513,6.057,6.057,27.563,6.57,30.282s.821,9.188,2.464,13.909,4.542,10.317,5.312,14.629c.731-.231,2.04-.463,2.04-.463s-.77-13.434-1.232-17.4-1.694-10.817-1.809-12.433.27-21.75.039-27.062-7.2-12.087-10.24-11.7Z" transform="translate(-693.507 -8163.264)" fill="#fcb195"/><path d="M775.43,8250.653l-.6.52a3.564,3.564,0,0,1,.3,1,6.71,6.71,0,0,0,.645,3.176c.713,1.251,1.1,2.5,1.328,2.271s0-1.521-.231-2.271.27-.559.6-.271a14.159,14.159,0,0,1,1.289,2.569c.251.568.192,2.531.539,2.436s1.4-2.213,1.059-3.926-3.157-4.918-3.253-5.409-1.462-.556-1.675-.1Z" transform="translate(-698.107 -8165.069)" fill="#fcb195"/><path d="M763.107,8205.3l.437-.949a4.9,4.9,0,0,1,4.312,3.361c.924,3.183,2.8,16.54,3.3,18.7s3.157,11.779,4.427,18.361c-.732.191-2.271.424-2.271.424s-4.118-9.316-5.235-13.357-3.5-16.822-3.5-16.822l-1.463-9.714Z" transform="translate(-696.582 -8159.089)" fill="#fcb195"/><path d="M744.68,8205.5l-.308-.59s-2.24.128-5.547,3.554-9.465,9.315-10.467,11.277-.116,2.965,2.926,4,12.982,3.489,12.982,3.489l.862-1.7-11.689-5.064s8.892-7.891,9.354-8.084a.549.549,0,0,1,.692.309,13.745,13.745,0,0,0,1.194-7.2Z" transform="translate(-692.012 -8159.162)" fill="#fcb195"/><path d="M759.2,8204.84l.295-.489h1.321s-.026,5.362,1.668,8.751c-.436,5.363-2.926,9.162-2.772,11.01s4.132,6.068,5.9,11.458a36.1,36.1,0,0,0-10.393,8.43h-1.963a52.482,52.482,0,0,0-5.736-6.89c-3.619-3.7-5.389-4.619-5.389-4.619a51.641,51.641,0,0,1,5.045-5.146c1.961-1.552,1.653-3.323-.079-7.6a21.813,21.813,0,0,1-1.771-7.121,29.207,29.207,0,0,0,.886-7.787,7.632,7.632,0,0,0,1.309-.221s2.1,5.058,11.677.221Z" transform="translate(-693.854 -8159.089)" fill="#3b1a4a"/><path d="M751.75,8184.048A4.417,4.417,0,0,1,755,8185.7c1.386,1.694,1.328,3.927,2.194,5s3.7,2.428,4.119,4.929-1.174,2.884-2.964,2.9-2.521,1.271-6.025,1.426-4.658-.788-6.005-.559-3.234.943-5.2-1.289.808-4.543,2.386-5.852.424-4.581,2.945-6.735a6.361,6.361,0,0,1,5.293-1.482Z" transform="translate(-693.635 -8156.436)" fill="#fc3d27"/><path d="M747.54,8228.393a16.386,16.386,0,0,1,3.626-1.548c.874-.037,2.413.52,2.431.82s-2.238-.337-2.238-.337,2.185.738,2.063,1.049-2.1-.3-2.1-.3,2.046.688,1.889.9-2.116-.288-2.116-.288,1.539.481,1.4.648-1.35.018-1.82,0-2.078,1.432-4,.753c-.642-1.513.752-1.726.752-1.726l.11.029Z" transform="translate(-694.423 -8162.014)" fill="#fcb195"/><path d="M752.406,8227.524s-.458-.144-.543-.164a2.406,2.406,0,0,0-.269-.034,1.241,1.241,0,0,1,.471,0c.276.048,1.244.376,1.244.376l-.9-.178Z" transform="translate(-695.085 -8162.074)" fill="#f4886d"/><path d="M752.238,8228.334a5.786,5.786,0,0,0-.633-.159.985.985,0,0,0-.237,0,1.06,1.06,0,0,1,.314-.1c.105,0,1.44.467,1.44.467l-.884-.2Z" transform="translate(-695.055 -8162.173)" fill="#f4886d"/><path d="M751.682,8228.943a2.026,2.026,0,0,0-.458-.046c-.066.027-.211.083-.211.083a.993.993,0,0,1,.248-.162,12.477,12.477,0,0,1,1.7.4l-1.276-.273Z" transform="translate(-695.009 -8162.27)" fill="#f4886d"/><path d="M748.329,8203.961s.109,5.447,6.069,5.1,5.9-5.369,5.9-5.369-3.066-.181-4.081-1.026-1.136-3.383-1.136-3.383l-3.462.395a8.8,8.8,0,0,1-.184,2.994c-.377.751-1.82,1.155-3.109,1.289Z" transform="translate(-694.66 -8158.43)" fill="#fcb195"/><path d="M747.975,8191.53a10.4,10.4,0,0,0,1.559,4.851c1.655,2.271,3.649,2.462,5.274,1.521,2.059-1.192,1.616-5.7,1.212-7.025-1.674-.712-1.751-2.348-2.867-3.406-.135,1.867-1.81,3.753-5.177,4.06Z" transform="translate(-694.614 -8156.894)" fill="#fcb195"/><path d="M751.9,8196.42l2.96-.378a1.508,1.508,0,0,1-1.321,1.146,1.582,1.582,0,0,1-1.639-.768Z" transform="translate(-695.125 -8158.008)" fill="#fff"/><path d="M752.114,8199.678a3.7,3.7,0,0,0,1.931.243,2.92,2.92,0,0,0,1.53-.638l.079.761a3.867,3.867,0,0,1-3.511,1.548c.014-1.1-.03-1.914-.03-1.914Z" transform="translate(-695.152 -8158.43)" fill="#f4886d"/><path d="M748.046,8207.892a.423.423,0,0,0,0,.845.423.423,0,0,0,0-.845Z" transform="translate(-694.57 -8159.55)" fill="#fee9e3"/><path d="M749.993,8213.156a.423.423,0,0,0,0,.845.423.423,0,0,0,0-.845Z" transform="translate(-694.823 -8160.233)" fill="#fee9e3"/><path d="M754.507,8211.3a.422.422,0,0,0,0,.844.422.422,0,0,0,0-.844Z" transform="translate(-695.41 -8159.993)" fill="#fee9e3"/><path d="M759.241,8213.69a.423.423,0,0,0,0,.845.423.423,0,0,0,0-.845Z" transform="translate(-696.026 -8160.303)" fill="#fee9e3"/><path d="M762.648,8208.068a.423.423,0,0,0,0,.845.423.423,0,0,0,0-.845Z" transform="translate(-696.469 -8159.572)" fill="#fee9e3"/><path d="M764.108,8214.662a.422.422,0,0,0,0,.844.422.422,0,0,0,0-.844Z" transform="translate(-696.659 -8160.43)" fill="#fee9e3"/><path d="M747.56,8217.36a.423.423,0,0,0,0,.845.423.423,0,0,0,0-.845Z" transform="translate(-694.507 -8160.78)" fill="#fee9e3"/><path d="M754.241,8217.538a.423.423,0,0,0,0,.845.423.423,0,0,0,0-.845Z" transform="translate(-695.376 -8160.804)" fill="#fee9e3"/><path d="M750.347,8220.723a.423.423,0,0,0,0,.846.423.423,0,0,0,0-.846Z" transform="translate(-694.869 -8161.217)" fill="#fee9e3"/><path d="M760.082,8218.467a.423.423,0,0,0,0,.846.423.423,0,0,0,0-.846Z" transform="translate(-696.135 -8160.924)" fill="#fee9e3"/><path d="M762.029,8222.434a.423.423,0,0,0,0,.846.423.423,0,0,0,0-.846Z" transform="translate(-696.388 -8161.44)" fill="#fee9e3"/><path d="M756.144,8222.715a.422.422,0,0,0,0,.844.422.422,0,0,0,0-.844Z" transform="translate(-695.623 -8161.477)" fill="#fee9e3"/><path d="M751.321,8224.794a.422.422,0,0,0,0,.844.422.422,0,0,0,0-.844Z" transform="translate(-694.996 -8161.747)" fill="#fee9e3"/><path d="M760.48,8226.962a.423.423,0,0,0,0,.845.423.423,0,0,0,0-.845Z" transform="translate(-696.187 -8162.028)" fill="#fee9e3"/><path d="M755.7,8227.936a.423.423,0,0,0,0,.846.423.423,0,0,0,0-.846Z" transform="translate(-695.566 -8162.156)" fill="#fee9e3"/><path d="M759.993,8230.9a.423.423,0,0,0,0,.845.423.423,0,0,0,0-.845Z" transform="translate(-696.124 -8162.541)" fill="#fee9e3"/><path d="M750.657,8230.988a.423.423,0,0,0,0,.845.423.423,0,0,0,0-.845Z" transform="translate(-694.91 -8162.552)" fill="#fee9e3"/><path d="M755.259,8233.289a.423.423,0,0,0,0,.845.423.423,0,0,0,0-.845Z" transform="translate(-695.508 -8162.852)" fill="#fee9e3"/><path d="M764.241,8232.405a.422.422,0,0,0,0,.844.422.422,0,0,0,0-.844Z" transform="translate(-696.676 -8162.737)" fill="#fee9e3"/><path d="M760.3,8235.546a.423.423,0,0,0,0,.845.423.423,0,0,0,0-.845Z" transform="translate(-696.164 -8163.145)" fill="#fee9e3"/><path d="M766.852,8237.448a.423.423,0,0,0,0,.845.423.423,0,0,0,0-.845Z" transform="translate(-697.016 -8163.392)" fill="#fee9e3"/><path d="M745.967,8233.776a.423.423,0,0,0,0,.845.423.423,0,0,0,0-.845Z" transform="translate(-694.3 -8162.915)" fill="#fee9e3"/><path d="M751.5,8237.095a.423.423,0,0,0,0,.846.423.423,0,0,0,0-.846Z" transform="translate(-695.019 -8163.347)" fill="#fee9e3"/><path d="M746.852,8238.289a.423.423,0,0,0,0,.845.423.423,0,0,0,0-.845Z" transform="translate(-694.415 -8163.502)" fill="#fee9e3"/><path d="M756.5,8238.51a.423.423,0,0,0,0,.846.423.423,0,0,0,0-.846Z" transform="translate(-695.669 -8163.53)" fill="#fee9e3"/><path d="M762.6,8241.74a.423.423,0,0,0,0,.845.423.423,0,0,0,0-.845Z" transform="translate(-696.463 -8163.95)" fill="#fee9e3"/><path d="M752.117,8242.14a.423.423,0,0,0,0,.845.423.423,0,0,0,0-.845Z" transform="translate(-695.1 -8164.003)" fill="#fee9e3"/><path d="M757.633,8243.424a.423.423,0,0,0,0,.845.423.423,0,0,0,0-.845Z" transform="translate(-695.817 -8164.17)" fill="#fee9e3"/><path d="M754.639,8246.962a.422.422,0,0,0,0,.844.422.422,0,0,0,0-.844Z" transform="translate(-695.428 -8164.629)" fill="#fee9e3"/><path d="M759.276,8247.477l.589-.57a.384.384,0,0,0-.358-.209.43.43,0,0,0-.231.779Z" transform="translate(-696.061 -8164.596)" fill="#fee9e3"/><path d="M1018.927,8195.029h22.535l-22.535,45.105-22.535-45.105Z" transform="translate(-726.917 -8157.876)" fill="#b4e3ea"/><path d="M991.9,8310.473l-.579,1.246s-.6,3.338-.277,4.068,1.183.655,2.418,1.083,4.54,2.33,5.887,2.633,1.355-.781-.434-2.267a51.942,51.942,0,0,1-5.034-5.678s-.9-1.389-1.98-1.086Z" transform="translate(-726.21 -8172.883)" fill="#fcb195"/><path d="M969.6,8310.87l-.038.907a13.348,13.348,0,0,1-.3,3.287c-.34.832-1.435,1.171-2.229,1.89s-4.081,4.23-4.988,4.23-.529-.755,1.662-4.193a39.361,39.361,0,0,0,3.148-5.822l2.746-.3Z" transform="translate(-722.391 -8172.941)" fill="#fcb195"/><path d="M1002.211,8237.193l3.074.151a77,77,0,0,1-.554,15.818c-1.21,8.464-3.326,17.18-3.93,20.151s-2.519,11.283-4.081,17.632-2.821,11.2-2.821,11.2h-2.519s0-9.736.453-15.277,1.813-10.075,2.469-13.753.982-24.255,1.951-29.458,4.094-7.972,5.957-6.461Z" transform="translate(-726.266 -8163.307)" fill="#fcb195"/><path d="M983.482,8235.3l-.793.718s-3.137,10.2-4.5,16.964-2,12.243-2.872,15.265-2.833,8.992-4.458,15.265-3.326,18.438-3.326,18.438h2.8s5.554-13,6.687-16.359,1.739-6.045,3.023-9.484,10.2-28.4,11.335-32.644-3.93-8.451-7.9-8.161Z" transform="translate(-723.165 -8163.112)" fill="#fcb195"/><path d="M987.7,8197.35h-.145a6.669,6.669,0,0,0-4.237,1.113c-1.763,1.359-2.142,3.753-2.974,4.559s-3.677,2.191-4.533,4.685-.177,4.056-.731,5.542-3.023,3.323-2.67,6.474,3.879,5.592,7.078,5.314,4.156-3.93,4.887-4.786,3.249-.931,3.879-4.281,2.191-15.894,2.191-15.894a7.612,7.612,0,0,0-1.017-1.836,5.273,5.273,0,0,0-1.729-.89Z" transform="translate(-723.794 -8158.176)" fill="#fdeea3"/><path d="M990.14,8196.561s-.416.651-.293.766a6.566,6.566,0,0,0,1.851.812c.207-.075.548-.85.548-.85l-2.106-.728Z" transform="translate(-726.063 -8158.075)" fill="#7d94bf"/><path d="M966.721,8241.726l.205.6s-.785,1.883-1.868,2.136-2.166.251-3.1.452-1-.364,0-.591a4.549,4.549,0,0,0,2-.744c.277-.3-1.02-.473-2.179-.236s-2.8,1.081-3.3,1.106.454-1.247,2.393-1.952a32.59,32.59,0,0,1,4.181-1.146s1.121-.719,1.662.378Z" transform="translate(-721.971 -8163.87)" fill="#fcb195"/><path d="M990.025,8202.105l12.017-.868,1.347,5.616s-6.776,2.485-7.054,2.5-6.952-2.754-6.952-2.754l.642-4.5Z" transform="translate(-726.006 -8158.684)" fill="#fcb195"/><path d="M986.9,8201.521l-.706-.616a7.143,7.143,0,0,0-4.106,1.8c-1.561,1.612-16.032,33.413-16.032,33.413l1.868.976s5.462-8.343,8.069-12.764,7.482-14.73,8.01-15.016a.446.446,0,0,1,.7.205,7.218,7.218,0,0,0,4.212-6.839,6.546,6.546,0,0,0-2.015-1.159Z" transform="translate(-722.973 -8158.641)" fill="#fcb195"/><path d="M1024.518,8205.854l-.428-1.228s-.353-.385.63-1.342a34.248,34.248,0,0,0,2.519-2.469c.428-.58.226.933-.907,1.738,2.847-1.158,4.333-2.594,4.383-2.141s-2.217,4.106-5.138,4.86c-.957,1.235-1.058.58-1.058.58Z" transform="translate(-730.511 -8158.566)" fill="#fcb195"/><path d="M1003.466,8200.555l.391-.3a5.769,5.769,0,0,1,4.068,1.563c1.738,1.712,9.47,11.813,9.47,11.813l4.006-9.01,1.486.646s-2.166,9.245-3.174,11.588-3.275,1.41-5.744-.982-7.38-7.633-7.38-7.633-3.955-4.811-3.124-7.682Z" transform="translate(-727.822 -8158.556)" fill="#fcb195"/><path d="M990.008,8182.154a4.606,4.606,0,0,1,4.933-2.09c3.631.5,4.487,3.1,4.211,5.239s.3,5.213-.4,7.328-3.224,3.2-6.624,2.771-3.8-2.791-3.476-4.6-1.291-3.228-.737-5.62a4.16,4.16,0,0,1,2.1-3.025Z" transform="translate(-725.799 -8155.923)" fill="#fdeea3"/><path d="M989.209,8200.258s1.1,3.248,7.066,3.06,5.743-3.628,5.743-3.628a20.3,20.3,0,0,1-4.49-.687c-.922-.407-.859-3.081-.859-3.081h-3.549a12.594,12.594,0,0,1-.093,2.724c-.214.718-3.817,1.613-3.817,1.613Z" transform="translate(-725.983 -8157.993)" fill="#fcb195"/><path d="M998.5,8186.048s.327,4.5-.278,6.437a3.187,3.187,0,0,1-4.745,2.042c-2.207-1.2-2.749-4.951-2.749-4.951a19.154,19.154,0,0,0,.844-2.531,14.058,14.058,0,0,0,.315-2.585,7,7,0,0,0,3.414,1.757,4.831,4.831,0,0,0,3.2-.168Z" transform="translate(-726.181 -8156.502)" fill="#fcb195"/><path d="M994.307,8192.229l2.961-.161a1.64,1.64,0,0,1-1.357,1.133,1.543,1.543,0,0,1-1.6-.972Z" transform="translate(-726.646 -8157.491)" fill="#fff"/><path d="M993.7,8195.921a3.28,3.28,0,0,0,1.958.555,2.44,2.44,0,0,0,1.591-.555v.558a2.659,2.659,0,0,1-1.678.906,3.226,3.226,0,0,1-1.839,0l-.032-1.464Z" transform="translate(-726.568 -8157.993)" fill="#f4886d"/><path d="M997.757,8210.463c1.516-.063,3.019-.3,4.535-.349a21.9,21.9,0,0,1,2.415.065,5.058,5.058,0,0,0-.192-2.483,3.153,3.153,0,0,0-3.8-2.39,3.871,3.871,0,0,0-2.966,2.021,6.205,6.205,0,0,0-5.128-1.237c-3.193.566-5.13,4-5.13,4q.057.2.118.41.5-.078,1.013-.127c3.042-.282,6.086.218,9.131.094Z" transform="translate(-725.76 -8159.209)" fill="#7d94bf"/><path d="M997.174,8233.342c2.333.148,4.647.485,6.966.777-.252-1.187-.625-2.814-1.151-4.818l-.01-.035c-.69.022-1.38.057-2.07.1-2.867.169-5.724.314-8.6.242q-2.136-.054-4.269-.229c-.083-.006-.167-.014-.251-.022l-.322.565a33.857,33.857,0,0,0-1.549,3.166c.1,0,.191.009.288.012,3.653.134,7.314.016,10.964.245Z" transform="translate(-725.556 -8162.328)" fill="#7d94bf"/><path d="M993.352,8241.65a6.515,6.515,0,0,1,1.383,2.638s1.058.037,1.776,0c1.041-.983,2.051-1.835,3-2.567-2.052,0-4.1-.024-6.156-.07Z" transform="translate(-726.522 -8163.939)" fill="#7d94bf"/><path d="M996.243,8235.2c-1.853-.093-3.709-.106-5.564-.122-1.783-.013-3.568-.032-5.348-.117-.245.626-.377,1.016-.377,1.016s2.153.15,5.251,2.721c.37.306.7.607.994.9,2.937.073,5.877.116,8.814.084a26.569,26.569,0,0,1,4.436-2.57s-.058-.365-.193-1.059c-.8-.1-1.607-.208-2.41-.312-1.863-.241-3.727-.445-5.6-.539Z" transform="translate(-725.43 -8163.068)" fill="#7d94bf"/><path d="M1002.745,8215.484c.111-.422.237-.846.385-1.271a5.7,5.7,0,0,0,1.329-2,21.365,21.365,0,0,0-2.575-.023c-1.491.084-2.972.3-4.466.339-1.529.035-3.054-.07-4.581-.14a26.587,26.587,0,0,0-4.8.112c.34,1.025.732,2.082,1.113,3.105q6.795-.3,13.6-.127Z" transform="translate(-725.831 -8160.105)" fill="#7d94bf"/><path d="M997.459,8227.651c1.871-.07,3.741-.227,5.611-.3a30.447,30.447,0,0,1-.666-3.809l-.475.017q-5.519.16-11.036-.163a18.494,18.494,0,0,1-2.075,4.085,75.681,75.681,0,0,0,8.64.167Z" transform="translate(-725.933 -8161.566)" fill="#7d94bf"/><path d="M1002.442,8221.587a18.12,18.12,0,0,1,.271-4.29q-6.456-.158-12.913.115a25.315,25.315,0,0,1,1.252,4.029q5.69.33,11.39.146Z" transform="translate(-726.06 -8160.765)" fill="#7d94bf"/><path d="M992.785,8212.219c1.527.07,3.053.175,4.581.14,1.495-.036,2.975-.255,4.466-.339a21.365,21.365,0,0,1,2.575.024,5.574,5.574,0,0,0,.318-1.142,21.9,21.9,0,0,0-2.415-.065c-1.516.053-3.019.285-4.535.349-3.045.123-6.089-.376-9.131-.094q-.51.05-1.013.127c.109.363.226.735.351,1.112a26.677,26.677,0,0,1,4.8-.112Z" transform="translate(-725.778 -8159.932)" fill="#637da8"/><path d="M1002.651,8217.124c.072-.383.16-.768.261-1.152q-6.8-.179-13.6.126c.144.387.287.769.425,1.142q6.453-.274,12.913-.115Z" transform="translate(-725.997 -8160.592)" fill="#637da8"/><path d="M1002.24,8223.39l.475-.017q-.06-.582-.09-1.157-5.695.182-11.39-.146a2.638,2.638,0,0,1,.022.945c-.016.07-.033.142-.053.212q5.512.321,11.036.163Z" transform="translate(-726.243 -8161.393)" fill="#637da8"/><path d="M992.593,8229.434c2.873.072,5.73-.072,8.6-.241.69-.041,1.38-.075,2.07-.1-.1-.386-.2-.769-.286-1.149-1.87.07-3.74.227-5.611.3a75.68,75.68,0,0,1-8.64-.166c-.208.352-.425.72-.649,1.106.084.009.167.017.251.022q2.13.177,4.269.229Z" transform="translate(-725.836 -8162.157)" fill="#637da8"/><path d="M997.1,8233.913c-3.65-.229-7.311-.11-10.964-.245l-.288-.012c-.184.428-.339.812-.465,1.134,1.78.085,3.565.1,5.348.117,1.856.016,3.711.029,5.564.122,1.877.094,3.742.3,5.6.539.8.1,1.606.211,2.41.312-.064-.324-.144-.724-.243-1.189-2.318-.292-4.633-.63-6.966-.777Z" transform="translate(-725.486 -8162.9)" fill="#637da8"/><path d="M992.133,8240.286a12.262,12.262,0,0,1,1.06,1.187c2.051.046,4.1.075,6.156.07.558-.432,1.093-.822,1.6-1.173-2.938.033-5.878-.01-8.814-.084Z" transform="translate(-726.364 -8163.761)" fill="#637da8"/><path d="M906.689,8252.149l22.431.087-22.258-44.985-22.605,44.812,22.431.087Z" transform="translate(-712.336 -8159.466)" fill="#b4e3ea"/><path d="M868.5,8312.82a8.238,8.238,0,0,1-.116,2.637c-.305.974-.775.858-1.437,1.965s-1.817,3.1-2.929,3.713-1.5-.391-.4-2.474a30.964,30.964,0,0,0,1.945-6.278l2.941.438Z" transform="translate(-709.566 -8173.137)" fill="#fcb195"/><path d="M876.6,8312.827l-.941.448a16.656,16.656,0,0,0-.01,2.406c.11.547,1.2.551,2.271,1.175a15.556,15.556,0,0,0,4.45,1.822c1.371.213.641-.692-.746-1.694a8.931,8.931,0,0,1-3.021-3.973c-.305-1.137-1.924-.842-2-.185Z" transform="translate(-711.21 -8173.119)" fill="#fcb195"/><path d="M875.187,8250.228s-2.859,24.209-3.173,27.719-1.037,8.72-1.656,13.432-2.307,12.829-2.307,12.829l-2.858-.011a123.311,123.311,0,0,1-1.951-14.2c-.376-6.369-.511-10.242-.9-14.853s-2.783-19.362-2.827-27.436c3.449-3.8,14.829.207,15.668,2.519Z" transform="translate(-709.119 -8164.523)" fill="#fcb195"/><path d="M890.934,8245.907l2.247,2.417a119.189,119.189,0,0,1-2.308,13.43c-1.322,4.859-2.853,11.572-4.072,15.781s-8.33,27.1-8.33,27.1l-2.857-.012s-.819-9.131.057-15.045,2.4-10.221,2.609-13.479.485-21.662.652-25.924,9.1-4.929,12-4.267Z" transform="translate(-711.167 -8164.464)" fill="#fcb195"/><path d="M870.128,8182.571a4.724,4.724,0,0,0-3.5,2.47c-1.011,2.178-.094,4.938-.827,6.466s-2.465,1.946-3.254,5.052-.772,4.937-1.656,6.764-2.116,2.374-2.6,4.953.509,4.692-.025,6.621-2.953,5.1-1.138,8.921,6.58,3.837,6.58,3.837l8.419-9.118,7.38-19.1a4.48,4.48,0,0,0,.014-3.719,10.069,10.069,0,0,1-1.387-5.991c.217-2.707-.112-5.115-2.268-6.759s-4.809-1.261-5.735-.4Z" transform="translate(-708.721 -8156.16)" fill="#ae4c4f"/><path d="M884.126,8230.109l1.49.3s5.507,5.689,5.517,15.869c-4.257-1.421-10.983.258-14.248,1.851a8.9,8.9,0,0,1-1.7-.007s-2.556-2.266-7.97-2.688-7.7.171-7.7.171.46-8.674,5.375-15.35c10.959-.484,19.232-.15,19.232-.15Z" transform="translate(-709.119 -8162.423)" fill="#fee9e3"/><path d="M869.651,8217.674l-.807,1.062a11.335,11.335,0,0,1-.014,3.786c-.405,1.164-3.133,6.081-3.133,6.081s1.91,2.34,10.9,1.885,9.823-1.73,9.823-1.73-2.806-3.7-3.474-6.068a13.911,13.911,0,0,1-.548-4.227,28.428,28.428,0,0,0-12.747-.788Z" transform="translate(-709.922 -8160.766)" fill="#fcb195"/><path d="M882.672,8208.228a4.376,4.376,0,0,1,1.3,3.252,4.879,4.879,0,0,1-1.328,3.055,14.791,14.791,0,0,0-.008,1.98s-.968.7-6.359.6-7.2-.329-7.2-.329l-1.53-6.1,3.041-8.414.908.1,5.172.021,1.1.055s4.432,4.73,4.892,5.772Z" transform="translate(-710.164 -8158.818)" fill="#fee9e3"/><path d="M838.516,8183.052a9.714,9.714,0,0,0-.957-1.731c-.533-.718-1.066-1.749-1.3-2.119s-.405.228-.179.66.571,1.09.358,1.115-2.749-1.974-3.084-2-.379.113.107.562c.421.39,2.03,1.78,2.03,1.78s-2.325-1.251-2.72-1.471-.705.029-.1.452,2.4,1.622,2.4,1.622-2.453-.846-2.753-.852-.275.3.2.521,2.206.866,2.166.9-1.438-.036-1.879-.025-.6.168-.151.354a13.9,13.9,0,0,0,2.231.336,8.166,8.166,0,0,1,1.923,1.159c.611.524,2.085-.229,1.706-1.263Z" transform="translate(-705.556 -8155.789)" fill="#fcb195"/><path d="M866.69,8199.824s-8.087-3.064-11.14-4.481a47.56,47.56,0,0,1-8.4-5.272c-2.55-1.915-8.073-6.649-8.073-6.649l-1.561,1.472a140.721,140.721,0,0,0,9.938,10.7c4.347,4,14.531,9.333,15.106,9.911a8.839,8.839,0,0,1,1.093,2.739s3.6-2.444,3.041-8.414Z" transform="translate(-706.257 -8156.367)" fill="#fcb195"/><path d="M910.378,8181.227a9.761,9.761,0,0,1,.832-1.795c.481-.754.94-1.82,1.15-2.207s.42.2.226.646-.492,1.127-.277,1.138,2.6-2.165,2.934-2.215.387.087-.067.569c-.393.418-1.9,1.919-1.9,1.919s2.232-1.413,2.609-1.66.706-.021.133.443-2.284,1.789-2.284,1.789,2.387-1.018,2.686-1.044.3.281-.165.533-2.14,1.02-2.1,1.051,1.432-.137,1.873-.158.614.124.175.343a14,14,0,0,1-2.2.492,8.168,8.168,0,0,0-1.836,1.294c-.572.566-2.1-.082-1.79-1.14Z" transform="translate(-715.727 -8155.504)" fill="#fcb195"/><path d="M877.267,8201.672s1.908,2.415,1.864,4.258-2.943,2.207-4.442.828-2.129-3.713-2.594-5.106c.584-.222.7-.562.646-1.519s-.176-3.456-.176-3.456l3.854,1.638a19.381,19.381,0,0,0,.191,2.922,1.109,1.109,0,0,0,.657.436Z" transform="translate(-710.754 -8158.09)" fill="#fcb195"/><path d="M878.232,8187.986a22.527,22.527,0,0,1,.431,5.508c-.179,2.729-1.746,3.983-4.3,3.24s-3.593-4.884-3.593-4.884a3.95,3.95,0,0,0,1.471-1.047c.586-.712.532-1.183,1.511-1.687a2.614,2.614,0,0,0,1.006-3.287c1.22,1.584,2.327,2.359,3.474,2.157Z" transform="translate(-710.582 -8156.68)" fill="#fcb195"/><path d="M877.561,8193.934l-2.981.263a2.147,2.147,0,0,0,1.726.947,1.375,1.375,0,0,0,1.255-1.21Z" transform="translate(-711.077 -8157.734)" fill="#fff"/><path d="M884.2,8205.545c-1.924-1.944-4.892-5.773-4.892-5.773s8.627-3.443,11.574-5.071a47.554,47.554,0,0,0,8.009-5.856c2.409-2.09,7.582-7.205,7.582-7.205l1.661,1.359a140.674,140.674,0,0,1-9.155,11.372c-4.053,4.3-14.247,10.558-14.779,11.175Z" transform="translate(-711.692 -8156.136)" fill="#fcb195"/><path d="M876.489,8198.314a4.419,4.419,0,0,1-3.854-1.638l.041.828a4.235,4.235,0,0,0,3.853,2.323c-.031-1.018-.04-1.514-.04-1.514Z" transform="translate(-710.825 -8158.09)" fill="#f4886d"/><path d="M869.378,8209.943a9.9,9.9,0,0,0,5.851,3.427c-1.943-2.49-5.851-3.427-5.851-3.427Z" transform="translate(-710.401 -8159.816)" fill="#a6d744"/><path d="M869.841,8209.1a16.215,16.215,0,0,1,5.67.65c-1.786.866-4.63.052-5.828-.363l.158-.287Z" transform="translate(-710.441 -8159.702)" fill="#a6d744"/><path d="M868.927,8210.543a16.8,16.8,0,0,1,4.188,5.531c-2.582-1.191-3.916-4.254-4.325-5.362l.137-.169Z" transform="translate(-710.324 -8159.894)" fill="#a6d744"/><path d="M880.961,8204.789l.526.64c-.476.069-1.013.13-1.62.169-.03-.08-.093-.26-.163-.424a5.592,5.592,0,0,1,1.256-.385Z" transform="translate(-711.744 -8159.146)" fill="#a6d744"/><path d="M882.052,8206.242l.543.63a15.6,15.6,0,0,1-2.522.813,1.73,1.73,0,0,0,.086-.83,7.007,7.007,0,0,1,1.893-.612Z" transform="translate(-711.792 -8159.335)" fill="#a6d744"/><path d="M882.884,8207.486l.329.37a14.267,14.267,0,0,1-3.94,2.974,8.265,8.265,0,0,1,3.611-3.344Z" transform="translate(-711.688 -8159.496)" fill="#a6d744"/><path d="M882.255,8218.406a13.273,13.273,0,0,1,2.251-5.3,10.605,10.605,0,0,1-1.277,5.174l-.974.122Z" transform="translate(-712.075 -8160.229)" fill="#a6d744"/><path d="M881.269,8218.47c-.526-1.2-.952-3.738-.076-5.374.665,1.322.579,4.1.5,5.344l-.426.03Z" transform="translate(-711.872 -8160.227)" fill="#a6d744"/><path d="M880.4,8218.864l-.5.019a4.464,4.464,0,0,1-1.524-2.974,7.024,7.024,0,0,1,2.028,2.955Z" transform="translate(-711.571 -8160.592)" fill="#a6d744"/><path d="M882.654,8232.021c1.4-.141,2.739-.4,3.237-.507a9.875,9.875,0,0,1-5.859,3.053,19.218,19.218,0,0,1,2.622-2.546Z" transform="translate(-711.786 -8162.621)" fill="#a6d744"/><path d="M888.174,8230.956a2.435,2.435,0,0,0,.849-.479l.645.776a13.08,13.08,0,0,1-3.949,3.989,22.27,22.27,0,0,1,2.455-4.286Z" transform="translate(-712.526 -8162.486)" fill="#a6d744"/><path d="M871.175,8232.251c1.261,1.454,3,3.971,2.9,6.7a15.5,15.5,0,0,1-3.888-6.854l.992.155Z" transform="translate(-710.506 -8162.696)" fill="#a6d744"/><path d="M869.312,8231.92a20.566,20.566,0,0,1,.385,9.234,28.993,28.993,0,0,1-.8-9.336l.415.1Z" transform="translate(-710.327 -8162.661)" fill="#a6d744"/><path d="M867.009,8231.432c.232.088.485.166.614.205a17.478,17.478,0,0,1-5,8.916,23.8,23.8,0,0,1,4.383-9.121Z" transform="translate(-709.523 -8162.61)" fill="#a6d744"/><path d="M894.6,8242.784c.063.351.205,1.179.291,2.061a19.517,19.517,0,0,1-5.412-4.813,11.033,11.033,0,0,1,5.121,2.753Z" transform="translate(-713.015 -8163.728)" fill="#a6d744"/><path d="M894.359,8246.229c.02.29.057.923.057,1.539a38.417,38.417,0,0,1-9.676-4.814c5.289.4,8.138,1.977,9.619,3.275Z" transform="translate(-712.399 -8164.108)" fill="#a6d744"/><path d="M886.741,8248.224a21.62,21.62,0,0,1-3.434-1.408c2.086-.515,4.6.327,6.348,1.116a25.4,25.4,0,0,0-2.914.292Z" transform="translate(-712.212 -8164.59)" fill="#a6d744"/><path d="M877.395,8249.766a6.079,6.079,0,0,0-.9-.624,21.771,21.771,0,0,1,4.1-6.549,24.621,24.621,0,0,1-3.2,7.182l-.009-.009Z" transform="translate(-711.327 -8164.061)" fill="#a6d744"/><path d="M875.1,8247.871a34.367,34.367,0,0,1,2.157-10.176,16.235,16.235,0,0,1-.023,6.055,15.355,15.355,0,0,1-1.508,4.429l-.626-.308Z" transform="translate(-711.145 -8163.425)" fill="#a6d744"/><path d="M873.315,8247.829a14.677,14.677,0,0,1-1.076-6.221,10.729,10.729,0,0,1,1.872,6.512l-.8-.291Z" transform="translate(-710.77 -8163.934)" fill="#a6d744"/><path d="M860.357,8242.227a7.939,7.939,0,0,1,1.361,4.707l-.62.049c-.356-.639-.808-1.467-1.239-2.311a23,23,0,0,1,.5-2.445Z" transform="translate(-709.163 -8164.015)" fill="#a6d744"/><path d="M1081.841,8403.912l17.659-28.819h-36.836l17.66,28.819-17.66,28.82H1099.5l-17.659-28.82Z" transform="translate(-735.535 -8181.291)" fill="#b4e3ea"/><path d="M1113.761,8491.843l.277,1.35s.416,3.148-.138,3.634-1.833.69-3.945,1.659a17.452,17.452,0,0,1-5.224,1.868c-1.419.1-.659-1.077,2.249-3.321,3.183-2.456,3.35-4.7,3.35-4.7l3.431-.491Z" transform="translate(-740.915 -8196.473)" fill="#fcb195"/><path d="M1106.6,8424.511l-1.223.658,5.2,59.267h3.632s1.776-10.253,2.191-16.434a88.5,88.5,0,0,0-.323-12.642c0-1.015,1.972-25.313,1.972-25.313s-3.218-5.8-11.452-5.536Z" transform="translate(-741.09 -8187.716)" fill="#fcb195"/><path d="M1130.559,8491.871l-.164,1.368s-.157,3.171.435,3.608,1.884.54,4.067,1.332a17.5,17.5,0,0,0,5.36,1.436c1.422-.014.568-1.129-2.513-3.127-3.374-2.187-3.724-4.408-3.724-4.408l-3.461-.209Z" transform="translate(-744.34 -8196.477)" fill="#fcb195"/><path d="M1131.871,8424.077l1.3,1.243-.357,58.8-3.62.3s-2.611-10.073-3.53-16.2a88.369,88.369,0,0,1-.713-12.624c-.084-1.012-3.815-25.489-3.815-25.489s2.508-5.624,10.736-6.033Z" transform="translate(-743.139 -8187.662)" fill="#fcb195"/><path d="M1105.563,8421.311l-.185,3.161s7.347,2.871,12.675,4.878c.726.082,1.033.118,1.033.118a101.093,101.093,0,0,1,12.034-4.789c-.23-5.182-.854-5.536-.854-5.536l-24.7,2.168Z" transform="translate(-741.09 -8187.019)" fill="#cd253d"/><path d="M1130.92,8422.26l.053.525a22.064,22.064,0,0,1-7.136.88c-4.135-.138-8.235.9-11.8,1.046a35.406,35.406,0,0,1-6.624-.371l.121-2.074,25.385-.006Z" transform="translate(-741.094 -8187.425)" fill="#990e25"/><path d="M1144.968,8426.689l-.759,1.073a2.615,2.615,0,0,1-.137.956,3.391,3.391,0,0,0-.348,2.9c.436,1.792.872,3.6.938,4.192s.9.24.633-1.354-.639-2.466.051-2.183,1.106,3.4,1.084,4.1-.347,2.337,0,2.446.829-.939.829-.939a9.372,9.372,0,0,0,.742-2.073,28.584,28.584,0,0,0,.392-3.907c-.064-.5-1.068-5.045-1.068-5.045s-1.6-.609-2.358-.172Z" transform="translate(-746.056 -8187.98)" fill="#fcb195"/><path d="M1133.05,8377.432c.035-.16.272-1.452.272-1.452s5.107.568,7.334,9.124,5.326,35.929,5.326,35.929l-3.142.371s-2.838-10.265-4.322-16.341-3.86-16.615-4.4-13.95c-1.495-1.224-1.993-9.566-1.065-13.681Z" transform="translate(-744.627 -8181.407)" fill="#fcb195"/><path d="M1105.253,8376.3l-.461-2.18s-3.275.208-6.874,4.324-14.012,15.639-14.081,18.164,8.526,9.809,18.032,11.408a11.248,11.248,0,0,0,1.759-2.954s-7.095-2.848-11.35-8.315c5.154-6.331,9.195-9.643,10.067-9.618s1.015,1.477,1.015,1.477,3-7.047,1.891-12.306Z" transform="translate(-738.289 -8181.165)" fill="#fcb195"/><path d="M1123.033,8373.675l6.712,1.96s-.126,5.028,0,8.661a40.2,40.2,0,0,0,.75,6.471s-1.348,8.072-1.165,10.471,1.338,10.288,1.708,14.624c-4.659.83-10.38.185-13.1.507s-8.719.876-13.194-.692c1.338-8.764,2.814-14.161,2.768-16.7s-1.43-10.471-1.43-10.471,1.246-8.489,1.43-14.485c2.492-.462,6.781-.692,6.781-.692a8.912,8.912,0,0,0,8.741.347Z" transform="translate(-741.007 -8181.062)" fill="#fee9e3"/><path d="M1125.308,8354.494a2.4,2.4,0,0,1,1.294,1.549,7.421,7.421,0,0,1-.255,2.514c-.073.893.855,3.3-1.913,3.989s-8.053-1.029-8.053-1.029a4.176,4.176,0,0,1-1.584-3.507,5.423,5.423,0,0,1,1.4-3.334,4.762,4.762,0,0,1,4.742-3.043c3.516.056,4.318,2.314,4.373,2.861Z" transform="translate(-742.312 -8178.24)" fill="#ae4c4f"/><path d="M1115.719,8372.563s.622,2.907,4.382,2.629,4.359-2.282,4.359-2.282a1.935,1.935,0,0,1-1.752-1.685,21.018,21.018,0,0,1-.171-3.782l-4.771.739a9.339,9.339,0,0,1-.583,3.361,1.833,1.833,0,0,1-1.464,1.02Z" transform="translate(-742.434 -8180.297)" fill="#fcb195"/><path d="M1116.653,8359.049a20.028,20.028,0,0,0,0,6.023c.559,2.283,2.964,3.959,5.417,2.43s2.987-5.32,2.987-5.32a6.177,6.177,0,0,1-.947-3.547c.218-1.748-.437-2.477-1.482-2.525s-2.429.971-3.619,2.381a1.707,1.707,0,0,1-2.357.559Z" transform="translate(-742.523 -8178.823)" fill="#fcb195"/><path d="M1106.45,8409.507a18.706,18.706,0,0,1,4.306-1.548c1.211-.05,3.341.714,3.367,1.128s-3.1-.463-3.1-.463,3.027,1.016,2.858,1.443-2.906-.414-2.906-.414,2.833.945,2.615,1.236-2.93-.395-2.93-.395,2.131.66,1.937.891-1.87.024-2.521,0-2.878,1.969-5.536,1.034c-.89-2.079,1.759-2.954,1.759-2.954l.153.041Z" transform="translate(-740.956 -8185.565)" fill="#fcb195"/><path d="M1112.464,8408.9s-.634-.2-.753-.227a3.3,3.3,0,0,0-.372-.047,1.71,1.71,0,0,1,.655,0c.381.066,1.722.519,1.722.519l-1.253-.245Z" transform="translate(-741.865 -8185.648)" fill="#f4886d"/><path d="M1112.232,8410.007a8.362,8.362,0,0,0-.877-.217,1.5,1.5,0,0,0-.329,0,1.476,1.476,0,0,1,.436-.144c.146,0,1.995.643,1.995.643l-1.225-.282Z" transform="translate(-741.824 -8185.785)" fill="#f4886d"/><path d="M1111.462,8410.847a2.864,2.864,0,0,0-.636-.065c-.09.038-.291.116-.291.116a1.441,1.441,0,0,1,.343-.225,17.607,17.607,0,0,1,2.353.55l-1.768-.376Z" transform="translate(-741.76 -8185.917)" fill="#f4886d"/><path d="M1119.022,8365.308l3.121.243a1.942,1.942,0,0,1-1.749.924,1.451,1.451,0,0,1-1.373-1.167Z" transform="translate(-742.864 -8180.019)" fill="#fff"/><path d="M1118.025,8368.78a2.867,2.867,0,0,0,2.209.952,4.46,4.46,0,0,0,2.554-.981v.492a4.391,4.391,0,0,1-2.427,1.438,5.633,5.633,0,0,1-2.555,0l.219-1.9Z" transform="translate(-742.706 -8180.466)" fill="#f4886d"/><path d="M1108.841,8374.88a.266.266,0,0,0,0,.531.266.266,0,0,0,0-.531Z" transform="translate(-741.506 -8181.264)" fill="#fff"/><path d="M1115.31,8374.349a.266.266,0,0,0,0,.532.266.266,0,0,0,0-.532Z" transform="translate(-742.348 -8181.195)" fill="#fff"/><path d="M1111.969,8378.06a.266.266,0,0,0,0,.532.266.266,0,0,0,0-.532Z" transform="translate(-741.913 -8181.677)" fill="#fff"/><path d="M1119.87,8378.06a.266.266,0,0,0,0,.532.266.266,0,0,0,0-.532Z" transform="translate(-742.941 -8181.677)" fill="#fff"/><path d="M1116.052,8382.25a.266.266,0,0,0,0,.532.266.266,0,0,0,0-.532Z" transform="translate(-742.444 -8182.223)" fill="#fff"/><path d="M1109.689,8382.62a.266.266,0,0,0,0,.532.266.266,0,0,0,0-.532Z" transform="translate(-741.617 -8182.27)" fill="#fff"/><path d="M1126.71,8375.463a.266.266,0,0,0,0,.532.266.266,0,0,0,0-.532Z" transform="translate(-743.83 -8181.34)" fill="#fff"/><path d="M1131.96,8377.319a.266.266,0,0,0,0,.531.266.266,0,0,0,0-.531Z" transform="translate(-744.513 -8181.582)" fill="#fff"/><path d="M1127.187,8380.553a.267.267,0,0,0,0,.533.267.267,0,0,0,0-.533Z" transform="translate(-743.892 -8182.002)" fill="#fff"/><path d="M1122.1,8384.424a.266.266,0,0,0,0,.531.266.266,0,0,0,0-.531Z" transform="translate(-743.23 -8182.504)" fill="#fff"/><path d="M1131.589,8384.583a.266.266,0,0,0,0,.532.266.266,0,0,0,0-.532Z" transform="translate(-744.465 -8182.526)" fill="#fff"/><path d="M1109.477,8387.234a.266.266,0,0,0,0,.531.266.266,0,0,0,0-.531Z" transform="translate(-741.589 -8182.87)" fill="#fff"/><path d="M1117.643,8387.977a.266.266,0,0,0,0,.532.266.266,0,0,0,0-.532Z" transform="translate(-742.651 -8182.967)" fill="#fff"/><path d="M1127.823,8388.294a.266.266,0,0,0,0,.532.266.266,0,0,0,0-.532Z" transform="translate(-743.975 -8183.008)" fill="#fff"/><path d="M1113.453,8390.894a.266.266,0,0,0,0,.531.266.266,0,0,0,0-.531Z" transform="translate(-742.106 -8183.347)" fill="#fff"/><path d="M1123.528,8391.317a.266.266,0,0,0,0,.531.266.266,0,0,0,0-.531Z" transform="translate(-743.416 -8183.401)" fill="#fff"/><path d="M1132.119,8394.234a.266.266,0,0,0,0,.531.266.266,0,0,0,0-.531Z" transform="translate(-744.534 -8183.78)" fill="#fff"/><path d="M1126.5,8396.62a.266.266,0,0,0,0,.532.266.266,0,0,0,0-.532Z" transform="translate(-743.803 -8184.091)" fill="#fff"/><path d="M1119.128,8394.977a.266.266,0,0,0,0,.531.266.266,0,0,0,0-.531Z" transform="translate(-742.844 -8183.877)" fill="#fff"/><path d="M1109.052,8396.037a.266.266,0,0,0,0,.531.266.266,0,0,0,0-.531Z" transform="translate(-741.534 -8184.016)" fill="#fff"/><path d="M1114.355,8399.217a.267.267,0,0,0,0,.533.267.267,0,0,0,0-.533Z" transform="translate(-742.223 -8184.428)" fill="#fff"/><path d="M1121.62,8399.907a.266.266,0,0,0,0,.531.266.266,0,0,0,0-.531Z" transform="translate(-743.168 -8184.518)" fill="#fff"/><path d="M1131.483,8401.391a.267.267,0,0,0,0,.533.267.267,0,0,0,0-.533Z" transform="translate(-744.451 -8184.71)" fill="#fff"/><path d="M1109.689,8403.884a.266.266,0,0,0,0,.532.266.266,0,0,0,0-.532Z" transform="translate(-741.617 -8185.035)" fill="#fff"/><path d="M1117.536,8403.672a.266.266,0,0,0,0,.532.266.266,0,0,0,0-.532Z" transform="translate(-742.637 -8185.007)" fill="#fff"/><path d="M1127.771,8405.1a.267.267,0,0,0,0,.533.267.267,0,0,0,0-.533Z" transform="translate(-743.968 -8185.193)" fill="#fff"/><path d="M1131.43,8408.338a.266.266,0,0,0,0,.532.266.266,0,0,0,0-.532Z" transform="translate(-744.444 -8185.614)" fill="#fff"/><path d="M1121.938,8407.755a.266.266,0,0,0,0,.532.266.266,0,0,0,0-.532Z" transform="translate(-743.21 -8185.538)" fill="#fff"/><path d="M1114.382,8407.61a.266.266,0,0,0,0,.531.266.266,0,0,0,0-.531Z" transform="translate(-742.227 -8185.521)" fill="#fff"/><path d="M1117.59,8411.944a.266.266,0,0,0,0,.531.266.266,0,0,0,0-.531Z" transform="translate(-742.644 -8186.083)" fill="#fff"/><path d="M1128.142,8412.368a.266.266,0,0,0,0,.531.266.266,0,0,0,0-.531Z" transform="translate(-744.016 -8186.138)" fill="#fff"/><path d="M1132.6,8416.292a.266.266,0,0,0,0,.532.266.266,0,0,0,0-.532Z" transform="translate(-744.596 -8186.648)" fill="#fff"/><path d="M1122.1,8415.232a.266.266,0,0,0,0,.531.266.266,0,0,0,0-.531Z" transform="translate(-743.23 -8186.511)" fill="#fff"/><path d="M1107.409,8416.928a.267.267,0,0,0,0,.533.267.267,0,0,0,0-.533Z" transform="translate(-741.32 -8186.731)" fill="#fff"/><path d="M1112.817,8416.612a.265.265,0,0,0,0,.53.265.265,0,0,0,0-.53Z" transform="translate(-742.023 -8186.691)" fill="#fff"/><path d="M1110.537,8420.7a.265.265,0,0,0,0,.53.265.265,0,0,0,0-.53Z" transform="translate(-741.727 -8187.222)" fill="#fff"/><path d="M1117.749,8420.534a.266.266,0,0,0,0,.531.266.266,0,0,0,0-.531Z" transform="translate(-742.665 -8187.2)" fill="#fff"/><path d="M1128.036,8421.117a.267.267,0,0,0,0,.533.267.267,0,0,0,0-.533Z" transform="translate(-744.003 -8187.276)" fill="#fff"/><path d="M1134.188,8421.117a.267.267,0,0,0,0,.533.267.267,0,0,0,0-.533Z" transform="translate(-744.802 -8187.276)" fill="#fff"/><path d="M793.059,8432.8H760.4v-60.326h32.658V8432.8Z" transform="translate(-696.23 -8180.95)" fill="#b4e3ea"/><path d="M761.733,8435.1l3.052,51.9h-3.052s-2.978-10.587-3.649-15.142-1.474-11.167-1.742-13.179-3.752-23.227-3.752-23.227l9.142-.357Z" transform="translate(-695.214 -8189.096)" fill="#fcb195"/><path d="M738.163,8435.1l2.412,51.9h3.215a129.423,129.423,0,0,0,1.966-13.757c.491-6.522.223-10.678.625-15.054s1.251-23.094,1.251-23.094Z" transform="translate(-693.338 -8189.096)" fill="#fcb195"/><path d="M747.586,8436.336l-.024.513-9.275.909-.086-1.857,9.386.436Z" transform="translate(-693.343 -8189.198)" fill="#f4886d"/><path d="M761.8,8436.026l.036.62-8.818,1.424-.269-1.644,9.05-.4Z" transform="translate(-695.235 -8189.215)" fill="#f4886d"/><path d="M742.911,8493.617l.64.838a8.545,8.545,0,0,1,0,2.58c-.255.568-1.578.652-3.035,1.574s-2.847,1.842-3.9,1.942-.268-1.072.887-2.21a14.1,14.1,0,0,0,2.794-4.066c.288-.893,2.222-1.176,2.616-.658Z" transform="translate(-693.072 -8196.671)" fill="#fcb195"/><path d="M763.635,8493.621l-.585.886a7.822,7.822,0,0,0-.055,2.53c.254.569,1.577.653,3.034,1.574s2.848,1.844,3.9,1.943.268-1.072-.888-2.211a14.706,14.706,0,0,1-2.934-3.986c-.288-.893-2.083-1.254-2.477-.736Z" transform="translate(-696.554 -8196.674)" fill="#fcb195"/><path d="M737.691,8420.624l-.234,13.2a60.155,60.155,0,0,0,10.788.5,19.147,19.147,0,0,1,.513-3.282l.525-.067.369,3.4a68.289,68.289,0,0,0,11.223-.481c-.168-8.709-.4-13.266-.4-13.266Z" transform="translate(-693.246 -8187.212)" fill="#78b7d4"/><path d="M743.606,8429.994a54.915,54.915,0,0,0,6.359,1.429,56.116,56.116,0,0,0,6.214-.915l-3.819,1.251,1.63.245-3.891.358-.543-.1a51.127,51.127,0,0,1-5.951-2.268Z" transform="translate(-694.046 -8188.43)" fill="#5f9eb9"/><path d="M760.556,8421.932a13.605,13.605,0,0,1-5.224,1.415,56.216,56.216,0,0,0-8.2.369c-2.612.436-6.215,1.342-9.472.268l.051-2.925,22.8-.1.043.977Z" transform="translate(-693.273 -8187.255)" fill="#5f9eb9"/><path d="M721.321,8428.8l.336,1.2a4.415,4.415,0,0,1-1.508,1.92c-.972.569-2.323.479-3.641.647s-1.418-.155-1.451-.413,2.624-.559,2.8-.659a10.827,10.827,0,0,0-3.1.046,28.8,28.8,0,0,1-3,.581c-.781.032-.312-.458.57-.905a19.428,19.428,0,0,1,2.88-1.62c.748-.156,5.026-.423,5.026-.423l1.094-.37Z" transform="translate(-689.852 -8188.276)" fill="#fcb195"/><path d="M731.758,8391.048s-2.5,11.481-3.439,14.519-7.806,18.917-7.806,18.917l2.267.692s7.325-9.515,10.631-15.455,4.378-18.673,4.378-18.673Z" transform="translate(-691.043 -8183.367)" fill="#fcb195"/><path d="M777.849,8390.942l-.151-.637a3.826,3.826,0,0,1,1.307-2.445,36.375,36.375,0,0,0,3.266-2.229c.553-.569.4.318-.218.837s-1.625,1.157-1.374,1.207a16.283,16.283,0,0,0,3.869-1.691c.889-.62,1.609-.786,1.558-.536a24.452,24.452,0,0,1-2.429,3.115c-.385.335-3.877,1.651-4.07,2.277s-1.775.905-1.758.1Z" transform="translate(-698.479 -8182.624)" fill="#fcb195"/><path d="M767.625,8391.049l2.513,9.851a64.84,64.84,0,0,0,5.662-9.851,15.516,15.516,0,0,1,1.909.536s-3.45,11.324-5.427,15.109-5.3,2.278-6.667-1.239-2.412-6.7-2.412-6.7-.234-7.771,0-7.705,4.422,0,4.422,0Z" transform="translate(-696.581 -8183.368)" fill="#fcb195"/><path d="M752.09,8375.691l1.1-.145s5.041,1.172,6.806,2.423,3.027,4.813,4.8,11.212c-2.312.67-4.59,1.173-4.59,1.173l-.324,24.533a13,13,0,0,1-5.985,1.318,47.422,47.422,0,0,0-8.376.026c-2.233.242-5.985.732-9-1.345.09-6.767.313-24.411.313-24.411a14.267,14.267,0,0,1-5.784-1.943c1.965-5.94,3.349-8.955,4.891-10.743s4.768-2.321,8.5-2.646a22.094,22.094,0,0,0,7.643.548Z" transform="translate(-692.413 -8181.298)" fill="#fee9e3"/><path d="M755.905,8362.774a5.279,5.279,0,0,0,1.525-2.694,2.9,2.9,0,0,0-.986-3.028c-.287-.389-.356-1.948-1.72-2.751s-2.388-.218-2.886-.311-1.667-1.123-3.341-.481-1.823,1.927-2.179,2.489a5.388,5.388,0,0,0-1.169,2.225,6.186,6.186,0,0,0,.286,2.007c.046.526-.619,1.88-.126,3.049a1.825,1.825,0,0,0,2.1,1.175c.539-.143,8.5-1.679,8.5-1.679Z" transform="translate(-694.244 -8178.457)" fill="#3b1a4a"/><path d="M746.449,8374.405s1.072,1.978,4.589,1.928,4.155-1.525,4.155-1.525a3.166,3.166,0,0,1-1.667-1.289,9.838,9.838,0,0,1-.21-3.284l-4.59-.771a13.308,13.308,0,0,1-.4,3.436,2.789,2.789,0,0,1-1.876,1.506Z" transform="translate(-694.416 -8180.559)" fill="#fcb195"/><path d="M756.538,8362.714s-.532,3.99-1.7,5.813a3.605,3.605,0,0,1-5.728.19,5.637,5.637,0,0,1-1.358-3.647,6.71,6.71,0,0,0,1.134-3.113c.1-1.685.138-2.941.138-2.993a2.094,2.094,0,0,1,2.218-.911c1.6.19,2.391,1,3.457,1.1s1.669.069,1.84,1.221a9.191,9.191,0,0,1,0,2.34Z" transform="translate(-694.584 -8179.073)" fill="#fcb195"/><path d="M751.536,8367.219l2.993.353a1.607,1.607,0,0,1-1.574.784,1.671,1.671,0,0,1-1.419-1.137Z" transform="translate(-695.077 -8180.267)" fill="#fff"/><path d="M749.028,8369.974a3.615,3.615,0,0,0,4.549,1.287l0,.521a4.414,4.414,0,0,1-2.394.748,4.858,4.858,0,0,1-2.375-.225l.222-2.331Z" transform="translate(-694.722 -8180.625)" fill="#f4886d"/><path d="M764.567,8392.5l3.387-.838.107.418-3.493,1.574V8392.5Z" transform="translate(-696.772 -8183.446)" fill="#f4886d"/><path d="M733.262,8391.678a25.874,25.874,0,0,0,3.828.948l-.008.613-4.084-.364.265-1.2Z" transform="translate(-692.666 -8183.448)" fill="#f4886d"/><path d="M764.567,8391.68v-6.344l.6,6.208-.6.136Z" transform="translate(-696.772 -8182.623)" fill="#ebc7c7"/><path d="M737.586,8391.528l.257-8.3-1.023,8.175.766.122Z" transform="translate(-693.163 -8182.35)" fill="#ebc7c7"/></g></g></g></g></svg>