<svg xmlns="http://www.w3.org/2000/svg" xmlns:xlink="http://www.w3.org/1999/xlink" width="957.912" height="591.492" viewBox="0 0 957.912 591.492"><defs><radialGradient id="a" cx="0.5" cy="0.5" r="0.5" gradientTransform="matrix(0.707, 0.707, -0.707, 0.707, 0.5, -0.207)" gradientUnits="objectBoundingBox"><stop offset="0.36" stop-color="#acc2d4"/><stop offset="0.443" stop-color="#baccdb"/><stop offset="0.683" stop-color="#dfe7ee"/><stop offset="0.878" stop-color="#f6f8fa"/><stop offset="1" stop-color="#fff"/></radialGradient><radialGradient id="b" cx="0.5" cy="0.5" r="0.5" gradientTransform="translate(0)" xlink:href="#a"/><radialGradient id="c" cx="0.5" cy="0.5" r="0.5" gradientTransform="translate(0)" xlink:href="#a"/><radialGradient id="d" cx="0.5" cy="0.5" r="0.5" xlink:href="#a"/><radialGradient id="e" cx="0.5" cy="0.5" r="0.5" gradientTransform="translate(0)" xlink:href="#a"/></defs><g transform="translate(-320.704 -1676.491)"><line y1="81.212" transform="translate(807.112 1875.688)" fill="none" stroke="#206491" stroke-linecap="round" stroke-miterlimit="10" stroke-width="3" stroke-dasharray="12"/><line y1="55.985" x2="92.696" transform="translate(880.329 1939.538)" fill="none" stroke="#206491" stroke-linecap="round" stroke-miterlimit="10" stroke-width="3" stroke-dasharray="12"/><line x1="92.696" y1="55.985" transform="translate(628.288 1939.538)" fill="none" stroke="#206491" stroke-linecap="round" stroke-miterlimit="10" stroke-width="3" stroke-dasharray="12"/><line x1="164.87" y2="44.077" transform="translate(541.025 2063.521)" fill="none" stroke="#206491" stroke-linecap="round" stroke-miterlimit="10" stroke-width="3" stroke-dasharray="12"/><line x2="164.87" y2="44.077" transform="translate(884.742 2063.521)" fill="none" stroke="#206491" stroke-linecap="round" stroke-miterlimit="10" stroke-width="3" stroke-dasharray="12"/><g transform="translate(79.66 463.892)"><path d="M1054.626,1799.615a1.747,1.747,0,0,1-1.647-2.324,349.533,349.533,0,0,0,19.747-116.157c0-193.225-157.2-350.425-350.425-350.425s-350.424,157.2-350.424,350.425a349.489,349.489,0,0,0,19.747,116.153,1.745,1.745,0,0,1-3.294,1.156,353.012,353.012,0,0,1-19.944-117.309c0-195.15,158.766-353.916,353.915-353.916s353.916,158.766,353.916,353.916a353.054,353.054,0,0,1-19.944,117.313A1.747,1.747,0,0,1,1054.626,1799.615Z" fill="#206491"/><path d="M1060.857,1799.679a6.561,6.561,0,1,1-4.049-8.349A6.562,6.562,0,0,1,1060.857,1799.679Z" fill="#206491"/><path d="M383.746,1799.679a6.561,6.561,0,1,0,4.049-8.349A6.562,6.562,0,0,0,383.746,1799.679Z" fill="#206491"/></g><circle cx="129.087" cy="129.087" r="129.087" transform="translate(672.874 1676.491)" fill="url(#a)" style="mix-blend-mode:multiply;isolation:isolate"/><circle cx="100.262" cy="100.262" r="100.262" transform="translate(701.7 1692.593)" fill="#fff"/><circle cx="77.616" cy="77.616" r="77.616" transform="translate(724.346 1715.238)" fill="#bf3976"/><circle cx="129.087" cy="129.087" r="129.087" transform="translate(320.704 1993.57)" fill="url(#b)" style="mix-blend-mode:multiply;isolation:isolate"/><circle cx="100.262" cy="100.262" r="100.262" transform="translate(349.53 2009.672)" fill="#fff"/><circle cx="77.616" cy="77.616" r="77.616" transform="translate(372.176 2032.317)" fill="#bf3976"/><circle cx="129.087" cy="129.087" r="129.087" transform="translate(1020.441 1993.57)" fill="url(#c)" style="mix-blend-mode:multiply;isolation:isolate"/><circle cx="100.262" cy="100.262" r="100.262" transform="translate(1049.268 2009.672)" fill="#fff"/><circle cx="77.616" cy="77.616" r="77.616" transform="translate(1071.913 2032.317)" fill="#bf3976"/><circle cx="129.087" cy="129.087" r="129.087" transform="translate(434.441 1766.878)" fill="url(#d)" style="mix-blend-mode:multiply;isolation:isolate"/><circle cx="100.262" cy="100.262" r="100.262" transform="translate(463.267 1782.979)" fill="#fff"/><circle cx="77.616" cy="77.616" r="77.616" transform="translate(485.913 1805.624)" fill="#bf3976"/><circle cx="129.087" cy="129.087" r="129.087" transform="translate(909.225 1767.295)" fill="url(#e)" style="mix-blend-mode:multiply;isolation:isolate"/><circle cx="100.262" cy="100.262" r="100.262" transform="translate(938.049 1783.396)" fill="#fff"/><circle cx="77.616" cy="77.616" r="77.616" transform="translate(960.695 1806.042)" fill="#bf3976"/><path d="M-90.289,0-101.8-30.081h-.186q.325,3.574.325,8.5V0h-3.644V-33.934h5.942L-88.618-5.942h.186l10.839-27.992h5.9V0h-3.946V-21.864q0-3.76.325-8.17H-75.5L-87.109,0Zm38.065.464a11.688,11.688,0,0,1-8.9-3.435q-3.261-3.435-3.261-9.54,0-6.151,3.029-9.772A10.061,10.061,0,0,1-53.222-25.9a9.593,9.593,0,0,1,7.567,3.145,12.054,12.054,0,0,1,2.785,8.3v2.437H-60.394q.116,4.48,2.263,6.8A7.827,7.827,0,0,0-52.084-2.9a20.489,20.489,0,0,0,8.124-1.718v3.435A20.39,20.39,0,0,1-47.825.081,21.718,21.718,0,0,1-52.224.464Zm-1.044-23.141a6.292,6.292,0,0,0-4.886,2A9.2,9.2,0,0,0-60.3-15.156H-47a8.471,8.471,0,0,0-1.625-5.582A5.719,5.719,0,0,0-53.268-22.677ZM-18.986-3.412H-19.2Q-21.864.464-27.179.464a9.445,9.445,0,0,1-7.764-3.412q-2.774-3.412-2.774-9.7t2.785-9.772A9.373,9.373,0,0,1-27.179-25.9a9.251,9.251,0,0,1,7.938,3.76h.3l-.162-1.834-.093-1.787V-36.116h3.853V0h-3.133Zm-7.706.65q3.946,0,5.721-2.147t1.776-6.928v-.812q0-5.408-1.8-7.717t-5.745-2.309a5.9,5.9,0,0,0-5.188,2.634q-1.8,2.634-1.8,7.439,0,4.874,1.787,7.358A6.053,6.053,0,0,0-26.692-2.762ZM-3.319,0H-7.172V-25.439h3.853ZM-7.5-32.332a2.559,2.559,0,0,1,.65-1.938,2.271,2.271,0,0,1,1.625-.615,2.27,2.27,0,0,1,1.6.627,2.513,2.513,0,0,1,.673,1.926,2.552,2.552,0,0,1-.673,1.938,2.248,2.248,0,0,1-1.6.638,2.225,2.225,0,0,1-1.625-.638A2.607,2.607,0,0,1-7.5-32.332Zm34.305,19.59q0,6.22-3.133,9.714A11.035,11.035,0,0,1,15.017.464a11.467,11.467,0,0,1-6.058-1.6,10.57,10.57,0,0,1-4.085-4.6,16.016,16.016,0,0,1-1.439-7.01q0-6.22,3.11-9.69T15.18-25.9a10.761,10.761,0,0,1,8.483,3.551Q26.808-18.8,26.808-12.743Zm-19.381,0q0,4.874,1.95,7.427A6.768,6.768,0,0,0,15.11-2.762,6.813,6.813,0,0,0,20.855-5.3q1.961-2.542,1.961-7.439,0-4.851-1.961-7.369a6.891,6.891,0,0,0-5.791-2.518,6.782,6.782,0,0,0-5.71,2.484Q7.427-17.663,7.427-12.743Zm55.8,9.331h-.209Q60.347.464,55.032.464a9.445,9.445,0,0,1-7.764-3.412q-2.774-3.412-2.774-9.7t2.785-9.772A9.373,9.373,0,0,1,55.032-25.9a9.251,9.251,0,0,1,7.938,3.76h.3l-.162-1.834-.093-1.787V-36.116h3.853V0H63.736Zm-7.706.65q3.946,0,5.721-2.147t1.776-6.928v-.812q0-5.408-1.8-7.717t-5.745-2.309a5.9,5.9,0,0,0-5.188,2.634q-1.8,2.634-1.8,7.439,0,4.874,1.787,7.358A6.053,6.053,0,0,0,55.52-2.762ZM85.786.464a11.688,11.688,0,0,1-8.9-3.435q-3.261-3.435-3.261-9.54,0-6.151,3.029-9.772A10.061,10.061,0,0,1,84.788-25.9a9.593,9.593,0,0,1,7.567,3.145,12.054,12.054,0,0,1,2.785,8.3v2.437H77.616q.116,4.48,2.263,6.8A7.827,7.827,0,0,0,85.925-2.9a20.489,20.489,0,0,0,8.124-1.718v3.435A20.39,20.39,0,0,1,90.184.081,21.718,21.718,0,0,1,85.786.464ZM84.742-22.677a6.292,6.292,0,0,0-4.886,2,9.2,9.2,0,0,0-2.147,5.524h13.3a8.471,8.471,0,0,0-1.625-5.582A5.719,5.719,0,0,0,84.742-22.677Zm-300.66,43.646a6.852,6.852,0,0,0-5.985,3.142q-2.149,3.142-2.149,8.664,0,11.479,8.732,11.479a17.884,17.884,0,0,0,5.114-.734,51.164,51.164,0,0,0,4.978-1.768v9.086a27.549,27.549,0,0,1-11.262,2.2q-9,0-13.805-5.223t-4.8-15.1a24.087,24.087,0,0,1,2.326-10.854,16.641,16.641,0,0,1,6.692-7.2,20.209,20.209,0,0,1,10.269-2.516,28.289,28.289,0,0,1,12.323,2.8l-3.291,8.46a37.007,37.007,0,0,0-4.407-1.741A15.4,15.4,0,0,0-215.918,20.969Zm47.251,16.049q0,7.562-4.067,11.792t-11.384,4.23q-7.018,0-11.167-4.325t-4.148-11.7q0-7.535,4.067-11.711t11.411-4.176a16.269,16.269,0,0,1,8.025,1.931,13.185,13.185,0,0,1,5.372,5.536A17.875,17.875,0,0,1-168.668,37.018Zm-19.967,0a13.688,13.688,0,0,0,1.061,6.053,3.687,3.687,0,0,0,3.564,2.081,3.582,3.582,0,0,0,3.5-2.081,14.169,14.169,0,0,0,1.02-6.053,13.453,13.453,0,0,0-1.034-5.957,3.65,3.65,0,0,0-3.536-2.013,3.666,3.666,0,0,0-3.509,2A13.137,13.137,0,0,0-188.634,37.018ZM-143.152,52.5V35.685a9.644,9.644,0,0,0-.884-4.638,3.021,3.021,0,0,0-2.843-1.564,4.114,4.114,0,0,0-3.89,2.149q-1.2,2.149-1.2,7.372V52.5H-162.6V21.676h8.025l1.333,3.808h.626a8.427,8.427,0,0,1,3.768-3.264,13.314,13.314,0,0,1,5.536-1.088q5.114,0,7.957,2.965t2.843,8.351V52.5Zm41.674-9.466q0,4.951-3.373,7.481t-9.684,2.53a42.059,42.059,0,0,1-5.957-.367,25.307,25.307,0,0,1-5.168-1.347V42.812a32,32,0,0,0,5.427,1.8,22.871,22.871,0,0,0,5.264.707q3.455,0,3.455-1.578a1.785,1.785,0,0,0-.966-1.455,44.077,44.077,0,0,0-5.617-2.489,14,14,0,0,1-5.93-3.958,9.014,9.014,0,0,1-1.687-5.617,7.78,7.78,0,0,1,3.319-6.692q3.319-2.394,9.385-2.394a23.661,23.661,0,0,1,5.726.666,34.046,34.046,0,0,1,5.563,1.945l-2.883,6.855a32.4,32.4,0,0,0-4.488-1.619,14.934,14.934,0,0,0-3.863-.666q-2.611,0-2.611,1.279a1.593,1.593,0,0,0,.911,1.347,49.057,49.057,0,0,0,5.264,2.271,20.223,20.223,0,0,1,4.828,2.611,7.822,7.822,0,0,1,2.339,3.006A10.559,10.559,0,0,1-101.478,43.03Zm21,1.6a15.819,15.819,0,0,0,5.141-1.061v7.753a20.934,20.934,0,0,1-4.094,1.319,23.164,23.164,0,0,1-4.556.394q-5.359,0-7.725-2.625t-2.367-8.066v-12.7h-3.727V25.321l4.733-3.346,2.747-6.474h6.964v6.175H-75.8v7.97h-7.562v12Q-83.361,44.635-80.477,44.635Zm29.134-23.5a15.389,15.389,0,0,1,2.639.218l.6.109L-49.059,31.5a15.647,15.647,0,0,0-3.618-.326q-3.482,0-5.06,1.591a6.237,6.237,0,0,0-1.578,4.584V52.5H-69.95V21.676h7.916l1.659,4.924h.517a10.65,10.65,0,0,1,3.713-3.958A8.888,8.888,0,0,1-51.344,21.132ZM-21.856,52.5l-1.333-3.836h-.626a8.653,8.653,0,0,1-3.713,3.251,12.922,12.922,0,0,1-5.59,1.129q-5.087,0-7.916-2.951t-2.829-8.338V21.676h10.636V38.514a9.672,9.672,0,0,0,.857,4.57,2.967,2.967,0,0,0,2.815,1.551,4.1,4.1,0,0,0,3.917-2.163q1.17-2.163,1.17-7.3V21.676h10.636V52.5Zm29.406.544q-7.562,0-11.466-4.08t-3.9-11.724q0-7.671,4.216-11.887t12-4.216a22.474,22.474,0,0,1,10.092,2.339l-3.128,7.862a34.108,34.108,0,0,0-3.564-1.347,11.474,11.474,0,0,0-3.4-.5,4.6,4.6,0,0,0-4,2.013A9.791,9.791,0,0,0,2.98,37.182q0,7.4,5.468,7.4a16.542,16.542,0,0,0,8.977-2.72v8.46A17.476,17.476,0,0,1,7.55,53.041Zm30.031,0q-7.562,0-11.466-4.08t-3.9-11.724q0-7.671,4.216-11.887t12-4.216a22.474,22.474,0,0,1,10.092,2.339l-3.128,7.862a34.108,34.108,0,0,0-3.564-1.347,11.474,11.474,0,0,0-3.4-.5,4.6,4.6,0,0,0-4,2.013,9.791,9.791,0,0,0-1.415,5.685q0,7.4,5.468,7.4a16.542,16.542,0,0,0,8.977-2.72v8.46A17.476,17.476,0,0,1,37.581,53.041ZM64.267,52.5H53.631V21.676H64.267ZM53.359,14.005a4.494,4.494,0,0,1,1.333-3.564,6.444,6.444,0,0,1,4.3-1.17,6.453,6.453,0,0,1,4.325,1.2,4.461,4.461,0,0,1,1.36,3.536q0,4.679-5.685,4.679Q53.359,18.684,53.359,14.005Zm47.767,23.013q0,7.562-4.067,11.792t-11.384,4.23q-7.018,0-11.167-4.325t-4.148-11.7q0-7.535,4.067-11.711t11.411-4.176a16.269,16.269,0,0,1,8.025,1.931A13.185,13.185,0,0,1,99.235,28.6,17.875,17.875,0,0,1,101.126,37.018Zm-19.967,0a13.688,13.688,0,0,0,1.061,6.053,3.687,3.687,0,0,0,3.564,2.081,3.582,3.582,0,0,0,3.5-2.081,14.169,14.169,0,0,0,1.02-6.053,13.453,13.453,0,0,0-1.034-5.957,4.1,4.1,0,0,0-7.045-.014A13.137,13.137,0,0,0,81.159,37.018Zm-1.823-18.28v-.789q4.189-4.488,5.318-5.794t1.863-2.339H98.161v.571q-2.176,1.741-5.985,4.434t-5.767,3.917ZM126.642,52.5V35.685a9.644,9.644,0,0,0-.884-4.638,3.021,3.021,0,0,0-2.843-1.564,4.114,4.114,0,0,0-3.89,2.149q-1.2,2.149-1.2,7.372V52.5H107.192V21.676h8.025l1.333,3.808h.626a8.427,8.427,0,0,1,3.768-3.264,13.314,13.314,0,0,1,5.536-1.088q5.114,0,7.957,2.965t2.843,8.351V52.5Zm41.919.544a9.221,9.221,0,0,1-5.753-1.877A11.9,11.9,0,0,1,159,45.642a24.533,24.533,0,0,1-1.347-8.514q0-7.508,3.019-11.751a9.635,9.635,0,0,1,8.3-4.244,9.511,9.511,0,0,1,4.529,1.034,10.008,10.008,0,0,1,3.55,3.482h.218a51.1,51.1,0,0,1-.517-7.236V10.17h10.718V52.5h-8.025l-2.285-3.89h-.408A9.013,9.013,0,0,1,168.561,53.041Zm4.352-8.406a3.974,3.974,0,0,0,3.6-1.6,9.671,9.671,0,0,0,1.129-4.951v-.843q0-4.08-1.17-5.808A4.12,4.12,0,0,0,172.8,29.7a3.6,3.6,0,0,0-3.251,1.972A11.211,11.211,0,0,0,168.4,37.29a10.429,10.429,0,0,0,1.17,5.468A3.722,3.722,0,0,0,172.913,44.635Zm36.778,8.406q-7.7,0-11.955-4.094T193.478,37.29q0-7.807,3.944-11.983t11.262-4.176q6.964,0,10.759,3.632t3.795,10.459v4.733H204.223a5.275,5.275,0,0,0,1.891,4.053,7.407,7.407,0,0,0,4.856,1.469,23.446,23.446,0,0,0,5.155-.53,25.535,25.535,0,0,0,5.1-1.809v7.644a18.766,18.766,0,0,1-5.168,1.768A35.766,35.766,0,0,1,209.691,53.041Zm-.626-24.673a4.423,4.423,0,0,0-3.142,1.183,5.555,5.555,0,0,0-1.483,3.713h9.14a5.3,5.3,0,0,0-1.265-3.564A4.175,4.175,0,0,0,209.065,28.368ZM-89.4,104.993h-7.079V68.878H-89.4Zm23.907,0-1.369-3.528h-.186a10.456,10.456,0,0,1-3.679,3.122,11.889,11.889,0,0,1-4.932.87,7.976,7.976,0,0,1-5.884-2.135,8.2,8.2,0,0,1-2.147-6.081,6.848,6.848,0,0,1,2.89-6.093q2.89-1.961,8.716-2.17l4.5-.139V87.7q0-3.946-4.039-3.946a18.4,18.4,0,0,0-7.311,1.88l-2.344-4.781a21.1,21.1,0,0,1,9.934-2.344q5.222,0,8.008,2.275t2.785,6.917v17.292ZM-67.577,92.97l-2.739.093a8.771,8.771,0,0,0-4.6,1.114,3.5,3.5,0,0,0-1.509,3.11q0,2.994,3.435,2.994a5.44,5.44,0,0,0,3.934-1.416,4.973,4.973,0,0,0,1.474-3.76Zm41.013-8.611h-6.128v20.634h-7.079V84.359h-3.9V80.947l3.9-1.9v-1.9q0-4.433,2.182-6.476t6.986-2.043a18.182,18.182,0,0,1,6.522,1.091l-1.81,5.2a13.2,13.2,0,0,0-3.946-.673,2.555,2.555,0,0,0-2.182.894,3.7,3.7,0,0,0-.673,2.286v1.625h6.128Zm9.7,7.613A10.891,10.891,0,0,0-15.6,97.8a4.524,4.524,0,0,0,4.12,1.973A4.452,4.452,0,0,0-7.4,97.809a11.048,11.048,0,0,0,1.242-5.837,10.718,10.718,0,0,0-1.253-5.779,4.532,4.532,0,0,0-4.108-1.926,4.517,4.517,0,0,0-4.085,1.915A10.709,10.709,0,0,0-16.862,91.972Zm17.942,0q0,6.336-3.342,9.911t-9.307,3.574a13.02,13.02,0,0,1-6.592-1.636,10.888,10.888,0,0,1-4.387-4.7,15.794,15.794,0,0,1-1.532-7.149q0-6.36,3.319-9.888t9.331-3.528a13.094,13.094,0,0,1,6.592,1.625A10.844,10.844,0,0,1-.453,84.846,15.647,15.647,0,0,1,1.079,91.972ZM21.412,78.556a11.417,11.417,0,0,1,2.391.209L23.269,85.4a8.11,8.11,0,0,0-2.089-.232,7.507,7.507,0,0,0-5.28,1.741,6.293,6.293,0,0,0-1.892,4.874v13.207H6.928V79.044H12.29l1.044,4.364h.348a9.755,9.755,0,0,1,3.261-3.516A8.041,8.041,0,0,1,21.412,78.556Zm30.336,26.437H44.669V89.837a7.635,7.635,0,0,0-.94-4.213,3.306,3.306,0,0,0-2.959-1.4,4.286,4.286,0,0,0-3.946,2q-1.23,2-1.23,6.569v12.209H28.514V79.044h5.408l.952,3.319h.395a7.193,7.193,0,0,1,3.017-2.8,9.8,9.8,0,0,1,4.526-1.01q5.826,0,7.892,3.807h.627a7.011,7.011,0,0,1,3.075-2.808,10.256,10.256,0,0,1,4.584-1q4.41,0,6.673,2.263t2.263,7.253v16.92h-7.1V89.837a7.635,7.635,0,0,0-.94-4.213,3.306,3.306,0,0,0-2.959-1.4,4.415,4.415,0,0,0-3.888,1.857q-1.288,1.857-1.288,5.9Zm39.922,0L90.3,101.465h-.186a10.456,10.456,0,0,1-3.679,3.122,11.889,11.889,0,0,1-4.932.87,7.976,7.976,0,0,1-5.884-2.135,8.2,8.2,0,0,1-2.147-6.081,6.848,6.848,0,0,1,2.89-6.093q2.89-1.961,8.716-2.17l4.5-.139V87.7q0-3.946-4.039-3.946a18.4,18.4,0,0,0-7.311,1.88l-2.344-4.781a21.1,21.1,0,0,1,9.934-2.344q5.222,0,8.008,2.275T96.614,87.7v17.292ZM89.581,92.97l-2.739.093a8.771,8.771,0,0,0-4.6,1.114,3.5,3.5,0,0,0-1.509,3.11q0,2.994,3.435,2.994a5.44,5.44,0,0,0,3.934-1.416,4.973,4.973,0,0,0,1.474-3.76Z" transform="translate(805.112 2161.952)" fill="#206491"/><g transform="translate(79.66 463.892)"><path d="M714.648,1644.051c-5.911,0-11.576-3.355-16.873-9.99a42.6,42.6,0,0,1-6.168,3.826c-6.281,3.171-12.367,4.066-17.6,2.587-6.472-1.828-11.662-7.111-15.449-15.716-4.318,1.287-14.845,3.536-21.728-2.454-4.225-3.677-6.268-9.657-6.084-17.793-3.8-1.687-12.937-6.622-15.166-15.827-1.507-6.222.422-12.962,5.734-20.05-1.548-4.682-5.505-19.025.2-29.084,3.35-5.909,9.317-9.189,17.75-9.764a54.167,54.167,0,0,1,1.551-7.778c2.043-7.309,5.438-12.686,9.817-15.551,5.4-3.533,12.141-3.359,20.057.51a20.4,20.4,0,0,1,8-10.142c5.078-3.113,11.439-3.291,18.927-.535,2.234-3.319,7.93-10.471,16.054-11.4,6.007-.689,11.961,2.144,17.721,8.421,3.323-2.267,11.178-6.692,18.432-3.8,4.869,1.944,8.436,6.709,10.621,14.18,4.112-.773,13.254-1.64,19.019,4.275,3.675,3.771,5.262,9.474,4.732,16.981a33.413,33.413,0,0,1,4.662.3c5.6.772,9.572,2.92,11.809,6.384,2.251,3.485,2.579,8.008.982,13.471,3.3,1.52,9.147,5.058,11.005,11.611,1.481,5.221.124,11.058-4.032,17.369,1.9,3.629,5.887,12.675,2.856,19.9-2.033,4.849-6.661,7.768-13.765,8.689-1,3.647-3.921,11.768-10.733,15.8-5.054,2.988-11.092,3.076-17.971.27-1.945,4.589-7.051,14.484-15.89,17.458-5.986,2.015-12.433.475-19.191-4.574-2.755,3.89-9.455,11.871-18.346,12.4C715.272,1644.041,714.959,1644.051,714.648,1644.051Zm-16.163-16.888,1.384,1.9c5.007,6.886,10.216,10.215,15.481,9.9,9.31-.554,16.152-12.1,16.22-12.22l1.295-2.22,1.892,1.577c6.226,5.189,11.971,6.954,17.074,5.245,9.256-3.1,13.861-16.611,13.907-16.747l.821-2.46,2.139,1.022c6.449,3.09,11.905,3.364,16.217.815,6.911-4.085,8.85-14.086,8.869-14.187l.347-1.857,1.671-.142c6.285-.532,10.2-2.545,11.644-5.984,2.241-5.344-1.68-13.675-3.38-16.434l-.963-1.563,1.061-1.48c3.91-5.447,5.338-10.178,4.244-14.06-1.831-6.5-10.165-9.186-10.249-9.212l-2.463-.773,1-2.662c1.833-4.844,1.956-8.548.365-11.01-3.059-4.736-11.989-4.859-15.172-4.507l-2.861.317.437-3.219c.982-7.231-.028-12.444-3-15.494-4.728-4.851-13.888-3.551-17.019-2.641l-2.134.621-.576-2.409c-1.7-7.081-4.52-11.456-8.4-13-7.125-2.844-15.853,4.239-15.94,4.311l-1.58,1.3-1.349-1.6c-5.156-6.122-10.314-8.939-15.326-8.376-8.219.924-13.731,10.632-13.785,10.73l-.964,1.725-1.694-.7c-6.94-2.881-12.621-3.016-16.886-.4-5.294,3.245-6.658,9.662-6.671,9.726l-.636,3.117-2.531-1.421c-7.483-4.2-13.578-4.825-18.115-1.857-8.376,5.478-9.358,21.392-9.367,21.552l-.131,2.331-2.062.038c-7.891.146-13.286,2.678-16.034,7.525-1.548,2.73-3.109,7.79-1.75,16.389a51.671,51.671,0,0,0,2.419,9.449l.579,1.5-.968,1.213c-4.92,6.161-6.826,11.717-5.664,16.512.6,2.478,2.4,6.176,7.593,9.722a30.05,30.05,0,0,0,6.237,3.281l1.692.594-.125,2c-.457,7.323.979,12.488,4.267,15.35,1.9,1.656,5.553,3.477,12.131,2.743a32.678,32.678,0,0,0,7.355-1.708l1.936-.754.831,2.119c3.257,8.3,7.726,13.3,13.284,14.873,10.425,2.945,21.57-6.785,21.681-6.884Z" fill="#206491"/><path d="M655.775,1533.4a1.206,1.206,0,0,0,.393.067,1.371,1.371,0,0,0,1.281-1.074,37.907,37.907,0,0,1,1.876-5.549c1.574-3.522,3.968-6.112,6.57-7.1,3.593-1.371,7.34-.482,9.85.5a1.307,1.307,0,0,0,1.705-.936,1.575,1.575,0,0,0-.826-1.931c-4.166-1.638-8.172-1.816-11.584-.514-3.263,1.245-6.218,4.383-8.106,8.611a40.944,40.944,0,0,0-2.047,6.03A1.562,1.562,0,0,0,655.775,1533.4Z" fill="#206491"/><path d="M684.787,1514.037a1.237,1.237,0,0,0,.813-.312,10.015,10.015,0,0,1,2.681-1.674c2.949-1.242,6.647-1.093,10.99.442a1.319,1.319,0,0,0,1.678-1,1.565,1.565,0,0,0-.88-1.9c-4.923-1.739-9.2-1.87-12.722-.389a12.65,12.65,0,0,0-3.375,2.108,1.654,1.654,0,0,0-.25,2.127A1.287,1.287,0,0,0,684.787,1514.037Z" fill="#206491"/><path d="M705.532,1507.884a1.238,1.238,0,0,0,.843-.34c.151-.138.3-.277.45-.415a16.856,16.856,0,0,1,3.024-2.414,10.266,10.266,0,0,1,6.435-1.3,13.383,13.383,0,0,1,6.558,3.085,1.245,1.245,0,0,0,1.865-.382,1.648,1.648,0,0,0-.338-2.112,15.965,15.965,0,0,0-7.779-3.606,12.67,12.67,0,0,0-7.942,1.606,19.117,19.117,0,0,0-3.522,2.779l-.44.407a1.659,1.659,0,0,0-.195,2.135A1.282,1.282,0,0,0,705.532,1507.884Z" fill="#206491"/><path d="M733.92,1507.534a4.454,4.454,0,0,1,.747-.342,8.531,8.531,0,0,0,.911-.4c4.9-1.585,10.329,1.331,12.145,6.542a1.353,1.353,0,0,0,1.247.96,1.208,1.208,0,0,0,.492-.106,1.589,1.589,0,0,0,.754-1.969,13.353,13.353,0,0,0-6.344-7.488,11.56,11.56,0,0,0-9.157-.815,1.216,1.216,0,0,0-.218.1,5.849,5.849,0,0,1-.708.312,6.259,6.259,0,0,0-1.245.6,1.636,1.636,0,0,0-.462,2.082A1.256,1.256,0,0,0,733.92,1507.534Z" fill="#206491"/><path d="M755.469,1517.964c1.433-1.138,6.025-1.836,9.229.436,2.878,2.041,3.94,5.872,3.157,11.389a1.506,1.506,0,0,0,1.111,1.739,1.193,1.193,0,0,0,.214.019,1.4,1.4,0,0,0,1.321-1.277c1.208-8.513-1.715-12.553-4.381-14.443-4.132-2.93-9.884-2.178-12.189-.349a1.649,1.649,0,0,0-.328,2.114A1.244,1.244,0,0,0,755.469,1517.964Z" fill="#206491"/><path d="M773.1,1536.108a17.158,17.158,0,0,1,4.156.752,8.041,8.041,0,0,1,4.359,2.992,8.288,8.288,0,0,1,.936,6.1,1.527,1.527,0,0,0,1.036,1.8,1.2,1.2,0,0,0,.277.032,1.392,1.392,0,0,0,1.31-1.2,11.453,11.453,0,0,0-1.435-8.572,10.639,10.639,0,0,0-5.75-4.06,19.44,19.44,0,0,0-4.74-.863,1.411,1.411,0,0,0-1.412,1.431A1.46,1.46,0,0,0,773.1,1536.108Z" fill="#206491"/><path d="M786.454,1553.322a11.117,11.117,0,0,1,2.518,2.26,10.49,10.49,0,0,1,2.266,5.189,10.794,10.794,0,0,1-1.108,5.921,1.625,1.625,0,0,0,.536,2.058,1.206,1.206,0,0,0,.639.185,1.323,1.323,0,0,0,1.178-.792,14.007,14.007,0,0,0,1.408-7.8,13.693,13.693,0,0,0-6.085-9.637,1.258,1.258,0,0,0-1.833.545A1.633,1.633,0,0,0,786.454,1553.322Z" fill="#206491"/><path d="M791.806,1575.394a1.283,1.283,0,0,0-1.77-.767,1.6,1.6,0,0,0-.678,2,22.889,22.889,0,0,1,1.406,4.651,9.026,9.026,0,0,1-1.483,7.074,9.5,9.5,0,0,1-5.548,3.182,1.527,1.527,0,0,0-1.03,1.8,1.389,1.389,0,0,0,1.309,1.2,1.177,1.177,0,0,0,.281-.034,12,12,0,0,0,7-4.146,12.268,12.268,0,0,0,2.106-9.63A25.907,25.907,0,0,0,791.806,1575.394Z" fill="#206491"/><path d="M779.451,1597.172a1.286,1.286,0,0,0-1.759.8,13.837,13.837,0,0,1-2.058,3.659,12.39,12.39,0,0,1-12.589,4.65,1.359,1.359,0,0,0-1.569,1.2,1.519,1.519,0,0,0,1.062,1.777,15.224,15.224,0,0,0,3.236.352,15,15,0,0,0,11.862-5.966,16.9,16.9,0,0,0,2.519-4.481A1.6,1.6,0,0,0,779.451,1597.172Z" fill="#206491"/><path d="M755.027,1611.864a1.24,1.24,0,0,0-1.877.3,21.776,21.776,0,0,1-3.674,4.284,12.815,12.815,0,0,1-8.063,3.37,13.886,13.886,0,0,1-8.211-2.706,1.251,1.251,0,0,0-1.847.481,1.64,1.64,0,0,0,.425,2.091,16.45,16.45,0,0,0,9.378,3.172c.1,0,.207,0,.31,0a15.316,15.316,0,0,0,9.654-4.009,24.633,24.633,0,0,0,4.168-4.852A1.653,1.653,0,0,0,755.027,1611.864Z" fill="#206491"/><path d="M725.239,1619.81a23.491,23.491,0,0,1-4.144,3.5,11.2,11.2,0,0,1-8.177,1.937,15.36,15.36,0,0,1-7.624-4.493,1.234,1.234,0,0,0-1.891.142,1.662,1.662,0,0,0,.126,2.142,17.852,17.852,0,0,0,8.925,5.2,11.32,11.32,0,0,0,2.214.217,14.264,14.264,0,0,0,7.762-2.512,26.2,26.2,0,0,0,4.631-3.9,1.663,1.663,0,0,0,.072-2.145A1.233,1.233,0,0,0,725.239,1619.81Z" fill="#206491"/><path d="M695.489,1620.192a20.773,20.773,0,0,1-5.453,2.282,13.983,13.983,0,0,1-9.356-.438,15.873,15.873,0,0,1-6.451-5.922,1.24,1.24,0,0,0-1.874-.316,1.652,1.652,0,0,0-.278,2.123,18.607,18.607,0,0,0,7.6,6.932,14.458,14.458,0,0,0,6.022,1.242,19.573,19.573,0,0,0,4.935-.664,23.265,23.265,0,0,0,6.106-2.557,1.623,1.623,0,0,0,.556-2.052A1.266,1.266,0,0,0,695.489,1620.192Z" fill="#206491"/><path d="M663.284,1610.888a2.3,2.3,0,0,1-.654.044,4.123,4.123,0,0,0-1.565.206,4.079,4.079,0,0,1-.922-.089,7.416,7.416,0,0,0-1.031-.12,13.024,13.024,0,0,1-3.071-.864,6.438,6.438,0,0,0-1.005-.527c-.207-.093-.4-.181-.59-.283a9.577,9.577,0,0,1-4.094-6.244,1.732,1.732,0,0,0-.109-.35,4.3,4.3,0,0,1-.2-1.062c-.027-.241-.055-.491-.1-.743a1.357,1.357,0,0,0-1.573-1.2,1.52,1.52,0,0,0-1.057,1.781c.026.152.048.342.07.543a7.361,7.361,0,0,0,.384,1.851,12.525,12.525,0,0,0,5.36,8.065c.026.017.053.034.08.049.3.17.588.3.841.413a3.759,3.759,0,0,1,.653.336,1.306,1.306,0,0,0,.272.158,15.529,15.529,0,0,0,3.878,1.1,1.317,1.317,0,0,0,.166.011,5.106,5.106,0,0,1,.737.09,7.26,7.26,0,0,0,1.182.127,3.263,3.263,0,0,0,.726-.078,1.183,1.183,0,0,0,.235-.079,2.224,2.224,0,0,1,.707-.056,3.857,3.857,0,0,0,1.622-.238,1.583,1.583,0,0,0,.782-1.955A1.3,1.3,0,0,0,663.284,1610.888Z" fill="#206491"/><path d="M644.52,1591.949c-.247-.152-.469-.3-.684-.442-.3-.2-.621-.412-.986-.622a17.547,17.547,0,0,1-4.477-4.785,8.554,8.554,0,0,1-1.246-3.82c0-.045-.01-.089-.017-.133a11.73,11.73,0,0,1,1.945-8.594,1.658,1.658,0,0,0-.219-2.132,1.237,1.237,0,0,0-1.882.248,15.071,15.071,0,0,0-2.487,10.98,11.775,11.775,0,0,0,1.7,5.176c.016.029.034.057.052.084a20.5,20.5,0,0,0,5.273,5.595c.034.023.068.044.1.064.31.176.577.353.885.557.232.154.472.313.754.488a1.214,1.214,0,0,0,.641.186,1.326,1.326,0,0,0,1.178-.79A1.628,1.628,0,0,0,644.52,1591.949Z" fill="#206491"/><path d="M647.911,1541.093a6.128,6.128,0,0,1,1.154-.372c.205-.052.417-.106.631-.169a1.545,1.545,0,0,0,.959-1.851,1.335,1.335,0,0,0-1.634-1.087c-.171.051-.352.1-.545.146a8.067,8.067,0,0,0-1.642.554l-.427.215c-.42.213-.817.414-1.218.58a11.025,11.025,0,0,0-2.929,1.77,13.417,13.417,0,0,0-3.611,5.015c-1.437,3.382-1.906,7.6-1.392,12.553a32.011,32.011,0,0,0,1.487,7.287,1.352,1.352,0,0,0,1.247.963,1.2,1.2,0,0,0,.49-.106,1.588,1.588,0,0,0,.757-1.967,28.762,28.762,0,0,1-1.319-6.531c-.454-4.367-.068-8.028,1.145-10.882a10.411,10.411,0,0,1,2.8-3.9,8.429,8.429,0,0,1,2.249-1.354c.49-.2.948-.436,1.392-.661Z" fill="#206491"/><path d="M647.357,1582.475a1.571,1.571,0,0,0,.857,1.914,16.8,16.8,0,0,1,4.779,3.006,10.554,10.554,0,0,1,3.745,9.364,1.49,1.49,0,0,0,1.163,1.694,1.188,1.188,0,0,0,.168.012,1.41,1.41,0,0,0,1.328-1.329,13.782,13.782,0,0,0-4.8-12.174,19.138,19.138,0,0,0-5.554-3.459A1.314,1.314,0,0,0,647.357,1582.475Z" fill="#206491"/><path d="M708.475,1595.688a31.407,31.407,0,0,1,3.422,8.55,1.343,1.343,0,0,0,1.611,1.13,1.536,1.536,0,0,0,1-1.825,34.219,34.219,0,0,0-3.768-9.484c-3.167-5.317-7.355-8.27-12.223-8.666a14.411,14.411,0,0,1,4.447-13.628,22.043,22.043,0,0,1,7.054-4.454,1.56,1.56,0,0,0,.89-1.894,1.319,1.319,0,0,0-1.672-1.009,24.3,24.3,0,0,0-7.934,4.974,17.616,17.616,0,0,0-5.5,16.05c-5.926.626-10.478,4.222-13.166,10.406a29.268,29.268,0,0,0-2.256,9.145,1.462,1.462,0,0,0,1.255,1.6l.083,0a1.423,1.423,0,0,0,1.336-1.423,26.372,26.372,0,0,1,2.023-8.073c2.3-5.235,6.02-8.145,11.05-8.65.32-.032.635-.052.948-.06a1.172,1.172,0,0,0,.733.014l.026-.009C702.083,1588.547,705.659,1590.993,708.475,1595.688Z" fill="#206491"/><path d="M673.471,1537.609a1.34,1.34,0,0,0-1.62,1.114c-1.425,6.6-4.185,11.508-8.2,14.586a13.335,13.335,0,0,1-5.652,2.675,1.485,1.485,0,0,0-1.181,1.673,1.414,1.414,0,0,0,1.33,1.353,1.069,1.069,0,0,0,.148-.01,15.415,15.415,0,0,0,6.72-3.073c3.2-2.41,7.439-7.226,9.438-16.483A1.539,1.539,0,0,0,673.471,1537.609Z" fill="#206491"/><path d="M692.745,1524.263a1.567,1.567,0,0,0,.862,1.911,24.86,24.86,0,0,0,7.794,1.284c.155,0,.312,0,.469-.005.215-.005.428-.013.64-.024-1.263,4.531-1.076,8.533.563,11.92,3.238,6.691,10.931,8.338,11.257,8.405a1.221,1.221,0,0,0,.24.024,1.4,1.4,0,0,0,1.315-1.245,1.515,1.515,0,0,0-1.076-1.765c-.067-.014-6.78-1.472-9.392-6.891-1.412-2.929-1.394-6.574.052-10.839a14.273,14.273,0,0,0,9.835-7.453,1.637,1.637,0,0,0-.447-2.086,1.254,1.254,0,0,0-1.841.506c-2.219,4.124-5.963,6.281-11.128,6.412a22.762,22.762,0,0,1-7.456-1.131A1.314,1.314,0,0,0,692.745,1524.263Z" fill="#206491"/><path d="M741.071,1529.1a11.983,11.983,0,0,1-3.97-6.973,1.37,1.37,0,0,0-1.531-1.258,1.5,1.5,0,0,0-1.115,1.735,15.613,15.613,0,0,0,3.632,7.646,11.977,11.977,0,0,0-1.79,8.183c1,6.793,7.654,11.383,7.936,11.575a1.222,1.222,0,0,0,.688.216,1.314,1.314,0,0,0,1.149-.736,1.637,1.637,0,0,0-.457-2.082c-.058-.04-5.881-4.076-6.674-9.484a8.6,8.6,0,0,1,1.288-5.84,11.955,11.955,0,0,0,6.758,1.922,19.146,19.146,0,0,0,4.481-.573,1.527,1.527,0,0,0,1.031-1.8,1.349,1.349,0,0,0-1.59-1.167C746.826,1531.448,743.517,1530.99,741.071,1529.1Z" fill="#206491"/><path d="M783.12,1579.417a1.44,1.44,0,0,0-1.334-1.525c-5.825-.029-9.96,1.775-12.271,5.364-3.407,5.29-1.435,12.346-1.349,12.644a1.366,1.366,0,0,0,1.274,1.048,1.2,1.2,0,0,0,.415-.075,1.568,1.568,0,0,0,.859-1.913c-.017-.058-1.643-5.865.966-9.915,1.76-2.733,5.111-4.118,9.964-4.118h.136A1.436,1.436,0,0,0,783.12,1579.417Z" fill="#206491"/><path d="M769.756,1547.842c-.148.242-3.6,5.98-1.594,11.208,1.386,3.617,4.94,5.929,10.566,6.871a1.2,1.2,0,0,0,.2.016,1.4,1.4,0,0,0,1.324-1.3,1.5,1.5,0,0,0-1.13-1.723c-4.64-.777-7.5-2.481-8.494-5.065-1.409-3.657,1.285-8.2,1.335-8.285a1.647,1.647,0,0,0-.34-2.109A1.244,1.244,0,0,0,769.756,1547.842Z" fill="#206491"/><path d="M754.787,1585.906c-6.959-.512-12.106,1.223-15.3,5.159-4.211,5.188-3.34,12.192-3.3,12.488a1.4,1.4,0,0,0,1.323,1.292,1.258,1.258,0,0,0,.2-.016,1.5,1.5,0,0,0,1.126-1.727c-.008-.057-.73-5.851,2.623-9.983,2.619-3.227,7.045-4.634,13.154-4.185a1.408,1.408,0,0,0,1.425-1.416A1.465,1.465,0,0,0,754.787,1585.906Z" fill="#206491"/><path d="M673.152,1586.035a1.207,1.207,0,0,0,.456-.091,1.581,1.581,0,0,0,.805-1.942c-.027-.086-2.679-8.629.906-14.595,2.3-3.828,6.728-5.88,13.158-6.1a1.449,1.449,0,0,0,1.3-1.562,1.424,1.424,0,0,0-1.379-1.471c-7.346.249-12.495,2.753-15.3,7.441-4.349,7.261-1.33,16.913-1.2,17.32A1.358,1.358,0,0,0,673.152,1586.035Z" fill="#206491"/><path d="M735.347,1556.164a1.331,1.331,0,0,0-1.643-1.066,1.549,1.549,0,0,0-.943,1.861c.109.458,2.778,11.276,11.211,16.348a17.584,17.584,0,0,0,9.226,2.525,25.8,25.8,0,0,0,9.307-1.914,1.574,1.574,0,0,0,.833-1.928,1.309,1.309,0,0,0-1.7-.944c-6.326,2.456-11.84,2.319-16.387-.407C737.845,1566.2,735.371,1556.264,735.347,1556.164Z" fill="#206491"/><path d="M736.5,1574.669a1.409,1.409,0,0,0,1.421-1.42,1.464,1.464,0,0,0-1.255-1.609c-5.605-.4-9.745,1.1-12.3,4.449-3.8,4.975-2.545,12.085-2.489,12.385a1.392,1.392,0,0,0,1.31,1.208,1.236,1.236,0,0,0,.275-.032,1.527,1.527,0,0,0,1.038-1.8c-.011-.059-1.051-5.927,1.893-9.778C728.373,1575.482,731.774,1574.336,736.5,1574.669Z" fill="#206491"/><path d="M702.817,1559.817a1.279,1.279,0,0,0,.212.019,1.4,1.4,0,0,0,1.322-1.28,17.262,17.262,0,0,0-2.419-12.324c-4.664-7-13.782-8.318-14.168-8.371a1.385,1.385,0,0,0-1.489,1.324,1.489,1.489,0,0,0,1.167,1.689c.083.012,8.391,1.231,12.358,7.2a14.046,14.046,0,0,1,1.9,10.008A1.506,1.506,0,0,0,702.817,1559.817Z" fill="#206491"/></g><g transform="translate(79.66 463.892)"><path d="M738.331,1291.825a6.291,6.291,0,0,0-3.643,1.159v-18.6a5.858,5.858,0,0,0-9.045-4.92,5.862,5.862,0,0,0-11.72.216v1.838a5.858,5.858,0,0,0-9.039,4.923v2.427a5.859,5.859,0,0,0-9.04,4.923v38.274a24.4,24.4,0,0,0,10.166,19.824l-.071,12.779a1.343,1.343,0,0,0,1.343,1.35H732.29a1.343,1.343,0,0,0,1.343-1.343v-12.193a24.39,24.39,0,0,0,11.027-20.417v-23.908A6.336,6.336,0,0,0,738.331,1291.825Zm3.644,30.237a21.6,21.6,0,0,1-10.387,18.534,1.344,1.344,0,0,0-.641,1.145v11.588H708.632l.067-12.133a1.342,1.342,0,0,0-.591-1.12,21.716,21.716,0,0,1-9.578-18.014v-38.274a3.177,3.177,0,1,1,6.354,0v24.877a1.342,1.342,0,1,0,2.685,0v-32.227a3.177,3.177,0,0,1,6.354,0v32.227a1.343,1.343,0,0,0,2.686,0v-38.988a3.177,3.177,0,0,1,6.354,0v38.988a1.343,1.343,0,1,0,2.686,0v-34.284a3.177,3.177,0,1,1,6.354,0v34.284a1.342,1.342,0,1,0,2.685,0v-10.511a3.643,3.643,0,0,1,7.287,0Z" fill="#fff"/><path d="M543.756,1408.739a78.023,78.023,0,0,0-15.673-15.09,79.434,79.434,0,0,0-18.7-10.343,70.032,70.032,0,0,0-50.519,0,79.414,79.414,0,0,0-18.7,10.343,77.958,77.958,0,0,0-15.673,15.09,1.592,1.592,0,0,0-.056,1.789,84.371,84.371,0,0,0,15.647,17.23,77.163,77.163,0,0,0,18.715,11.838,62.038,62.038,0,0,0,50.657,0,77.138,77.138,0,0,0,18.714-11.838,84.36,84.36,0,0,0,15.648-17.23A1.592,1.592,0,0,0,543.756,1408.739Zm-88.673,2.847a29.038,29.038,0,1,1,29.038,29.039A29.071,29.071,0,0,1,455.083,1411.586Zm-12.873,13.806a85.806,85.806,0,0,1-14.471-15.653,79.731,79.731,0,0,1,14.4-13.595,76.205,76.205,0,0,1,17.926-9.892,68.461,68.461,0,0,1,7.757-2.451,32.2,32.2,0,0,0,.409,55.807,62.064,62.064,0,0,1-8.1-2.9A73.917,73.917,0,0,1,442.21,1425.392Zm83.823,0a73.9,73.9,0,0,1-17.918,11.314,62,62,0,0,1-8.1,2.9,32.2,32.2,0,0,0,.409-55.807,68.461,68.461,0,0,1,7.757,2.451,76.206,76.206,0,0,1,17.926,9.892,79.713,79.713,0,0,1,14.4,13.595A85.757,85.757,0,0,1,526.033,1425.392Z" fill="#fff" opacity="0.8"/><path d="M484.121,1400.122A11.675,11.675,0,1,0,495.8,1411.8,11.688,11.688,0,0,0,484.121,1400.122Z" fill="#fff" opacity="0.8"/><path d="M1003.2,1420.284c-.938-8.659-6.177-12.67-10.407-14.509a23.971,23.971,0,0,0-7.936-1.869l-10-41.56a1.212,1.212,0,1,0-2.356.567l10.444,43.408.973-.019a21.224,21.224,0,0,1,7.908,1.695c5.295,2.3,8.311,6.525,8.964,12.548.5,4.591-.58,8.119-3.2,10.488-2.915,2.635-7.755,3.976-14.385,3.988h-.082a69.253,69.253,0,0,1-11.442-1.075c.156-.355.311-.717.463-1.092,2.716-6.695,16.426-5.022,16.6-5a1.212,1.212,0,0,0,.312-2.4c-.641-.083-15.737-1.939-19.157,6.493-1.505,3.71-3.18,6.3-5.12,7.9a12.252,12.252,0,0,1-14.445,0c-1.94-1.607-3.615-4.192-5.12-7.9-3.42-8.432-18.516-6.576-19.157-6.493a1.211,1.211,0,0,0,.311,2.4,34.871,34.871,0,0,1,7.521.007c6.126.729,8.318,3.118,9.079,4.993.152.375.307.737.463,1.093a69.363,69.363,0,0,1-11.442,1.074H931.9c-6.63-.012-11.47-1.353-14.386-3.988-2.621-2.369-3.7-5.9-3.2-10.488.65-5.994,3.641-10.205,8.891-12.516a21.414,21.414,0,0,1,7.98-1.727l.974.019,10.444-43.408a1.212,1.212,0,1,0-2.356-.567l-10,41.56a23.981,23.981,0,0,0-7.936,1.869c-4.229,1.839-9.468,5.85-10.406,14.509-.586,5.407.755,9.628,3.986,12.547,3.373,3.049,8.758,4.6,16.006,4.613h.086a72.88,72.88,0,0,0,12.54-1.23c3.135,5.855,7.168,8.411,13.027,8.411s9.893-2.556,13.028-8.411a72.87,72.87,0,0,0,12.54,1.23h.086c7.247-.012,12.633-1.564,16.006-4.613C1002.444,1429.912,1003.785,1425.691,1003.2,1420.284Z" fill="#fff"/><path d="M435.855,1633.975c.013-.04.023-.08.033-.121s.019-.07.026-.106.011-.081.016-.122.009-.072.011-.108,0-.084,0-.126,0-.07,0-.1-.012-.086-.018-.128-.009-.068-.017-.1-.023-.083-.036-.124-.018-.067-.03-.1-.034-.078-.052-.117-.028-.066-.045-.1l0-.009c-.022-.04-.048-.077-.073-.115s-.028-.049-.045-.072l-.007-.011h0a88.875,88.875,0,0,0-18.964-18.343,59.589,59.589,0,0,0-20.748-9.737,42.64,42.64,0,0,0-25.039,1.582,42.652,42.652,0,0,0-25.04-1.582,59.585,59.585,0,0,0-20.747,9.737,88.875,88.875,0,0,0-18.964,18.343h0l-.008.011c-.016.023-.029.048-.045.072s-.051.075-.073.115l0,.009c-.017.033-.03.066-.045.1s-.037.077-.052.117-.02.067-.03.1-.026.082-.036.124-.011.068-.016.1-.015.085-.019.128,0,.07,0,.1,0,.084,0,.126.007.072.011.108.008.082.016.122.017.071.026.107.019.08.032.12.026.068.04.1.031.078.05.116l.011.026c.013.026.03.049.045.075s.028.054.045.081c.158.242,3.978,6.007,13.821,11.746a77.8,77.8,0,0,0,19.6,7.876q4.17,1.085,8.652,1.837a21.94,21.94,0,0,0,43.227.153q5.166-.794,9.944-1.986a80.986,80.986,0,0,0,20.253-7.87c10.13-5.739,13.96-11.513,14.118-11.756.017-.027.029-.055.045-.081s.031-.049.045-.075l.011-.026c.018-.038.034-.077.05-.117S435.844,1634.009,435.855,1633.975Zm-108.711-17.142a56.059,56.059,0,0,1,19.508-9.15,39.281,39.281,0,0,1,23.577,1.688,1.728,1.728,0,0,0,1.258,0,39.281,39.281,0,0,1,23.577-1.688,56.068,56.068,0,0,1,19.508,9.15A88.412,88.412,0,0,1,430.63,1631.7H311.085A88.426,88.426,0,0,1,327.144,1616.833Zm-5.3,26.436a48.151,48.151,0,0,1-10.632-8.109h36.6v16.983c0,.037,0,.074,0,.112A80.156,80.156,0,0,1,321.843,1643.269Zm66.389,8.874a18.5,18.5,0,0,1-18.483,18.482h0a18.5,18.5,0,0,1-18.482-18.482V1635.16h16.754v17.732a1.728,1.728,0,1,0,3.456,0V1635.16h16.755Zm3.452.289c0-.1,0-.193,0-.289V1635.16h38.79C426.037,1639.682,414.609,1648.71,391.684,1652.432Z" fill="#fff"/><path d="M1101.789,1609.97c-.663-8.37-3.244-15.987-7.267-21.449-5.479-7.439-13.491-10.938-23.17-10.12a37.37,37.37,0,0,0-17.091,5.349,28.8,28.8,0,0,0-9.231,9.435,30.527,30.527,0,0,0-4.357,12.985,1.356,1.356,0,0,0,2.709.146,28.349,28.349,0,0,1,4.028-11.822,26.1,26.1,0,0,1,8.372-8.495,34.743,34.743,0,0,1,15.8-4.9c8.813-.745,15.8,2.292,20.756,9.026,3.727,5.06,6.123,12.182,6.748,20.054.574,7.245-.39,14.588-2.646,20.146a34.869,34.869,0,0,1-10.958,14.694c-4.033,3.473-7.516,6.474-6.8,14.466a11.318,11.318,0,0,1-3.741,9.874c-3.242,2.8-8.089,3.7-13.3,2.455-5-1.194-8.307-4.481-9.828-9.771a23.672,23.672,0,0,1-.8-7.966,1.357,1.357,0,1,0-2.7-.285,26.064,26.064,0,0,0,.868,8.916c1.773,6.259,5.864,10.321,11.83,11.745a19.936,19.936,0,0,0,10.048-.039,14.725,14.725,0,0,0,5.655-3,14.143,14.143,0,0,0,4.668-12.168c-.593-6.605,1.977-8.818,5.866-12.169,3.643-3.137,8.177-7.042,11.7-15.728C1101.362,1625.414,1102.4,1617.621,1101.789,1609.97Z" fill="#fff" opacity="0.8"/><path d="M1055.706,1600.486a16.642,16.642,0,0,1,8.108-5.469,20.6,20.6,0,0,1,10.212-.8,22.132,22.132,0,0,1,9.437,4.407,1.356,1.356,0,0,0,1.666-2.141,24.846,24.846,0,0,0-10.61-4.934,23.313,23.313,0,0,0-11.563.89,19.332,19.332,0,0,0-9.408,6.4,18.874,18.874,0,0,0-3.611,10.613c-.242,5,1.178,8.361,4.339,10.271a21.956,21.956,0,0,0,2.973,1.412c1.836.762,3.57,1.481,4.494,2.969a5.755,5.755,0,0,1,.657,4.065,7.36,7.36,0,0,1-1.914,3.244c-.177.2-.358.4-.54.595a14.423,14.423,0,0,0-2.362,3.12,7.69,7.69,0,0,0-.537,5.458,11.073,11.073,0,0,0,7.458,7.375,13.5,13.5,0,0,0,7.628.171,10.4,10.4,0,0,0,3.317-1.589,8.074,8.074,0,0,0,2.189-2.367,1.356,1.356,0,1,0-2.328-1.393,5.393,5.393,0,0,1-1.462,1.57,9.774,9.774,0,0,1-8.534,1.019,8.317,8.317,0,0,1-5.643-5.472,4.982,4.982,0,0,1,.327-3.535,12.184,12.184,0,0,1,1.949-2.525c.19-.208.38-.415.566-.624a9.9,9.9,0,0,0,2.541-4.49,8.441,8.441,0,0,0-1.007-6.052c-1.383-2.23-3.708-3.194-5.759-4.045a19.74,19.74,0,0,1-2.61-1.228c-2.26-1.366-3.224-3.85-3.032-7.818A16.187,16.187,0,0,1,1055.706,1600.486Z" fill="#fff" opacity="0.8"/></g><text transform="translate(801.724 1847.017)" fill="#fff" font-size="24.818" font-family="OpenSans-Bold, Open Sans" font-weight="700"><tspan x="-33.137" y="0">Tacto</tspan></text><path d="M-18.565-17.717h3.793L-20.795,0h-4.1L-30.9-17.717h3.793l3.332,10.543Q-23.5-6.241-23.2-5t.37,1.727a31.04,31.04,0,0,1,.909-3.9Zm5.574.666q0-1.806,2.012-1.806t2.012,1.806a1.76,1.76,0,0,1-.5,1.339,2.114,2.114,0,0,1-1.509.479Q-12.991-15.233-12.991-17.05ZM-9.137,0h-3.7V-13.548h3.7ZM4.193-4.023A3.73,3.73,0,0,1,2.745-.848,7.155,7.155,0,0,1-1.587.242a13.607,13.607,0,0,1-2.521-.2A9.534,9.534,0,0,1-6.059-.545V-3.6a12.884,12.884,0,0,0,2.321.812,9.4,9.4,0,0,0,2.272.327Q.545-2.46.545-3.623a.971.971,0,0,0-.267-.709A3.865,3.865,0,0,0-.642-4.95Q-1.3-5.3-2.387-5.756a10.962,10.962,0,0,1-2.3-1.212A3.411,3.411,0,0,1-5.75-8.246a4.22,4.22,0,0,1-.333-1.775,3.218,3.218,0,0,1,1.4-2.793A6.818,6.818,0,0,1-.715-13.8a11.265,11.265,0,0,1,4.762,1.066L2.933-10.07q-1.018-.436-1.9-.715a5.974,5.974,0,0,0-1.806-.279q-1.636,0-1.636.885a1.04,1.04,0,0,0,.527.86A14.336,14.336,0,0,0,.424-8.24a10.725,10.725,0,0,1,2.327,1.2A3.548,3.548,0,0,1,3.841-5.756,3.947,3.947,0,0,1,4.193-4.023ZM12.785-2.7a8.012,8.012,0,0,0,2.327-.424V-.376a8.3,8.3,0,0,1-3.393.618A4.153,4.153,0,0,1,8.489-.879,4.879,4.879,0,0,1,7.477-4.241v-6.532H5.708v-1.563l2.036-1.236,1.066-2.86h2.363v2.884h3.793v2.775H11.173v6.532a1.443,1.443,0,0,0,.442,1.163A1.745,1.745,0,0,0,12.785-2.7ZM26.454,0l-.715-1.842h-.1a5.459,5.459,0,0,1-1.921,1.63,6.207,6.207,0,0,1-2.575.454A4.164,4.164,0,0,1,18.074-.873a4.281,4.281,0,0,1-1.121-3.175,3.575,3.575,0,0,1,1.509-3.181,8.742,8.742,0,0,1,4.55-1.133l2.351-.073v-.594a1.843,1.843,0,0,0-2.109-2.06,9.609,9.609,0,0,0-3.817.982l-1.224-2.5A11.014,11.014,0,0,1,23.4-13.827a6.461,6.461,0,0,1,4.181,1.188,4.389,4.389,0,0,1,1.454,3.611V0ZM25.363-6.277l-1.43.048a4.579,4.579,0,0,0-2.4.582,1.827,1.827,0,0,0-.788,1.624q0,1.563,1.793,1.563A2.84,2.84,0,0,0,24.594-3.2a2.6,2.6,0,0,0,.77-1.963Z" transform="translate(563.781 1939.538)" fill="#fff"/><path d="M-20.722-8.883q0,4.4-2.181,6.762A8.086,8.086,0,0,1-29.156.242a8.086,8.086,0,0,1-6.253-2.363Q-37.59-4.484-37.59-8.907t2.187-6.756A8.18,8.18,0,0,1-29.132-18a8.066,8.066,0,0,1,6.247,2.351Q-20.722-13.294-20.722-8.883Zm-12.93,0a7.4,7.4,0,0,0,1.127,4.472,3.943,3.943,0,0,0,3.369,1.5q4.5,0,4.5-5.974t-4.472-5.986a3.97,3.97,0,0,0-3.381,1.509A7.369,7.369,0,0,0-33.652-8.883ZM-13.645,0h-3.7V-18.856h3.7ZM-2.278-10.773h-3.2V0h-3.7V-10.773h-2.036v-1.781l2.036-.994v-.994a4.439,4.439,0,0,1,1.139-3.381,5.22,5.22,0,0,1,3.648-1.066,9.493,9.493,0,0,1,3.405.57l-.945,2.714a6.889,6.889,0,0,0-2.06-.351,1.334,1.334,0,0,0-1.139.467A1.93,1.93,0,0,0-5.477-14.4v.848h3.2ZM8.446,0,7.731-1.842h-.1A5.459,5.459,0,0,1,5.714-.212,6.207,6.207,0,0,1,3.139.242,4.164,4.164,0,0,1,.067-.873,4.281,4.281,0,0,1-1.054-4.047,3.575,3.575,0,0,1,.454-7.228,8.742,8.742,0,0,1,5-8.362l2.351-.073v-.594a1.843,1.843,0,0,0-2.109-2.06,9.609,9.609,0,0,0-3.817.982L.206-12.6a11.014,11.014,0,0,1,5.187-1.224,6.461,6.461,0,0,1,4.181,1.188,4.389,4.389,0,0,1,1.454,3.611V0ZM7.356-6.277l-1.43.048a4.579,4.579,0,0,0-2.4.582,1.827,1.827,0,0,0-.788,1.624q0,1.563,1.793,1.563A2.84,2.84,0,0,0,6.586-3.2a2.6,2.6,0,0,0,.77-1.963ZM20.54-2.7a8.012,8.012,0,0,0,2.327-.424V-.376a8.3,8.3,0,0,1-3.393.618A4.153,4.153,0,0,1,16.244-.879a4.879,4.879,0,0,1-1.012-3.363v-6.532H13.463v-1.563L15.5-13.572l1.066-2.86h2.363v2.884h3.793v2.775H18.929v6.532a1.443,1.443,0,0,0,.442,1.163A1.745,1.745,0,0,0,20.54-2.7Zm8.01-4.1a5.686,5.686,0,0,0,.66,3.042,2.362,2.362,0,0,0,2.151,1.03,2.324,2.324,0,0,0,2.127-1.024A5.768,5.768,0,0,0,34.137-6.8a5.6,5.6,0,0,0-.654-3.017,2.366,2.366,0,0,0-2.145-1.006,2.358,2.358,0,0,0-2.133,1A5.591,5.591,0,0,0,28.55-6.8Zm9.367,0a7.28,7.28,0,0,1-1.745,5.174A6.327,6.327,0,0,1,31.313.242a6.8,6.8,0,0,1-3.442-.854,5.685,5.685,0,0,1-2.29-2.454,8.246,8.246,0,0,1-.8-3.732,7.24,7.24,0,0,1,1.733-5.162A6.364,6.364,0,0,1,31.386-13.8a6.836,6.836,0,0,1,3.442.848,5.662,5.662,0,0,1,2.29,2.436A8.169,8.169,0,0,1,37.918-6.8Z" transform="translate(1038.216 1935.538)" fill="#fff"/><path d="M-41.287,0l-1.285-4.217H-49.03L-50.315,0h-4.047l6.253-17.789h4.593L-37.239,0Zm-2.181-7.368q-1.781-5.732-2.006-6.483t-.321-1.188q-.4,1.551-2.29,7.671ZM-25.7,0l-.5-1.733h-.194a3.9,3.9,0,0,1-1.684,1.46,5.751,5.751,0,0,1-2.484.515,4.731,4.731,0,0,1-3.6-1.278,5.144,5.144,0,0,1-1.212-3.678v-8.834h3.7v7.913a3.8,3.8,0,0,0,.521,2.2A1.9,1.9,0,0,0-29.5-2.7a2.5,2.5,0,0,0,2.242-1.036,6.426,6.426,0,0,0,.691-3.435v-6.374h3.7V0Zm11,.242A4.4,4.4,0,0,1-18.45-1.612,8.524,8.524,0,0,1-19.813-6.75a8.532,8.532,0,0,1,1.388-5.193A4.507,4.507,0,0,1-14.6-13.8a4.42,4.42,0,0,1,3.9,1.987h.121a15.11,15.11,0,0,1-.279-2.7v-4.338H-7.15V0H-9.985L-10.7-1.757h-.158A4.229,4.229,0,0,1-14.7.242ZM-13.4-2.7a2.5,2.5,0,0,0,2.078-.824,4.794,4.794,0,0,0,.721-2.8v-.4a5.54,5.54,0,0,0-.673-3.126,2.5,2.5,0,0,0-2.187-.945,2.17,2.17,0,0,0-1.921,1.048A5.592,5.592,0,0,0-16.069-6.7a5.3,5.3,0,0,0,.691,3A2.257,2.257,0,0,0-13.4-2.7ZM-3.442-17.05q0-1.806,2.012-1.806T.582-17.05a1.76,1.76,0,0,1-.5,1.339,2.114,2.114,0,0,1-1.509.479Q-3.442-15.233-3.442-17.05ZM.412,0h-3.7V-13.548h3.7ZM9.791.242Q3.466.242,3.466-6.7a7.407,7.407,0,0,1,1.721-5.277A6.455,6.455,0,0,1,10.119-13.8a9.4,9.4,0,0,1,4.217.921l-1.091,2.86q-.873-.351-1.624-.576a5.232,5.232,0,0,0-1.5-.224q-2.884,0-2.884,4.1,0,3.975,2.884,3.975a6.576,6.576,0,0,0,1.975-.285,7.132,7.132,0,0,0,1.818-.891V-.763A5.957,5.957,0,0,1,12.1.024,10.188,10.188,0,0,1,9.791.242Zm7.1-17.293q0-1.806,2.012-1.806t2.012,1.806a1.76,1.76,0,0,1-.5,1.339,2.114,2.114,0,0,1-1.509.479Q16.893-15.233,16.893-17.05ZM20.746,0h-3.7V-13.548h3.7Zm6.823-6.8a5.686,5.686,0,0,0,.66,3.042,2.362,2.362,0,0,0,2.151,1.03,2.324,2.324,0,0,0,2.127-1.024A5.768,5.768,0,0,0,33.155-6.8,5.6,5.6,0,0,0,32.5-9.816a2.366,2.366,0,0,0-2.145-1.006,2.358,2.358,0,0,0-2.133,1A5.591,5.591,0,0,0,27.569-6.8Zm9.367,0a7.28,7.28,0,0,1-1.745,5.174A6.327,6.327,0,0,1,30.332.242,6.8,6.8,0,0,1,26.89-.612,5.685,5.685,0,0,1,24.6-3.066,8.246,8.246,0,0,1,23.8-6.8a7.24,7.24,0,0,1,1.733-5.162A6.364,6.364,0,0,1,30.4-13.8a6.836,6.836,0,0,1,3.442.848,5.662,5.662,0,0,1,2.29,2.436A8.169,8.169,0,0,1,36.936-6.8Zm-8.592-8.24v-.327a34.118,34.118,0,0,0,2.848-3.648h4.144v.254q-.63.63-2.151,1.872T30.8-15.039ZM52.5,0H48.8V-7.913a3.8,3.8,0,0,0-.521-2.2,1.9,1.9,0,0,0-1.66-.733A2.5,2.5,0,0,0,44.377-9.81a6.426,6.426,0,0,0-.691,3.435V0h-3.7V-13.548h2.824l.5,1.733h.206a3.906,3.906,0,0,1,1.7-1.484,5.8,5.8,0,0,1,2.466-.5,4.738,4.738,0,0,1,3.587,1.278A5.13,5.13,0,0,1,52.5-8.834Z" transform="translate(1150.976 2164.104)" fill="#fff"/><path d="M-27.423-9.949h7.029V-.763a19.815,19.815,0,0,1-3.217.782A20.957,20.957,0,0,1-26.7.242a7.8,7.8,0,0,1-6.126-2.357q-2.115-2.357-2.115-6.768a8.926,8.926,0,0,1,2.454-6.689,9.318,9.318,0,0,1,6.8-2.4,13.165,13.165,0,0,1,5.259,1.091l-1.248,3.005a8.915,8.915,0,0,0-4.035-.969,4.984,4.984,0,0,0-3.9,1.636,6.346,6.346,0,0,0-1.466,4.4,7.065,7.065,0,0,0,1.182,4.4,4.088,4.088,0,0,0,3.435,1.521,12.152,12.152,0,0,0,2.387-.242v-3.7h-3.357ZM-6.871,0l-.5-1.733h-.194A3.9,3.9,0,0,1-9.246-.273,5.751,5.751,0,0,1-11.73.242a4.731,4.731,0,0,1-3.6-1.278,5.144,5.144,0,0,1-1.212-3.678v-8.834h3.7v7.913a3.8,3.8,0,0,0,.521,2.2,1.9,1.9,0,0,0,1.66.733A2.5,2.5,0,0,0-8.422-3.738a6.426,6.426,0,0,0,.691-3.435v-6.374h3.7V0ZM9.295-4.023A3.73,3.73,0,0,1,7.847-.848,7.155,7.155,0,0,1,3.514.242,13.607,13.607,0,0,1,.994.042,9.534,9.534,0,0,1-.957-.545V-3.6a12.884,12.884,0,0,0,2.321.812,9.4,9.4,0,0,0,2.272.327q2.012,0,2.012-1.163a.971.971,0,0,0-.267-.709,3.865,3.865,0,0,0-.921-.618Q3.805-5.3,2.714-5.756a10.962,10.962,0,0,1-2.3-1.212A3.411,3.411,0,0,1-.648-8.246a4.22,4.22,0,0,1-.333-1.775,3.218,3.218,0,0,1,1.4-2.793A6.818,6.818,0,0,1,4.387-13.8a11.265,11.265,0,0,1,4.762,1.066L8.034-10.07q-1.018-.436-1.9-.715a5.974,5.974,0,0,0-1.806-.279q-1.636,0-1.636.885a1.04,1.04,0,0,0,.527.86A14.336,14.336,0,0,0,5.526-8.24a10.725,10.725,0,0,1,2.327,1.2A3.548,3.548,0,0,1,8.943-5.756,3.947,3.947,0,0,1,9.295-4.023ZM17.886-2.7a8.012,8.012,0,0,0,2.327-.424V-.376A8.3,8.3,0,0,1,16.82.242,4.153,4.153,0,0,1,13.591-.879a4.879,4.879,0,0,1-1.012-3.363v-6.532H10.809v-1.563l2.036-1.236,1.066-2.86h2.363v2.884h3.793v2.775H16.275v6.532a1.443,1.443,0,0,0,.442,1.163A1.745,1.745,0,0,0,17.886-2.7ZM25.9-6.8a5.686,5.686,0,0,0,.66,3.042,2.362,2.362,0,0,0,2.151,1.03,2.324,2.324,0,0,0,2.127-1.024A5.768,5.768,0,0,0,31.483-6.8a5.6,5.6,0,0,0-.654-3.017,2.366,2.366,0,0,0-2.145-1.006,2.358,2.358,0,0,0-2.133,1A5.591,5.591,0,0,0,25.9-6.8Zm9.367,0a7.28,7.28,0,0,1-1.745,5.174A6.327,6.327,0,0,1,28.659.242a6.8,6.8,0,0,1-3.442-.854,5.685,5.685,0,0,1-2.29-2.454,8.246,8.246,0,0,1-.8-3.732,7.24,7.24,0,0,1,1.733-5.162A6.364,6.364,0,0,1,28.732-13.8a6.836,6.836,0,0,1,3.442.848,5.662,5.662,0,0,1,2.29,2.436A8.169,8.169,0,0,1,35.264-6.8Z" transform="translate(449.625 2169.104)" fill="#fff"/></g></svg>