<svg xmlns="http://www.w3.org/2000/svg" width="400" height="305.093" viewBox="0 0 400 305.093"><g transform="translate(-1020 -1665)"><g transform="translate(1112.926 1665)"><path d="M904.353,700.85A10.056,10.056,0,0,0,902.6,699l-2.259-2.28a.864.864,0,0,0-.735-.18.828.828,0,0,0-.75-.346,3.1,3.1,0,0,0-2.213,1.255,3.283,3.283,0,0,0,.273,4.235,6.762,6.762,0,0,0,4.378,2.235C902.693,703.924,905.308,702.565,904.353,700.85Z" transform="translate(-895.995 -649.359)" fill="#a0a0a0"/><path d="M908.134,698.866c-.352-1.239-1.513-1.977-2.517-2.663a16.642,16.642,0,0,1-3.014-2.768.617.617,0,0,0-.1-.9,3.449,3.449,0,0,0-4.082-.364,3.6,3.6,0,0,0-1.767,3.361c.248,2.681,3.289,4.613,5.432,5.77,1.189.641,2.443,1.365,3.808.883S908.578,700.427,908.134,698.866Z" transform="translate(-896.033 -649.093)" fill="#b7b7b7"/><path d="M922.345,686.1a8.826,8.826,0,0,0,5.362-4.809,12.215,12.215,0,0,0,.146-6.708,13.779,13.779,0,0,0-3-6.2,11.525,11.525,0,0,0-10.931-3.82,12.125,12.125,0,0,0-6.539,3.794,10.081,10.081,0,0,0-2.417,6.311c-.12,2.4.3,4.8.036,7.2a12.238,12.238,0,0,1-2.854,6.6c-.387.446-.74,1.164.045,1.388a2.551,2.551,0,0,0,1.952-.613c0,.024,0,.048,0,.073a16.457,16.457,0,0,0,.672,3.562c.31,1.051.715,1.894,1.984,1.657,1.4-.26,2.354-1.371,3.315-2.329,1.61-1.6,3.242-3.488,5.406-4.343C917.715,687,920.138,686.938,922.345,686.1Z" transform="translate(-896.332 -647.487)" fill="#ffdf7b"/><path d="M912.06,660.137a29.69,29.69,0,0,0-2.214-6.412c-.9-2.139-1.853-4.252-2.826-6.357-.375-.811-1.814-.25-1.476.591.849,2.115,1.712,4.221,2.626,6.308a30.014,30.014,0,0,0,3.2,6.144A.375.375,0,0,0,912.06,660.137Z" transform="translate(-896.553 -646.467)" fill="#ffdf7b"/><path d="M919.312,660.824c1.059-4.448.711-9.245.076-13.731-.16-1.133-1.862-.681-1.718.432.572,4.392.554,8.814,1.009,13.208C918.714,661.07,919.221,661.21,919.312,660.824Z" transform="translate(-897.268 -646.435)" fill="#ffdf7b"/><path d="M926.469,662.427a12.172,12.172,0,0,0,1.712-2.558c.569-.931,1.091-1.892,1.639-2.836q1.643-2.832,3.374-5.615c.6-.955-.9-1.815-1.509-.876-1.226,1.88-2.4,3.786-3.505,5.739-.537.946-1.094,1.9-1.548,2.888a10.983,10.983,0,0,0-1.113,2.858C925.447,662.539,926.151,662.726,926.469,662.427Z" transform="translate(-897.73 -646.652)" fill="#ffdf7b"/><path d="M939.365,662.179c-1.76.943-3.5,1.916-5.214,2.942-.811.486-1.607.976-2.365,1.539a9.3,9.3,0,0,0-2.069,1.73c-.21.282.134.6.414.549a9.31,9.31,0,0,0,2.377-1c.9-.437,1.767-.921,2.639-1.416q2.526-1.433,5.061-2.853A.855.855,0,0,0,939.365,662.179Z" transform="translate(-897.973 -647.354)" fill="#ffdf7b"/><path d="M943.075,672.609c-1.786.2-3.56.467-5.341.715-.88.123-1.751.282-2.628.425a13.659,13.659,0,0,0-2.782.538.458.458,0,0,0,.105.9,13.744,13.744,0,0,0,2.831-.12c.887-.064,1.769-.111,2.655-.2,1.789-.17,3.576-.326,5.36-.54C944.25,674.212,944.057,672.5,943.075,672.609Z" transform="translate(-898.11 -647.973)" fill="#ffdf7b"/><path d="M917.177,682.953c.816-.539,3.884-1.835,2.936-3.308-.451-.7-1.469-.526-2.175-.525-.333,0-.562.093-.763-.19-.188-.262-.087-.557-.03-.849a4.286,4.286,0,0,0,.142-1.226c-.064-.653-.414-1.139-1.113-1.071a10.749,10.749,0,0,0-2.754.891c-.014-1.208-.024-2.791-1.285-3.048-1.452-.3-2.523,1.039-2.987,2.231a39.844,39.844,0,0,0-1.5,5.617,36.75,36.75,0,0,0-.961,5.905.083.083,0,0,0,.162.024c.832-2.639,1.412-5.35,2.215-8a17.1,17.1,0,0,1,1.333-3.822c.375-.62,1.528-1.654,1.906-.3a11.118,11.118,0,0,1,.127,2.114.512.512,0,0,0,.629.5c.847-.258,1.692-.51,2.531-.793a2.708,2.708,0,0,1,.63-.212c.124.087.006.56-.014.665a7.619,7.619,0,0,0-.166.908,1.778,1.778,0,0,0,.536,1.549c.6.437,1.505-.046,2.166.183.561.194.151.453-.194.681-.378.253-.775.483-1.158.73q-1.149.744-2.265,1.54a22.243,22.243,0,0,0-4.068,3.564c-.133.154.034.416.227.3C913.328,685.766,915.188,684.267,917.177,682.953Z" transform="translate(-896.623 -648.03)" fill="#fff"/><path d="M909.714,698.27a1.24,1.24,0,0,0,.152-.341,1.106,1.106,0,0,0,.341-1.042,11.253,11.253,0,0,0-4.451-6.177,16.86,16.86,0,0,0-3.146-1.442,3.324,3.324,0,0,0-3.733.85c-1.924,2.04.994,4.317,2.467,5.518q1.607,1.31,3.214,2.62a4.309,4.309,0,0,0,2.944,1.268A2.952,2.952,0,0,0,909.714,698.27Z" transform="translate(-896.127 -648.938)" fill="#c6c6c6"/></g><g transform="translate(1020 1747.607)"><path d="M832.049,817.881a10.513,10.513,0,0,0-1.405-3.75,17.818,17.818,0,0,0-5.342-5.994,27.336,27.336,0,0,0-4.37-2.281c-7.228-3.2-15.827-2.035-20.552,4.855-3.994,5.824-4.188,15.016-.339,20.981a10.1,10.1,0,0,0,4.678,4.116,10.891,10.891,0,0,0,3.151.612c2.7.186,5.823-.367,7.254-2.669.9-1.455.915-3.269,1.284-4.942s1.413-3.476,3.116-3.655a7.251,7.251,0,0,1,2.7.574,8.045,8.045,0,0,0,7.061-1.288A7.288,7.288,0,0,0,832.049,817.881Z" transform="translate(-797.266 -804.159)" fill="#c6c6c6"/><path d="M819.112,816.353a3,3,0,0,0,3.055-.561,3.423,3.423,0,0,0,1.077-3.075,3.688,3.688,0,0,0-.457-1.21,4.719,4.719,0,0,0-.366-.733,3.036,3.036,0,0,0-2.911-1.555,2.5,2.5,0,0,0-.716.223,2.445,2.445,0,0,0-.9.308.346.346,0,0,0-.1.471,3.954,3.954,0,0,0-.58.88A3.863,3.863,0,0,0,819.112,816.353Z" transform="translate(-798.416 -804.455)" fill="#ffe08a"/><path d="M808.824,820.439c3.008.128,4.232-3.746,3.135-6.06a5.136,5.136,0,0,0-2.891-2.606,2.528,2.528,0,0,0-3.334,1.253.446.446,0,0,0-.025.216,2.876,2.876,0,0,0-.515.422,3.293,3.293,0,0,0-.881,2.68,3.228,3.228,0,0,0,.552,1.387,1.843,1.843,0,0,0,.5.5,2.083,2.083,0,0,0,.31.679A4.428,4.428,0,0,0,808.824,820.439Z" transform="translate(-797.679 -804.595)" fill="#e76166"/><path d="M829.291,825.085a8.042,8.042,0,0,1-7.061,1.288,7.251,7.251,0,0,0-2.7-.574c-1.7.179-2.747,1.983-3.115,3.655s-.38,3.486-1.285,4.942c-1.431,2.3-4.55,2.855-7.254,2.67a10.9,10.9,0,0,1-3.152-.613,10.1,10.1,0,0,1-4.677-4.116c-2.751-4.262-3.437-10.173-2.146-15.324a17.6,17.6,0,0,0,2.47,6.548,10.092,10.092,0,0,0,4.677,4.115,10.908,10.908,0,0,0,3.152.613c2.7.185,5.823-.368,7.254-2.669.9-1.455.915-3.269,1.285-4.941s1.412-3.476,3.115-3.656a7.237,7.237,0,0,1,2.7.575,8.046,8.046,0,0,0,7.061-1.289,7.124,7.124,0,0,0,1.213-1.2,10.02,10.02,0,0,1,1.222,3.419A7.288,7.288,0,0,1,829.291,825.085Z" transform="translate(-797.266 -804.802)" fill="#b7b7b7"/><path d="M807.357,833.407a2.893,2.893,0,0,0,2.759-1.2,1.652,1.652,0,0,0,.551-1.086,3.434,3.434,0,0,0-.123-1.542,3.662,3.662,0,0,0-2.065-2.224,4.087,4.087,0,0,0-3.156.129c-1.02.442-2.173,1.153-2.326,2.361C802.707,832.127,805.5,833.358,807.357,833.407Z" transform="translate(-797.602 -805.506)" fill="#02aaac"/><g transform="translate(4.756 4.146)"><path d="M824.8,811.267a4.155,4.155,0,0,0-2.248-2.331,2.884,2.884,0,0,0-1.985-.1.213.213,0,0,0-.122-.131,2.867,2.867,0,0,0-2.611.54,4.51,4.51,0,0,0-1.672,2.282,4.62,4.62,0,0,0,1.661,4.993,4.717,4.717,0,0,0,5.359.018A4.5,4.5,0,0,0,824.8,811.267Zm-1.865,4.372a3.8,3.8,0,0,1-4.242.374,3.678,3.678,0,0,1-1.733-3.761,3.378,3.378,0,0,1,1.268-2.055,5.2,5.2,0,0,1,1.012-.613c.122-.056.248-.1.376-.148-.025.026-.053.051-.078.079-.129.141.048.4.225.31a3.048,3.048,0,0,1,4.1,1.477A3.6,3.6,0,0,1,822.933,815.639Z" transform="translate(-803.122 -808.564)" fill="#fff"/><path d="M812.727,817.529a4.033,4.033,0,0,0,.9-3.1,7.4,7.4,0,0,0-1.232-2.981,3.56,3.56,0,0,0-2.63-1.463,3.139,3.139,0,0,0-1.52.23,3.24,3.24,0,0,0-.474.282,4.574,4.574,0,0,0-3.438,3.966,4.645,4.645,0,0,0,2.729,4.8A4.792,4.792,0,0,0,812.727,817.529Zm-7.325-2.444a3.614,3.614,0,0,1,.828-2.328,7.081,7.081,0,0,1,2.251-1.584.41.41,0,0,0,.164-.168,4.2,4.2,0,0,1,.777-.077,2.664,2.664,0,0,1,1.881.738,5.874,5.874,0,0,1,1.185,2.281,2.973,2.973,0,0,1-.215,2.555,3.9,3.9,0,0,1-4.345,1.992A3.537,3.537,0,0,1,805.4,815.085Z" transform="translate(-802.436 -808.647)" fill="#fff"/><path d="M810.12,825.675a4.158,4.158,0,0,0-2.586-1.2,3.8,3.8,0,0,0-1.134.057c-1.771-.189-3.67,1.535-4.029,3.186a3.671,3.671,0,0,0,.812,2.743,4.251,4.251,0,0,0,2.314,1.815,6.089,6.089,0,0,0,3.067.02,3.283,3.283,0,0,0,2.288-1.724A4.347,4.347,0,0,0,810.12,825.675Zm-1.244,5.661a5.226,5.226,0,0,1-2.423.243,3.191,3.191,0,0,1-2.16-1.166,3.829,3.829,0,0,1-1.018-2.18,2.931,2.931,0,0,1,1.287-2.026,12.156,12.156,0,0,1,1.358-.867,4.011,4.011,0,0,1,3.143.515,3.512,3.512,0,0,1,1.293,3.7A2.522,2.522,0,0,1,808.876,831.335Z" transform="translate(-802.32 -809.498)" fill="#fff"/></g></g><g transform="translate(1044.805 1737.518)"><path d="M834.257,804.463l-.586-.269-1.2.761a11.537,11.537,0,0,1-4.305-1.828,3.693,3.693,0,0,1-.892-1.441,41.177,41.177,0,0,1-1.014-4.573,5.183,5.183,0,0,0-2.616-3.666l-.021-.008h.014l2.454.241c.706.069,1.417.139,2.119.243a12.9,12.9,0,0,1,3,.76,6.163,6.163,0,0,1,3.65,3.524C835.46,800,834.821,802.651,834.257,804.463Z" transform="translate(-823.62 -793.438)" fill="#ffe08a"/><path d="M846.889,825.216a1.539,1.539,0,0,1-1.575-.036,11.028,11.028,0,0,1-4.724-4.781q-.251-.434-.48-.875a60.892,60.892,0,0,1-2.614-6.074q-1.135-2.931-2.272-5.861l.537-.244.544-.248c2,2.7,4.189,4.942,6.245,7.6a23.279,23.279,0,0,1,4.609,8.875A1.63,1.63,0,0,1,846.889,825.216Z" transform="translate(-824.302 -794.241)" fill="#c6c6c6"/><path d="M846.922,825.216a1.539,1.539,0,0,1-1.575-.036,11.028,11.028,0,0,1-4.724-4.781,2.9,2.9,0,0,0,.435-1.722,10.689,10.689,0,0,0-1.435-5.216c-1.019-1.789-2.233-3.468-3.3-5.234-.177-.294-.356-.588-.534-.881l.544-.248c2,2.7,4.188,4.942,6.245,7.6a23.278,23.278,0,0,1,4.609,8.875A1.63,1.63,0,0,1,846.922,825.216Z" transform="translate(-824.335 -794.241)" fill="#b7b7b7"/><path d="M828.163,803.127a3.7,3.7,0,0,1-.892-1.441,41.177,41.177,0,0,1-1.014-4.573,5.183,5.183,0,0,0-2.616-3.666l-.007-.008,2.454.241c.706.069,1.417.139,2.119.243.257.038.747.981.878,1.2a10.78,10.78,0,0,1,.659,1.394C831.833,801.462,828.921,803.826,828.163,803.127Z" transform="translate(-823.621 -793.438)" fill="#e76166"/><path d="M834.554,807.559a1.61,1.61,0,0,0,2.38-1.985,2.155,2.155,0,0,0-.636-.78,2.386,2.386,0,0,0-1.839-.555,1.583,1.583,0,0,0-1.325,1.285,2.207,2.207,0,0,0,1.185,1.918,1.624,1.624,0,0,0,1.356.339Z" transform="translate(-824.178 -794.071)" fill="#b7b7b7"/></g><g transform="translate(1107.793 1770.793)"><g transform="translate(0 9.46)"><path d="M907.7,851.871l-3.772,1.586-2.779,1.167a11.543,11.543,0,0,1-2.085-2.262,52.775,52.775,0,0,0-5.188-5.692q.983-.791,1.968-1.58l.045-.037a5.8,5.8,0,0,0,2.395-3.068C900.708,844.458,905.267,849.4,907.7,851.871Z" transform="translate(-890.736 -839.028)" fill="#f46d36"/><g transform="translate(3.136 5.747)" opacity="0.36" style="mix-blend-mode:multiply;isolation:isolate"><path d="M896.714,844.949c1.73,1.961,5.278,6.2,6.947,8.209l.262.473-2.779,1.167a11.545,11.545,0,0,1-2.085-2.262,52.775,52.775,0,0,0-5.188-5.692q.983-.791,1.968-1.58Z" transform="translate(-893.872 -844.949)" fill="#f46d36"/></g><path d="M898.031,841.769a3.561,3.561,0,0,1-1.129,3.078,5.091,5.091,0,0,1-3.169,1.7c-.587-1.606-1.31-3.188-2-4.777-.423-.972-.833-1.947-1.193-2.929,1.146.45,2.288.842,3.422,1.248A36.473,36.473,0,0,1,898.031,841.769Z" transform="translate(-890.54 -838.843)" fill="#ffdf7b"/><path d="M893.962,840.091a2.126,2.126,0,0,1-2.23,1.681c-.423-.972-.833-1.947-1.193-2.929C891.686,839.293,892.828,839.685,893.962,840.091Z" transform="translate(-890.54 -838.843)" fill="#f46d36"/></g><g transform="translate(14.167 5.518)"><path d="M913.225,854.7l-2.817-.693-2.074-.511a17.355,17.355,0,0,1-.764-2.98c-.506-2.514-1.137-5.014-1.886-7.466.553-.088,1.107-.175,1.659-.262l.039-.007a2.79,2.79,0,0,0,2.309-1.266C910.621,844.852,912.293,851.362,913.225,854.7Z" transform="translate(-905.596 -835.058)" fill="#02aaac"/><g transform="translate(0.086 7.729)" opacity="0.36" style="mix-blend-mode:multiply;isolation:isolate"><path d="M907.982,843.07c.613,2.541,1.818,7.932,2.378,10.484l.048.531-2.074-.511a17.356,17.356,0,0,1-.764-2.98c-.506-2.514-1.137-5.014-1.886-7.466.553-.088,1.107-.175,1.659-.262Z" transform="translate(-905.683 -842.867)" fill="#2d7f75"/></g><path d="M909.658,841.057a2.473,2.473,0,0,1-1.5,1.947,2.679,2.679,0,0,1-2.46-.275c.029-1.641-.034-3.335-.075-5.016-.025-1.03-.042-2.054-.025-3.058.621.982,1.253,1.913,1.877,2.851C908.231,838.646,908.973,839.8,909.658,841.057Z" transform="translate(-905.591 -834.655)" fill="#ffdf7b"/><path d="M907.475,837.506a1.094,1.094,0,0,1-1.852.207c-.025-1.03-.042-2.054-.025-3.058C906.22,835.637,906.851,836.568,907.475,837.506Z" transform="translate(-905.591 -834.655)" fill="#02aaac"/></g><g transform="translate(19.375)"><path d="M919.235,852.632l-3.805-1.114-2.8-.822a16.023,16.023,0,0,1-.441-3.5,73.05,73.05,0,0,0-1.062-8.76c.794-.039,1.59-.074,2.383-.111l.056,0a4.664,4.664,0,0,0,3.507-1.187C917.669,841.064,918.635,848.706,919.235,852.632Z" transform="translate(-911.125 -829.282)" fill="#c6c6c6"/><path d="M914.364,838.707c.32,2.979.866,9.285,1.111,12.272l-.045.613-2.8-.822a16.024,16.024,0,0,1-.441-3.5,73.054,73.054,0,0,0-1.062-8.76c.794-.039,1.59-.074,2.383-.111Z" transform="translate(-911.125 -829.357)" fill="#b7b7b7"/><path d="M917.047,836.583a3.354,3.354,0,0,1-2.518,2.057,4.252,4.252,0,0,1-3.392-.6c.39-1.875.66-3.82.958-5.75.183-1.18.376-2.355.615-3.5.663,1.2,1.353,2.332,2.028,3.478A46.4,46.4,0,0,1,917.047,836.583Z" transform="translate(-911.126 -828.792)" fill="#ffdf7b"/><path d="M914.8,832.27a1.759,1.759,0,0,1-2.643.024c.183-1.18.376-2.355.615-3.5C913.432,829.987,914.122,831.124,914.8,832.27Z" transform="translate(-911.185 -828.792)" fill="#c6c6c6"/></g><path d="M925.029,871.576c-3.256,1.782-13.428,5.133-14.364,5.491-.442.17-1.751-.568-3.761-3.419-2.25-3.187-5.385-9.022-9.179-19.194a85.536,85.536,0,0,0,19.454-6.784q.585-.277,1.179-.567S928.286,869.794,925.029,871.576Z" transform="translate(-890.962 -829.868)" fill="#ffdf7b"/><path d="M925.6,871.576c-3.256,1.782-13.428,5.133-14.364,5.491-.442.17-1.751-.568-3.761-3.419a32.662,32.662,0,0,0,6.608-3.065,13.916,13.916,0,0,0,5.486-10.2c.457-4.238.285-8.906-1.819-12.717q.585-.277,1.179-.567S928.859,869.794,925.6,871.576Z" transform="translate(-891.535 -829.868)" fill="#ffdf7b" style="mix-blend-mode:multiply;isolation:isolate"/></g><g transform="translate(1106.971 1896.337)"><path d="M896.721,975.609a84.51,84.51,0,0,1-6.252-12.706l-.4.521c1.712-.126,3.427-.207,5.143-.23s3.452.138,5.149-.04c.349-.037.5-.592.09-.669-3.314-.623-7.046-.169-10.383.114a.419.419,0,0,0-.356.62,127.159,127.159,0,0,0,6.642,12.6.21.21,0,0,0,.362-.212Z" transform="translate(-889.667 -962.174)" fill="#fff"/></g><g transform="translate(1106.604 1913.785)"><path d="M894.847,980.814a30.921,30.921,0,0,0-2.29,4.462c-.736,1.506-1.439,3.028-2.154,4.543-.394.836-1.338,2.128-1.081,3.118.251.971,1.331.966,2.135.925,5.3-.272,10.377-3.8,13.779-7.679.277-.316-.085-.881-.476-.616-3.72,2.508-6.975,5.8-11.485,6.862a12.108,12.108,0,0,1-1.818.285c-.375.03-.551.108-.806-.2-.309-.37-.018-.664.163-1.076.512-1.174,1.039-2.34,1.559-3.51a43.2,43.2,0,0,0,2.89-6.943.228.228,0,0,0-.415-.175Z" transform="translate(-889.279 -980.711)" fill="#fff"/></g><g transform="translate(1123.44 1881.906)"><path d="M907.981,958.328c1.883-3.587,3.836-7.14,5.924-10.612h-1.011a40.765,40.765,0,0,1,2.339,4.188,34.425,34.425,0,0,0,2.026,4.319c.2.3.768.219.732-.2a12.855,12.855,0,0,0-1.505-4.35,40.421,40.421,0,0,0-2.582-4.549.592.592,0,0,0-1.011,0c-2.049,3.5-3.965,7.073-5.682,10.753-.239.512.5.964.769.45Z" transform="translate(-907.165 -946.841)" fill="#fff"/></g><path d="M1070.58,945.525l23.507,81h3.824l-2.506-10.559h0l-2.56-10.787-3.644-15.355-.736.174-10.292-43.368.736-.175h0l-1.313-5.535a56.418,56.418,0,0,1-7.017,4.51v.1Z" transform="translate(206.672 935.412)" fill="#ddd6ff"/><path d="M983.8,1026.522h3.824l6.244-21.514-.727-.212,11.191-38.564.729.212,6.1-21.012a56.1,56.1,0,0,1-7.037-4.541L983.8,1026.522Z" transform="translate(211.771 935.414)" fill="#ddd6ff"/><path d="M1072.792,875.986h24.866l-6.209-12.292-17.512-8.151-1.145,20.443Z" transform="translate(206.541 940.43)" fill="#ff95a9"/><path d="M1084.629,877.154h-12.184l-1.416,28.889h-.016c0,.219.016.436.016.656q0,1.394-.136,2.752l-.21,4.272,19.805,7.051a56.038,56.038,0,0,0,4.221-8.357l.689.277a56.058,56.058,0,0,0,2.129-35.54Z" transform="translate(206.665 939.159)" fill="#ff95a9"/><path d="M1038.26,947.036a55.9,55.9,0,0,0,10.988-1.093l-.911-18.569h-26.854c-.208,0-.411-.019-.616-.031-.13-.008-.261-.007-.39-.02a10.322,10.322,0,0,1-7.01-3.763h0L1000.7,907.9l.008-.007A8.745,8.745,0,0,1,1010.055,894l-.826-16.847-25.081,0c-.384,1.424-.707,2.871-.979,4.337l.729.135a55.512,55.512,0,0,0,6.342,37.546l-.643.368a56.047,56.047,0,0,0,4.238,6.363l.59-.454a54.942,54.942,0,0,0,43.835,21.591Z" transform="translate(211.819 939.16)" fill="#ff95a9"/><path d="M1070.58,943.188a54.91,54.91,0,0,0,10.608-7.778l-10.608-3.2v10.979Z" transform="translate(206.672 935.924)" fill="#ff95a9"/><path d="M1035.234,864.506l-38.515-7.544.292-1.486,38.514,7.544-.291,1.486ZM1009.2,890.392c.122.038.247.066.368.109h0l33.531,11.938h21.918l1.417-28.889h-21.232v-.014l-6.759,0h-3.072l0-9.779,2.855.56,9.106-2.664a6.06,6.06,0,0,1,7.517,4.114c.32,1.095-6.522,6.6-6.792,7.632h18.6l.775-20.2L1080.353,859l25.674-8.441-38.555-31.323,0,0a15.075,15.075,0,0,0-8.384-3.355c-.313-.027-.628-.05-.949-.05h-10.109l-.032.547h0a9.461,9.461,0,0,1-18.907-.548h-12.405a10.57,10.57,0,0,0-1.227.076,15.065,15.065,0,0,0-9.414,4.524l0,0L971.42,856.012l.006.007a10.324,10.324,0,0,0,5.422,17.33,10.4,10.4,0,0,0,2,.19v.01H983.3l25.081,0,.826,16.847Z" transform="translate(212.67 942.763)" fill="#f7cd97"/><path d="M1021.281,917.282l.439-1.45,26.632,8.033-.438,1.45-26.633-8.033Zm55.4,15.919a54.91,54.91,0,0,1-10.608,7.778V930l10.608,3.2Zm9.295-11.4-19.805-7.051.21-4.272q.134-1.358.135-2.752c0-.22-.011-.437-.016-.656h-21.9l-33.532-11.938h0c-.121-.043-.246-.072-.368-.109a8.745,8.745,0,0,0-9.348,13.895l-.008.008L1014.1,924.59h0a10.323,10.323,0,0,0,7.01,3.763c.129.013.26.011.39.02.205.012.408.031.616.031h26.854l.911,18.569a55.9,55.9,0,0,1-10.988,1.093,54.942,54.942,0,0,1-43.835-21.591l-.59.454-.61.471a57.363,57.363,0,0,0,10.853,10.774,56.361,56.361,0,0,0,34.182,11.408,57.5,57.5,0,0,0,11.063-1.076l3.32,67.633c0,.031,0,.062,0,.093h12.793V942.708a56.38,56.38,0,0,0,12.278-9l19.185,5.787c.03.012.057.026.088.037h0l4.287-12.043h0l0-.008-14.479-5.155a57.743,57.743,0,0,0,4.167-8.31l-.717-.29-.689-.277a56.038,56.038,0,0,1-4.221,8.357Z" transform="translate(211.18 938.133)" fill="#40327a"/><path d="M1057,1023.822h-.009v7.573h19.222a1.9,1.9,0,0,0,.911-3.569l-7.342-4Z" transform="translate(207.47 930.541)" fill="#b08c80"/><path d="M1104.084,940.917l0,.01h0l8.946,3.024,7.675-22.707a2.37,2.37,0,0,0-3.853-2.5l-8.664,10.038-4.1,12.134Z" transform="translate(204.703 936.753)" fill="#b08c80"/><path d="M1050.064,925.188l-26.633-8.033-.438,1.45,26.633,8.033.438-1.45Z" transform="translate(209.468 936.809)" fill="#7760db"/><path d="M1041.628,823.214a9.467,9.467,0,0,0,10-8.9h0l.032-.547.31-5.351-.413.034a11.014,11.014,0,0,1-11.861-10.093l-1.034-12.849h0l-.091-1.129a4.13,4.13,0,1,0-3.784,4.448h0l.785,9.745-.686.055a6.873,6.873,0,0,1-1.316-.023l-.847,14.614h0c-.011.185,0,.366,0,.548a9.458,9.458,0,0,0,8.907,9.451Z" transform="translate(209.037 944.835)" fill="#ffbeaa"/><path d="M1063.637,790.2a4.166,4.166,0,0,1-8.3.735l8.3-.735Zm-29.018,6.8.686-.055-.785-9.745h0a4.13,4.13,0,1,1,3.784-4.448l.091,1.129h0l1.034,12.849a11.014,11.014,0,0,0,11.86,10.093l.413-.034,10.5-.845a5.513,5.513,0,0,0,5.024-6.2l-1.743-13.438h0l-18.027,1.452a4.587,4.587,0,0,1-4.933-4.13l-1.324-16.441a11.547,11.547,0,0,0,8.8,3.064l12.674-1.02a15.12,15.12,0,0,1,1.136,4.1l.456,3.522a9.278,9.278,0,0,0,2.6-16.822,8.255,8.255,0,0,0-6.521-6.856,5.494,5.494,0,0,0-1.871-.176l-.419.034h-.01l-6.661.537h0l-.685.056a5.5,5.5,0,0,1-8.131.077,5.505,5.505,0,0,0-5.007,4.717,13.756,13.756,0,0,0-11.753,14.714l.974,12.106h0l.441,5.456a6.9,6.9,0,0,0,7.413,6.309Z" transform="translate(209.306 946.457)" fill="#7c3f2c"/><path d="M1064.762,774.214a15.121,15.121,0,0,0-1.136-4.1l-12.674,1.02a11.546,11.546,0,0,1-8.795-3.064l1.324,16.441a4.587,4.587,0,0,0,4.933,4.13l18.026-1.452-1.224-9.457-.456-3.522Z" transform="translate(208.342 945.569)" fill="#ffbeaa"/><path d="M1053.217,876.376a6.035,6.035,0,0,0,5.855-4.525,6.048,6.048,0,0,0-7.556-7.347l-9.106,2.664-2.855-.56,0,9.778h3.072l6.759,0,3.835,0v0Z" transform="translate(208.494 939.917)" fill="#ffbeaa"/><path d="M998.771,857.951l-.292,1.487L1037,866.981l.291-1.487-38.515-7.544Z" transform="translate(210.908 940.288)" fill="#fff"/><path d="M1061.7,797.039a4.167,4.167,0,0,0,3.783-4.517l-8.3.735a4.166,4.166,0,0,0,4.516,3.782Z" transform="translate(207.459 944.133)" fill="#fff"/><path d="M1089.721,990.167ZM1079.43,946.8Z" transform="translate(206.151 935.067)" fill="none" stroke="#ddd6ff" stroke-linecap="round" stroke-linejoin="round" stroke-width="0"/><path d="M1078.648,946.962l10.292,43.369.736-.174h0l.737-.175-10.292-43.37-.737.175h0l-.736.175Z" transform="translate(206.197 935.078)" fill="#c4b8ff"/><path d="M993.73,1006.378l.727.211h0l.727.211,11.192-38.564-.726-.211-.728-.211-11.192,38.564Z" transform="translate(211.188 933.832)" fill="#c4b8ff"/><ellipse cx="168.588" cy="7.642" rx="168.588" ry="7.642" transform="translate(1082.824 1954.809)" fill="#6b6b6b" opacity="0.17" style="mix-blend-mode:multiply;isolation:isolate"/><g transform="translate(1246.519 1789.323)"><path d="M1048.82,864.031a36.377,36.377,0,0,1-9.1-9.306,11.561,11.561,0,0,1-1.641-3.214c-.289-1.007-.23-2.309.678-2.832a1.948,1.948,0,0,1,1.941.141,5.694,5.694,0,0,1,1.435,1.437q5.179,6.615,10.173,13.371Z" transform="translate(-1037.928 -848.479)" fill="#1f6884"/></g><g transform="translate(1102.96 1816.263)"><path d="M969.434,889.858l-1.07,3.042-2.854,8.121-43.534,123.827h-8.221s25.542-88.315,35.608-123.77c2.409-8.481,3.93-13.939,4-14.437Z" transform="translate(-887.073 -877.661)" fill="#ddd6ff"/><path d="M955.59,886.642l16.067,2.5-3.924,8.674c-6.58.009-12.084.024-16.147.044C953.995,891.269,955.516,887.029,955.59,886.642Z" transform="translate(-889.296 -877.661)" fill="#c4b8ff"/><path d="M1168.41,1024.848h-8.221l-43.5-123.722-3.962-11.268,2.573-.515,13.494-2.7c.074.5,1.6,5.989,4.027,14.516C1142.9,936.661,1168.41,1024.848,1168.41,1024.848Z" transform="translate(-898.765 -877.661)" fill="#ddd6ff"/><path d="M1132.824,897.92c-4.8-.006-10.233-.015-16.132-.024l-3.962-8.755,16.067-2.5C1128.872,887.031,1130.4,891.3,1132.824,897.92Z" transform="translate(-898.765 -877.661)" fill="#c4b8ff"/><path d="M1162.877,1025.017h-2.688l-43.5-123.722-3.961-11.269,2.573-.514,5.991,3.557Z" transform="translate(-898.765 -877.829)" fill="#c4b8ff"/><rect width="36.568" height="6.53" transform="translate(57.156 7.314)" fill="#cc9281"/><rect width="36.568" height="6.53" transform="translate(239.171 13.844) rotate(180)" fill="#cc9281"/><rect width="295.844" height="7.313" fill="#f4b5a2"/><rect width="295.844" height="5.647" transform="translate(0 1.666)" fill="#e7a68d"/><rect width="36.568" height="6.53" transform="translate(57.156 7.314)" fill="#cc9281" opacity="0.44" style="mix-blend-mode:multiply;isolation:isolate"/><rect width="36.568" height="6.53" transform="translate(239.171 13.844) rotate(180)" fill="#cc9281" opacity="0.44" style="mix-blend-mode:multiply;isolation:isolate"/><path d="M968.634,893.291l-2.854,8.121-43.534,123.827h-3.893L959.67,893.291Z" transform="translate(-887.343 -878.051)" fill="#c4b8ff"/></g><g transform="translate(1355.427 1782.785)"><path d="M1202.582,841.532v10.434h-42.008v-9.346Z" transform="translate(-1154.043 -841.532)" fill="#ff8155"/><path d="M1202.582,843.749V852.1h-42.008v-6.405c2.126.892,6.1,1.8,13.5,1.888C1188.5,847.758,1199.162,847.25,1202.582,843.749Z" transform="translate(-1154.043 -841.662)" fill="#f46d36" opacity="0.36" style="mix-blend-mode:multiply;isolation:isolate"/><path d="M1202.175,851.037v12.137h-48.539V852.756Z" transform="translate(-1153.635 -842.091)" fill="#ffdf7b"/><path d="M1202.174,856.575V863.5h-48.539v-6.416c1.021,1.208,3.231,2.541,8,2.541C1168.962,859.625,1191.9,860.411,1202.174,856.575Z" transform="translate(-1153.635 -842.416)" fill="#ffdf7b" style="mix-blend-mode:multiply;isolation:isolate"/><path d="M1204.542,861.652v14.292h-42.88l-.5-5.625-.585-6.521Z" transform="translate(-1154.043 -842.714)" fill="#02aaac"/><path d="M1204.579,869.243v7.147H1161.7l-.5-5.625c.044.072,1.546,2.382,8.106,2.747C1175.964,873.881,1203.205,874.6,1204.579,869.243Z" transform="translate(-1154.08 -843.161)" fill="#2d7f75" opacity="0.36" style="mix-blend-mode:multiply;isolation:isolate"/></g><g transform="translate(1324.578 1770.545)"><g transform="translate(0 4.885)"><path d="M1131.475,860.541a1.29,1.29,0,0,1-.428.074,1.248,1.248,0,0,1-1.171-.818l-2.665-7.282h0l-1.383-3.778-4.887-13.345a1.245,1.245,0,0,1,2.337-.859l5.2,14.2,1.038,2.828v0l.39,1.067.7,1.914,1.61,4.393A1.246,1.246,0,0,1,1131.475,860.541Z" transform="translate(-1120.86 -833.718)" fill="#f9c853"/></g><g transform="translate(6.769 8.887)"><path d="M1131.469,853.616l.092,1.241a1.165,1.165,0,0,1-.129.009,1.1,1.1,0,0,1-.4-.066c-.677-.225-.8-1.038-.885-1.615l-.046-.3-.161-1.067v0l-.428-2.828-1.445-9.586a1.247,1.247,0,0,1,2.466-.37c.407,2.719,1.026,6.826,1.495,9.956.262,1.731.482,3.168.59,3.9.05.3.074.486.083.523l-1.229.2Z" transform="translate(-1128.052 -837.971)" fill="#70ceeb"/></g><g transform="translate(15.84)"><path d="M1143.993,829.981l-3.068,18.451-.651,3.9-.112.68a1.242,1.242,0,0,1-1.225,1.038,1.193,1.193,0,0,1-.208-.016,1.24,1.24,0,0,1-1.021-1.433l.045-.27.649-3.9,3.139-18.862a1.244,1.244,0,1,1,2.453.411Z" transform="translate(-1137.69 -828.528)" fill="#277789"/></g><path d="M1132.5,853.574h-4.563l-.42-.12h0l-1.383-3.778h2.653l1.038,2.828-.428-2.828h2.516C1132.175,851.406,1132.4,852.843,1132.5,853.574Z" transform="translate(-1121.171 -829.771)" fill="#712e57" opacity="0.26" style="mix-blend-mode:multiply;isolation:isolate"/><path d="M1140.929,849.675l-.652,3.9h-2.52l.648-3.9Z" transform="translate(-1121.854 -829.771)" fill="#712e57" opacity="0.26" style="mix-blend-mode:multiply;isolation:isolate"/><g transform="translate(5.362 21.706)"><rect width="17.023" height="24.26" fill="#f2704f"/></g><g transform="translate(5.362 36.865)" opacity="0.42" style="mix-blend-mode:multiply;isolation:isolate"><path d="M1143.58,867.695v9.1h-17.023V868.4a14.2,14.2,0,0,0,8.511,3.01A11.38,11.38,0,0,0,1143.58,867.695Z" transform="translate(-1126.557 -867.695)" fill="#f2704f"/></g><g transform="translate(5.362 21.705)" opacity="0.24" style="mix-blend-mode:screen;isolation:isolate"><path d="M1143.58,851.589v3.771a15.04,15.04,0,0,1-8.512,2.412,17.3,17.3,0,0,1-8.511-2.168v-4.015Z" transform="translate(-1126.557 -851.589)" fill="#fff"/></g></g><path d="M1089.3,865.42l-5.309,8.3,9.326,3.432,19.5-18.828s3.064-3.974-1.317-6.849l-10.534-1.8-8.358,4.893-5.465,6.42s2.069.762,2.592,1.739A2.858,2.858,0,0,1,1089.3,865.42Z" transform="translate(205.884 940.773)" fill="#f7cd97"/><path d="M1082.776,889.256a6.033,6.033,0,0,1-7.294,1.255,6.049,6.049,0,0,1-.3-10.535l8.121-4.907,1.518-2.482,7.205,6.611-2.078,2.262h0l-4.573,4.976-2.595,2.824,0,0Z" transform="translate(206.573 939.428)" fill="#ffbeaa"/></g></svg>