<svg xmlns="http://www.w3.org/2000/svg" width="101" height="101" viewBox="0 0 101 101"><g transform="translate(-749 -3354)"><circle cx="50.5" cy="50.5" r="50.5" transform="translate(749 3354)" fill="#6dc5db"/><g transform="translate(767 3369.065)"><path d="M367.485,2538.561a5.424,5.424,0,0,1-7.67,7.671l-11.508-11.507,7.672-7.672Z" transform="translate(-303.992 -2482.739)" fill="#bf3976"/><path d="M340.537,2526.974l7.671-7.671,3.835,3.835-7.671,7.671Z" transform="translate(-300.068 -2478.824)" fill="#3090fc"/><path d="M297.376,2445.438a21.7,21.7,0,1,1-30.685,0h0A21.7,21.7,0,0,1,297.376,2445.438Z" transform="translate(-259.558 -2438.306)" fill="#f4f8fc"/><path d="M287.406,2462.607a10.257,10.257,0,1,1-16.433,10.055A18.447,18.447,0,0,1,287.406,2462.607Z" transform="translate(-264.931 -2450.187)" fill="#fce581"/><path d="M304.064,2477.276a5.526,5.526,0,0,1-3.051,4.943,5.459,5.459,0,0,1-2.483.59,5.534,5.534,0,1,1,5.534-5.534Z" transform="translate(-276.055 -2454.801)" fill="#e04a5d"/><path d="M304.076,2479.605a2.768,2.768,0,1,1-2.229-2.229,1.66,1.66,0,0,0,2.229,2.229Z" transform="translate(-278.878 -2457.625)" fill="#50dd5a"/><path d="M273.249,2476.119a21.7,21.7,0,0,1,12.062-36.792,21.7,21.7,0,1,0,0,42.9A21.6,21.6,0,0,1,273.249,2476.119Z" transform="translate(-259.555 -2438.301)" fill="#ccd3df"/><path d="M276.222,2472.662a18.464,18.464,0,0,1,13.809-9.87,10.074,10.074,0,1,0,0,19.739A18.467,18.467,0,0,1,276.222,2472.662Z" transform="translate(-264.931 -2450.187)" fill="#f9cd53"/><path d="M307.472,2477.433a.788.788,0,0,0-1.114,0l-3.279,3.279-5.394-5.393a22.473,22.473,0,1,0-1.113,1.114l5.394,5.394-3.279,3.279a.787.787,0,0,0,0,1.114l15.342,15.342a6.212,6.212,0,1,0,8.785-8.785ZM281.24,2480.9a20.911,20.911,0,1,1,14.786-6.125,20.774,20.774,0,0,1-14.786,6.125Zm25.675-1.794,2.722,2.722-6.558,6.557-2.722-2.722Zm14.787,21.344a4.637,4.637,0,0,1-6.557,0h0L304.193,2489.5l6.558-6.558,10.951,10.95a4.638,4.638,0,0,1,0,6.558Z" transform="translate(-258.765 -2437.511)" fill="#284268"/><path d="M286.6,2461.017a19.172,19.172,0,0,0-17.134,10.483.788.788,0,0,0,0,.718,19.245,19.245,0,0,0,34.269,0,.788.788,0,0,0,0-.718A19.172,19.172,0,0,0,286.6,2461.017Zm0,20.109a9.508,9.508,0,1,1,15.544-9.267,17.6,17.6,0,0,1-15.544,9.267Z" transform="translate(-264.128 -2449.384)" fill="#284268"/><path d="M303.626,2478.1a.787.787,0,0,0-.706,0,.856.856,0,0,1-.389.091.873.873,0,0,1-.873-.873.857.857,0,0,1,.092-.389.788.788,0,0,0-.347-1.058.8.8,0,0,0-.214-.072,3.552,3.552,0,1,0,2.861,2.861A.786.786,0,0,0,303.626,2478.1Zm-3.073,3.18a1.98,1.98,0,0,1-.469-3.9,2.451,2.451,0,0,0,2.393,2.392,1.984,1.984,0,0,1-1.924,1.51Z" transform="translate(-278.078 -2456.821)" fill="#284268"/><path d="M297.728,2470.15a6.285,6.285,0,1,0,.076,0Zm2.128,10.565a4.664,4.664,0,0,1-2.128.505,4.752,4.752,0,0,1-4.747-4.747,4.663,4.663,0,0,1,.507-2.13,4.746,4.746,0,1,1,6.368,6.372Z" transform="translate(-275.254 -2453.997)" fill="#284268"/></g></g></svg>