<svg xmlns="http://www.w3.org/2000/svg" width="101" height="102" viewBox="0 0 101 102"><g transform="translate(-749 -2869)"><ellipse cx="50.5" cy="51" rx="50.5" ry="51" transform="translate(749 2869)" fill="#6dc5db"/><g transform="translate(766 2886)"><path d="M723.347,2159.924l-16.99,8.777-16.99-8.777v-20.673l16.99-8.777,16.99,8.777Z" transform="translate(-672.375 -2130.474)" fill="#ffa426"/><path d="M747.068,2172.177l-16.99,8.777v-20.673l16.99-8.777Z" transform="translate(-696.097 -2142.728)" fill="#ffbc36"/><path d="M689.366,2139.251l16.99,8.777,16.99-8.777-16.99-8.777Z" transform="translate(-672.375 -2130.474)" fill="#ffe733"/><path d="M730.078,2148.027l16.99-8.777-16.99-8.777Z" transform="translate(-696.097 -2130.474)" fill="#ffda45"/><path d="M682.634,2230.49l-16.991,8.777-16.99-8.777v-20.673l16.99-8.777,16.991,8.777Z" transform="translate(-648.654 -2171.591)" fill="#a934c4"/><path d="M706.356,2242.744l-16.99,8.777v-20.673l16.99-8.777Z" transform="translate(-672.375 -2183.844)" fill="#bf4cd9"/><path d="M648.654,2209.817l16.99,8.777,16.991-8.777-16.991-8.777Z" transform="translate(-648.654 -2171.591)" fill="#de78f0"/><path d="M689.366,2218.594l16.99-8.777-16.99-8.777Z" transform="translate(-672.375 -2171.591)" fill="#d261e8"/><path d="M764.059,2230.49l-16.99,8.777-16.99-8.777v-20.673l16.99-8.777,16.99,8.777Z" transform="translate(-696.097 -2171.591)" fill="#1cadb5"/><path d="M787.78,2242.744l-16.99,8.777v-20.673l16.99-8.777Z" transform="translate(-719.818 -2183.844)" fill="#00c8c8"/><path d="M730.078,2209.817l16.99,8.777,16.99-8.777-16.99-8.777Z" transform="translate(-696.097 -2171.591)" fill="#96ebe6"/><path d="M770.79,2218.594l16.99-8.777-16.99-8.777Z" transform="translate(-719.818 -2171.591)" fill="#64e1dc"/></g></g></svg>