<svg xmlns="http://www.w3.org/2000/svg" width="101" height="101" viewBox="0 0 101 101"><g transform="translate(-749 -3031)"><circle cx="50.5" cy="50.5" r="50.5" transform="translate(749 3031)" fill="#6dc5db"/><g transform="translate(763 3050)"><path d="M1056.332,2106.757a21.237,21.237,0,0,0-21.174,22.873l.438,5.675a1.426,1.426,0,0,1-.211.863l-1.168,1.88a16.177,16.177,0,0,0-2.437,8.539.789.789,0,0,0,.789.789h3.591l1.629,9.469a3.38,3.38,0,0,0,3.318,2.807l9.574.038a2.767,2.767,0,0,1,2.756,2.767v5.8a2.185,2.185,0,0,0,2.2,2.185l6.694-.025,1.35-.925h9.353l.448.884h.037l-.01-19.864,4.424-14.707a22.555,22.555,0,0,0-21.6-29.052Z" transform="translate(-1031.78 -2106.731)" fill="#fd85cb"/><path d="M1059.306,2171.637v-6.716a6.237,6.237,0,0,0-6.212-6.237l-6.117-.024a3.38,3.38,0,0,1-3.318-2.807l-1.248-7.252a2.67,2.67,0,0,0-2.632-2.218h-1.34a.789.789,0,0,1-.79-.79,16.178,16.178,0,0,1,2.438-8.539l1.168-1.88a1.424,1.424,0,0,0,.211-.863l-.438-5.674a21.175,21.175,0,0,1,6.457-16.948,21.244,21.244,0,0,0-12.326,20.95l.438,5.675a1.425,1.425,0,0,1-.211.863l-1.168,1.88a16.177,16.177,0,0,0-2.437,8.54.789.789,0,0,0,.789.789h3.591l1.629,9.469a3.381,3.381,0,0,0,3.318,2.807l9.574.037a2.767,2.767,0,0,1,2.756,2.767v5.8a2.185,2.185,0,0,0,2.2,2.185l4.609-.028a2.181,2.181,0,0,1-.938-1.792Z" transform="translate(-1031.78 -2109.743)" fill="#fe60c1"/><path d="M1141,2137.981l-1.168-1.88a1.425,1.425,0,0,1-.211-.863l.438-5.674a21.238,21.238,0,0,0-21.174-22.874,22.555,22.555,0,0,0-21.6,29.052l4.424,14.707,0,19.915h.016l1.528-1.549h8.811l.815,1.558,6.7.006a2.185,2.185,0,0,0,2.2-2.185v-5.8a2.767,2.767,0,0,1,2.756-2.767l9.574-.037a3.38,3.38,0,0,0,3.318-2.807l1.629-9.469h3.591a.789.789,0,0,0,.789-.79,16.183,16.183,0,0,0-2.438-8.54Z" transform="translate(-1071.168 -2106.691)" fill="#87fcf3"/><path d="M1112.89,2155.551l4.424-14.707a22.69,22.69,0,0,0-10.027-25.951,22.672,22.672,0,0,0-9.99,25.951l4.424,14.707v19.836l5.584.02,5.584-.026v-19.829Z" transform="translate(-1071.172 -2111.697)" fill="#2fa3ff"/><path d="M1070.972,2196.97l6.75-5.657a.719.719,0,0,1,1.181.551v2.931h10.19a.74.74,0,0,1,.74.74v3.972a.74.74,0,0,1-.74.74H1078.9v2.931a.719.719,0,0,1-1.181.551l-6.75-5.657a.719.719,0,0,1,0-1.1Z" transform="translate(-1055.543 -2158.234)" fill="#4efbf0"/><path d="M1157.535,2144.485l-6.75-5.657a.719.719,0,0,0-1.181.552v2.931h-10.19a.74.74,0,0,0-.74.74v3.972a.74.74,0,0,0,.74.74h10.19v2.931a.719.719,0,0,0,1.181.551l6.75-5.657A.719.719,0,0,0,1157.535,2144.485Z" transform="translate(-1097.02 -2126.201)" fill="#fe60c1"/></g></g></svg>