<svg xmlns="http://www.w3.org/2000/svg" width="338.851" height="180.463" viewBox="0 0 338.851 180.463"><g transform="translate(-210.567 -5650.1)"><text transform="translate(221.965 5705.438)" fill="#fff" font-size="11" font-family="OpenSans-Bold, Open Sans" font-weight="700"><tspan x="9.203" y="12">Recta</tspan></text><g transform="translate(221.579 5657.612)"><path d="M237.262,2458.157h-6.123a.765.765,0,0,0-.765.765v2.3H217.361v-2.3a.765.765,0,0,0-.765-.765h-6.124a.765.765,0,0,0-.765.765v2.3H196.695v-2.3a.765.765,0,0,0-.766-.765h-6.123a.765.765,0,0,0-.766.765v6.124a.766.766,0,0,0,.766.765h6.123a.766.766,0,0,0,.766-.765v-2.3s11.372.087,13.012.01v2.286a.765.765,0,0,0,.765.765H216.6a.765.765,0,0,0,.765-.765v-2.286c1.637.076,13.013-.01,13.013-.01v2.3a.765.765,0,0,0,.765.765h6.123a.766.766,0,0,0,.766-.765v-6.124A.765.765,0,0,0,237.262,2458.157Zm-42.1,6.123h-4.593v-4.592h4.593Zm20.666,0h-4.592v-4.592h4.592Zm20.667,0H231.9v-4.592H236.5Z" transform="translate(-189.04 -2458.157)" fill="#fff"/><g transform="translate(11.481 9.213)"><path d="M235.222,2496.2l-12.247-21.432a.806.806,0,0,0-.226-.226.8.8,0,0,0-1.1.226L209.4,2496.2a.789.789,0,0,0-.052.11.765.765,0,0,0,.446.986c.054.02,4.919,1.9,5.559,5.407h-2.227v1.531h2.3v9.951h1.531v-5.358h10.716v5.358H229.2v-9.951h2.3v-1.531h-2.226c.64-3.51,5.5-5.387,5.558-5.407a.787.787,0,0,0,.11-.052A.766.766,0,0,0,235.222,2496.2Zm-12.911-6.509a1.531,1.531,0,1,1-1.531,1.531A1.531,1.531,0,0,1,222.311,2489.693Zm5.358,17.6H216.952v-3.062h10.716Zm.049-4.593H216.9c-.464-3.567-4.09-5.689-5.752-6.483l10.394-18.189v10.226a3.062,3.062,0,1,0,1.531,0v-10.226l10.394,18.189C231.807,2497.016,228.182,2499.138,227.717,2502.705Z" transform="translate(-209.298 -2474.413)" fill="#fff"/></g></g><rect width="68.01" height="70.671" rx="14.087" transform="translate(212.067 5651.6)" fill="none" stroke="#fff" stroke-miterlimit="10" stroke-width="3"/><text transform="translate(311.092 5705.438)" fill="#fff" font-size="11" font-family="OpenSans-Bold, Open Sans" font-weight="700"><tspan x="8.553" y="12">Curva</tspan></text><g transform="translate(313.768 5657.612)"><path d="M376.962,2461.219v-2.3a.765.765,0,0,0-.766-.765h-6.123a.765.765,0,0,0-.766.765v2.3a27.293,27.293,0,0,0-6.313,1.531,13.107,13.107,0,0,0-3.565,2.431c-2.953,2.8-4.515,6.874-4.653,12.112h-2.308a.766.766,0,0,0-.765.766v6.123a.766.766,0,0,0,.765.766h6.124a.765.765,0,0,0,.765-.766v-6.123a.765.765,0,0,0-.765-.766h-2.285c.133-4.79,1.531-8.485,4.162-10.988a14.077,14.077,0,0,1,8.838-3.544v2.286a.766.766,0,0,0,.766.765H376.2a.766.766,0,0,0,.766-.765v-2.286a14.07,14.07,0,0,1,8.839,3.543c2.63,2.5,4.028,6.2,4.162,10.989h-2.285a.766.766,0,0,0-.765.766v6.123a.766.766,0,0,0,.765.766H393.8a.765.765,0,0,0,.765-.766v-6.123a.765.765,0,0,0-.765-.766h-2.307c-.138-5.239-1.7-9.311-4.651-12.113a14.285,14.285,0,0,0-3.564-2.43A19.846,19.846,0,0,0,376.962,2461.219Zm-19.136,17.6v4.593h-4.592v-4.593Zm17.605-14.543h-4.593v-4.592h4.593Zm17.6,14.543v4.593h-4.592v-4.593Z" transform="translate(-351.703 -2458.157)" fill="#fff"/><g transform="translate(8.42 9.213)"><path d="M392.482,2496.2l-12.247-21.432a.8.8,0,0,0-.226-.226.8.8,0,0,0-1.1.226L366.66,2496.2a.786.786,0,0,0-.052.11.765.765,0,0,0,.446.986c.053.02,4.918,1.9,5.558,5.407h-2.226v1.531h2.3v9.951h1.531v-5.358h10.716v5.358h1.531v-9.951h2.3v-1.531H386.53c.64-3.51,5.5-5.387,5.559-5.407a.781.781,0,0,0,.109-.052A.765.765,0,0,0,392.482,2496.2Zm-12.911-6.509a1.531,1.531,0,1,1-1.531,1.531A1.531,1.531,0,0,1,379.571,2489.693Zm5.358,17.6H374.213v-3.062h10.716Zm.049-4.593H374.164c-.465-3.567-4.09-5.689-5.752-6.483l10.394-18.189v10.226a3.061,3.061,0,1,0,1.531,0v-10.226l10.394,18.189C389.067,2497.016,385.443,2499.138,384.978,2502.705Z" transform="translate(-366.559 -2474.413)" fill="#fff"/></g></g><rect width="68.01" height="70.671" rx="14.087" transform="translate(301.194 5651.6)" fill="none" stroke="#fff" stroke-miterlimit="10" stroke-width="3"/><text transform="translate(400.244 5705.438)" fill="#fff" font-size="11" font-family="OpenSans-Bold, Open Sans" font-weight="700"><tspan x="0.956" y="12">Poligona</tspan></text><rect width="68.01" height="70.671" rx="14.087" transform="translate(390.348 5651.6)" fill="none" stroke="#fff" stroke-miterlimit="10" stroke-width="3"/><text transform="translate(489.805 5705.438)" fill="#fff" font-size="11" font-family="OpenSans-Bold, Open Sans" font-weight="700"><tspan x="8.868" y="12">Mixta</tspan></text><g transform="translate(507 5664.38)"><path d="M714.922,2472.8v-2.024a.675.675,0,0,0-.675-.675h-5.4a.675.675,0,0,0-.675.675v2.024a24.067,24.067,0,0,0-5.566,1.35,11.54,11.54,0,0,0-3.144,2.144c-2.6,2.47-3.982,6.061-4.1,10.679h-2.035a.675.675,0,0,0-.674.675v5.4a.675.675,0,0,0,.674.675h5.4a.675.675,0,0,0,.675-.675v-5.4a.675.675,0,0,0-.675-.675H696.71c.117-4.224,1.35-7.482,3.67-9.688a12.413,12.413,0,0,1,7.793-3.125v2.015a.675.675,0,0,0,.675.675h5.4a.675.675,0,0,0,.675-.675v-2.015a12.4,12.4,0,0,1,7.793,3.125c2.32,2.208,3.552,5.465,3.67,9.689H724.37a.675.675,0,0,0-.675.675v5.4a.675.675,0,0,0,.675.675h5.4a.675.675,0,0,0,.674-.675v-5.4a.675.675,0,0,0-.674-.675h-2.035c-.121-4.619-1.5-8.21-4.1-10.68a12.563,12.563,0,0,0-3.143-2.143A17.5,17.5,0,0,0,714.922,2472.8Zm-16.873,15.523v4.049H694v-4.049Zm15.523-12.823h-4.049v-4.049h4.049Zm15.523,12.823v4.049h-4.049v-4.049Z" transform="translate(-692.65 -2470.098)" fill="#fff"/></g><g transform="translate(484.968 5681.31)"><path d="M656.464,2499.97H654.45a.675.675,0,0,0-.675.675v5.4a.675.675,0,0,0,.675.675h5.4a.675.675,0,0,0,.675-.675v-5.4a.675.675,0,0,0-.675-.675h-3.385Zm2.71,1.35v4.05h-4.049v-4.05Z" transform="translate(-653.775 -2499.97)" fill="#fff"/></g><rect width="68.01" height="70.671" rx="14.087" transform="translate(479.908 5651.6)" fill="none" stroke="#fff" stroke-miterlimit="10" stroke-width="3"/><text transform="translate(266.745 5808.563)" fill="#fff" font-size="11" font-family="OpenSans-Bold, Open Sans" font-weight="700"><tspan x="3.642" y="12">Oblicua</tspan></text><g transform="translate(266.384 5759.552)"><g transform="translate(0 0)"><path d="M310.714,2638.323l-5.463,5.656a.983.983,0,0,0,.024,1.39l2.121,2.049-11.609,12.019-2.121-2.049a.983.983,0,0,0-1.39.024l-5.463,5.656a.985.985,0,0,0,.024,1.391l2.121,2.049-11.61,12.019-2.121-2.048a.982.982,0,0,0-1.39.024l-5.463,5.656a.982.982,0,0,0,.024,1.39l5.656,5.464a.983.983,0,0,0,1.39-.024l5.464-5.656a.983.983,0,0,0-.024-1.39l-2.121-2.049s10.228-10.427,11.62-12.01l2.111,2.039a.983.983,0,0,0,1.39-.024l5.463-5.656a.982.982,0,0,0-.024-1.39l-2.112-2.04c1.531-1.444,11.6-12.028,11.6-12.028l2.121,2.049a.983.983,0,0,0,1.39-.024l5.463-5.656a.983.983,0,0,0-.024-1.39L312.1,2638.3A.983.983,0,0,0,310.714,2638.323Zm-31.9,44.348-4.1,4.242-4.242-4.1,4.1-4.242Zm18.439-19.089-4.1,4.242-4.242-4.1,4.1-4.242Zm18.439-19.09-4.1,4.242-4.242-4.1,4.1-4.242Z" transform="translate(-268.097 -2638.022)" fill="#fff"/></g></g><rect width="68.01" height="70.671" rx="14.087" transform="translate(256.848 5753.725)" fill="none" stroke="#fff" stroke-miterlimit="10" stroke-width="3"/><text transform="translate(355.872 5808.563)" fill="#fff" font-size="11" font-family="OpenSans-Bold, Open Sans" font-weight="700"><tspan x="4.211" y="12">Abierta</tspan></text><g transform="translate(352.844 5763.202)"><g transform="translate(23.622 0)"><path d="M484.75,2671.492l1.119,1.448a.61.61,0,0,0,.856.11l3.863-2.983a.61.61,0,0,0,.11-.856l-1.118-1.449a21.756,21.756,0,0,0,3.237-4.041,10.439,10.439,0,0,0,1.065-3.271c.5-3.206-.5-6.536-2.964-9.908l1.455-1.124a.61.61,0,0,0,.11-.856L489.5,2644.7a.611.611,0,0,0-.856-.11l-3.864,2.983a.61.61,0,0,0-.11.856l2.983,3.863a.61.61,0,0,0,.856.111l1.441-1.113c2.249,3.088,3.167,6.1,2.727,8.96a11.218,11.218,0,0,1-3.85,6.541l-1.114-1.442a.609.609,0,0,0-.855-.11L483,2668.222a.61.61,0,0,0-.11.856L484,2670.52a11.215,11.215,0,0,1-7.3,2.07c-2.879-.3-5.561-1.949-7.979-4.906l1.441-1.113a.61.61,0,0,0,.11-.856l-2.983-3.863a.609.609,0,0,0-.856-.11l-3.863,2.982a.61.61,0,0,0-.11.856l2.982,3.864a.61.61,0,0,0,.856.11l1.456-1.124c2.639,3.238,5.608,5.046,8.834,5.377a11.377,11.377,0,0,0,3.433-.2A15.817,15.817,0,0,0,484.75,2671.492Zm3.5-20.428-2.237-2.9,2.9-2.237,2.237,2.9Zm-4.023,17.75,2.9-2.237,2.237,2.9-2.9,2.237Zm-18.191-.6-2.237-2.9,2.9-2.237,2.237,2.9Z" transform="translate(-462.33 -2644.464)" fill="#fff"/></g><g transform="translate(0 12.955)"><path d="M425.079,2673.421l-1.118-1.449a.609.609,0,0,1,.11-.856l3.863-2.983a.61.61,0,0,1,.856.111l1.119,1.449a21.75,21.75,0,0,1,4.728-2.11,10.435,10.435,0,0,1,3.434-.2c3.227.329,6.2,2.137,8.836,5.375l1.456-1.124a.611.611,0,0,1,.856.11l2.982,3.864a.61.61,0,0,1-.11.856l-3.863,2.983a.61.61,0,0,1-.856-.11l-2.983-3.863a.61.61,0,0,1,.11-.856l1.441-1.112c-2.418-2.958-5.1-4.608-7.978-4.905a11.215,11.215,0,0,0-7.3,2.069l1.113,1.442a.61.61,0,0,1-.11.856l-3.864,2.983a.61.61,0,0,1-.855-.11l-1.114-1.442a11.21,11.21,0,0,0-3.85,6.541c-.44,2.861.477,5.873,2.727,8.961l1.441-1.113a.61.61,0,0,1,.856.11l2.983,3.864a.611.611,0,0,1-.11.856l-3.864,2.982a.61.61,0,0,1-.856-.11l-2.982-3.863a.609.609,0,0,1,.11-.856l1.455-1.124c-2.465-3.372-3.463-6.7-2.966-9.907a11.382,11.382,0,0,1,1.065-3.27A15.821,15.821,0,0,1,425.079,2673.421Zm20.648,1.786,2.237,2.9,2.9-2.237-2.237-2.9Zm-18.191-.6,2.9-2.237-2.237-2.9-2.9,2.237Zm-4.023,17.751,2.237,2.9,2.9-2.237-2.237-2.9Z" transform="translate(-420.651 -2667.323)" fill="#fff"/></g></g><rect width="68.01" height="70.671" rx="14.087" transform="translate(345.975 5753.725)" fill="none" stroke="#fff" stroke-miterlimit="10" stroke-width="3"/><text transform="translate(445.024 5808.563)" fill="#fff" font-size="11" font-family="OpenSans-Bold, Open Sans" font-weight="700"><tspan x="2.857" y="12">Cerrada</tspan></text><g transform="translate(447.7 5759.737)"><path d="M613.278,2641.412v-2.3a.765.765,0,0,0-.765-.766h-6.124a.766.766,0,0,0-.765.766v2.3a27.278,27.278,0,0,0-6.313,1.531,13.1,13.1,0,0,0-3.565,2.431c-2.953,2.8-4.516,6.874-4.654,12.112h-2.307a.766.766,0,0,0-.766.766v6.123a.766.766,0,0,0,.766.766h6.123a.766.766,0,0,0,.766-.766v-6.123a.766.766,0,0,0-.766-.766h-2.285c.134-4.791,1.532-8.485,4.162-10.988a14.078,14.078,0,0,1,8.839-3.545v2.286a.766.766,0,0,0,.765.766h6.124a.765.765,0,0,0,.765-.766v-2.286a14.072,14.072,0,0,1,8.839,3.543c2.631,2.5,4.029,6.2,4.162,10.989h-2.285a.766.766,0,0,0-.766.766v6.123a.766.766,0,0,0,.766.766h6.123a.766.766,0,0,0,.766-.766v-6.123a.766.766,0,0,0-.766-.766H627.81c-.138-5.238-1.7-9.311-4.65-12.113a14.272,14.272,0,0,0-3.565-2.43A19.824,19.824,0,0,0,613.278,2641.412Zm-19.135,17.6v4.593H589.55v-4.593Zm17.6-14.543h-4.592v-4.593h4.592Zm17.6,14.543v4.593h-4.593v-4.593Z" transform="translate(-588.019 -2638.35)" fill="#fff"/><g transform="translate(0 19.138)"><path d="M613.278,2695.846v2.3a.765.765,0,0,1-.765.766h-6.124a.766.766,0,0,1-.765-.766v-2.3a27.314,27.314,0,0,1-6.313-1.531,13.1,13.1,0,0,1-3.565-2.431c-2.953-2.8-4.516-6.874-4.654-12.112h-2.307a.765.765,0,0,1-.766-.765v-6.124a.765.765,0,0,1,.766-.765h6.123a.765.765,0,0,1,.766.765v6.124a.765.765,0,0,1-.766.765h-2.285c.134,4.791,1.532,8.486,4.162,10.989a14.076,14.076,0,0,0,8.839,3.544v-2.286a.766.766,0,0,1,.765-.766h6.124a.765.765,0,0,1,.765.766v2.286a14.067,14.067,0,0,0,8.839-3.543c2.631-2.5,4.029-6.2,4.162-10.989h-2.285a.765.765,0,0,1-.766-.765v-6.124a.765.765,0,0,1,.766-.765h6.123a.765.765,0,0,1,.766.765v6.124a.765.765,0,0,1-.766.765H627.81c-.138,5.239-1.7,9.311-4.65,12.113a14.291,14.291,0,0,1-3.565,2.43A19.843,19.843,0,0,1,613.278,2695.846Zm-19.135-17.6v-4.592H589.55v4.592Zm17.6,14.543h-4.592v4.593h4.592Zm17.6-14.543v-4.592h-4.593v4.592Z" transform="translate(-588.019 -2672.118)" fill="#fff"/></g></g><rect width="68.01" height="70.671" rx="14.087" transform="translate(435.128 5753.725)" fill="none" stroke="#fff" stroke-miterlimit="10" stroke-width="3"/><path d="M550.952,2481.553h-.894l-6.349-10.91h.878a1.364,1.364,0,0,0,1.364-1.364v-5.455a1.363,1.363,0,0,0-1.364-1.364h-5.455a1.364,1.364,0,0,0-1.364,1.364v1.48H520.223v-1.48a1.364,1.364,0,0,0-1.364-1.364H513.4a1.364,1.364,0,0,0-1.364,1.364v5.455a1.364,1.364,0,0,0,1.364,1.364h.722l-6.3,10.91h-.787a1.364,1.364,0,0,0-1.364,1.364v5.454a1.363,1.363,0,0,0,1.364,1.364h.787l6.4,11.091H513.4a1.364,1.364,0,0,0-1.364,1.364v5.455a1.363,1.363,0,0,0,1.364,1.363h5.455a1.363,1.363,0,0,0,1.364-1.363v-1.663h17.546v1.663a1.363,1.363,0,0,0,1.364,1.363h5.455a1.363,1.363,0,0,0,1.364-1.363v-5.455a1.364,1.364,0,0,0-1.364-1.364h-.918l6.4-11.091h.878a1.363,1.363,0,0,0,1.364-1.364v-5.454A1.363,1.363,0,0,0,550.952,2481.553Zm-1.364,2.727v2.728h-2.727v-2.728Zm-9.091-19.092h2.727v2.727H540.5Zm-25.729,0H517.5v2.727h-2.727Zm-6.364,21.819v-2.728h2.727v2.728Zm9.091,19.274h-2.727v-2.727H517.5Zm25.729,0H540.5v-2.727h2.727Zm-2.7-5.455h-1.388a1.364,1.364,0,0,0-1.364,1.364v1.064H520.223v-1.064a1.364,1.364,0,0,0-1.364-1.364h-1.479l-6.4-11.091H512.5a1.364,1.364,0,0,0,1.364-1.364v-5.454a1.364,1.364,0,0,0-1.364-1.364h-1.518l6.3-10.91h1.584a1.364,1.364,0,0,0,1.364-1.364v-1.247h17.546v1.247a1.364,1.364,0,0,0,1.364,1.364h1.421l6.349,10.91H545.5a1.364,1.364,0,0,0-1.364,1.364v5.454a1.364,1.364,0,0,0,1.364,1.364h1.428Z" transform="translate(-104.644 3197.591)" fill="#fff"/><rect width="15.987" height="1.488" transform="translate(491.241 5683.889)" fill="#fff"/></g></svg>