<svg xmlns="http://www.w3.org/2000/svg" width="101" height="101" viewBox="0 0 101 101"><g transform="translate(-749 -3193)"><circle cx="50.5" cy="50.5" r="50.5" transform="translate(749 3193)" fill="#6dc5db"/><path d="M684.1,2477.075c2.336.145,4.759.221,7.242.221,2.534,0,5-.079,7.384-.23,2.029-.127,3.992-.307,5.873-.534,1.431-.172,2.815-.372,4.142-.6,10.079-1.7,16.959-4.838,17.37-8.453h.021l-.222,25.507c0,3.156-4.892,5.976-12.593,7.839h0l-15.785-12.209-8.4,7.974-10.994-7.769-11.827,11.226-.012.042c-6.16-1.833-9.967-4.339-9.967-7.1l.228-25.853c0,3.7,6.778,6.939,16.907,8.713q2.279.4,4.772.7C680.114,2476.774,682.075,2476.95,684.1,2477.075Z" transform="translate(108.673 763.899)" fill="#bf3976"/><path d="M784.447,2457.341a2.7,2.7,0,0,1-.021.344c-.411,3.615-7.291,6.75-17.37,8.453l-.023-17.6C777.442,2450.293,784.447,2453.578,784.447,2457.341Z" transform="translate(50.358 773.697)" fill="#8f2b58"/><path d="M714.027,2526.888q-1.123-.059-2.219-.142l0-.033,6.541-6.207,8.4-7.974,15.785,12.209a87.672,87.672,0,0,1-15.254,2.125c-2.144.125-4.36.191-6.63.2h-.2C718.261,2527.062,716.111,2527,714.027,2526.888Z" transform="translate(79.448 739.988)" fill="#cae6d1"/><g transform="translate(786.879 3210.494)"><path d="M723.079,2471c-2.381.151-4.85.23-7.384.23-2.483,0-4.905-.076-7.242-.221-2.026-.125-3.987-.3-5.867-.525v-8.776a5.344,5.344,0,0,1-.028-.558,5.526,5.526,0,0,1,5.527-5.526h2.972l4.713,4.583v0l4.884-4.585h2.8c.185,0,.371.01.556.028a5.527,5.527,0,0,1,4.941,6.056v8.758C727.071,2470.7,725.108,2470.875,723.079,2471Z" transform="translate(-702.558 -2440.531)" fill="#206491"/><path d="M737.135,2542.821v.008l-.27,9.072a3.181,3.181,0,0,1-6.359-.116v-8.769C732.775,2543.012,734.991,2542.945,737.135,2542.821Z" transform="translate(-717.279 -2486.46)" fill="#206491"/><path d="M729.479,2429.048v2.129a5.32,5.32,0,0,1-10.639,0v-2.129a5.32,5.32,0,1,1,10.639,0Z" transform="translate(-711.135 -2423.728)" fill="#206491"/><path d="M723.126,2543.041v8.768a3.181,3.181,0,0,1-6.359.116l-.27-9.058c2.084.114,4.234.174,6.43.174Z" transform="translate(-709.9 -2486.485)" fill="#206491"/></g><path d="M700.221,2520.735l-6.541,6.207,0,.033a79.544,79.544,0,0,1-16.289-2.741l.012-.042,11.827-11.226Z" transform="translate(97.579 739.76)" fill="#75b594"/><path d="M673.742,2448.714l-.024,17.416,0,.016c-10.129-1.774-16.907-5.012-16.907-8.713S663.6,2450.488,673.742,2448.714Z" transform="translate(108.419 773.604)" fill="#8f2b58"/><path d="M719.193,2497.431a3.4,3.4,0,1,1-3.4,3.4A3.4,3.4,0,0,1,719.193,2497.431Z" transform="translate(77.347 747.942)" fill="#fef693"/></g></svg>