<svg xmlns="http://www.w3.org/2000/svg" width="101" height="101" viewBox="0 0 101 101"><g transform="translate(-749 -3678)"><circle cx="50.5" cy="50.5" r="50.5" transform="translate(749 3678)" fill="#6dc5db"/><g transform="translate(9.096 81.204)"><g transform="translate(756.904 3610.89)"><g transform="translate(0)"><path d="M660.934,2752.2Z" transform="translate(-660.934 -2752.198)" fill="#3c2da1"/><path d="M715.4,2822.672c-10.4-22.681,6.949-17.361,7.689-38.781,1.392-34.026-49.778-35.824-50.532-1.594.286.418-6.825,12.678-6.871,13.037,1.623.644,6.733.479,6.532,3.2.822,14.26,2.78,14.417,16.427,13.99l3.317,10.148S718.2,2822.512,715.4,2822.672Z" transform="translate(-663.642 -2755.207)" fill="#3c2da1"/></g></g><g transform="translate(768.862 3618.288)"><g transform="translate(0 8.438)"><path d="M729.557,2798.836a5.555,5.555,0,1,1-5.555,5.555A5.556,5.556,0,0,1,729.557,2798.836Z" transform="translate(-708.807 -2794.594)" fill="#3c2da1"/><ellipse cx="20.75" cy="9.797" rx="20.75" ry="9.797" fill="#d0dbf8"/><circle cx="8.333" cy="8.333" r="8.333" transform="translate(12.417 1.464)" fill="#0bc0cf"/><g transform="translate(13.87 2.918)"><path d="M736.906,2795.761a6.888,6.888,0,0,1,6.88,6.88h-6.88Z" transform="translate(-730.026 -2795.761)" fill="#fff"/><path d="M727.806,2811.741v6.88a6.888,6.888,0,0,1-6.88-6.88Z" transform="translate(-720.926 -2804.861)" fill="#fff"/></g><g transform="translate(15.195 4.242)"><path d="M736.906,2798.836a5.556,5.556,0,0,1,5.555,5.555h-5.555Z" transform="translate(-731.351 -2798.836)" fill="#6a5aff"/><path d="M729.557,2798.836v5.555h5.555a5.555,5.555,0,1,1-5.555-5.555Z" transform="translate(-724.002 -2798.836)" fill="#3c2da1"/></g></g><g transform="translate(9.112)"><g transform="translate(0 29.112)"><path d="M736.636,2845.2l.016-4.377a.874.874,0,0,0-.714-.88.837.837,0,0,0-.957.828l-.016,4.427a.835.835,0,0,0,1.671,0Z" transform="translate(-724.163 -2838.67)" fill="#d0dbf8"/><path d="M754.522,2837.682a.818.818,0,0,0-.06.316.886.886,0,0,0,.1.4l2.4,2.9a.836.836,0,0,0,1.539-.125.829.829,0,0,0-.051-.637l-2.385-2.875a.873.873,0,0,0-1.037-.456A.837.837,0,0,0,754.522,2837.682Z" transform="translate(-735.266 -2837.095)" fill="#d0dbf8"/><path d="M711.443,2841.149l2.446-2.929a.836.836,0,0,0-.471-1.174.862.862,0,0,0-1.027.435l-2.413,2.868a.835.835,0,0,0-.1.407.854.854,0,0,0,.04.248.835.835,0,0,0,1.529.145Z" transform="translate(-709.874 -2837.004)" fill="#d0dbf8"/></g><g transform="translate(0)"><path d="M734.944,2770.218l-.016,4.377a.873.873,0,0,0,.714.88.836.836,0,0,0,.957-.827l.016-4.427a.836.836,0,0,0-1.671,0Z" transform="translate(-724.142 -2769.384)" fill="#d0dbf8"/><path d="M713.893,2779.73a.818.818,0,0,0,.06-.316.883.883,0,0,0-.1-.4l-2.4-2.9a.836.836,0,0,0-1.539.125.829.829,0,0,0,.051.638l2.385,2.875a.872.872,0,0,0,1.037.456A.835.835,0,0,0,713.893,2779.73Z" transform="translate(-709.874 -2772.959)" fill="#d0dbf8"/><path d="M756.935,2776.272l-2.445,2.929a.836.836,0,0,0,.471,1.174.863.863,0,0,0,1.027-.435l2.413-2.868a.825.825,0,0,0,.064-.655.835.835,0,0,0-1.529-.146Z" transform="translate(-735.229 -2773.059)" fill="#d0dbf8"/></g></g></g></g></g></svg>